$MeshFormat
2.2 0 8
$EndMeshFormat
$PhysicalNames
15
1 201 "LPOUB"
1 202 "LPOUI"
1 204 "LPOUD"
1 205 "LPOUH"
1 206 "LPOUV"
1 207 "LPOUG"
1 208 "LBOD1D"
1 209 "LBOD2H"
1 212 "LVOI1G"
1 213 "LVOI1D"
1 214 "LVOI2G"
1 215 "LVOI2D"
2 100 "POUTRE"
2 101 "VOID1"
2 102 "VOID2"
$EndPhysicalNames
$Nodes
1203
1 0 0.55 0
2 2 0.55 0
3 2 0.65 0
4 0 0.65 0
5 1.4 0.55 0
6 0.5 0.65 0
7 2 0.2 0
8 1.4 0.2 0
9 0 0.75 0
10 0.5 1.35 0
11 0.0199999999999609 0.55 0
12 0.03999999999992312 0.55 0
13 0.05999999999987928 0.55 0
14 0.07999999999983178 0.55 0
15 0.09999999999979425 0.55 0
16 0.119999999999765 0.55 0
17 0.1399999999997331 0.55 0
18 0.1599999999997004 0.55 0
19 0.1799999999996588 0.55 0
20 0.1999999999996028 0.55 0
21 0.2199999999995499 0.55 0
22 0.2399999999994957 0.55 0
23 0.2599999999994451 0.55 0
24 0.2799999999993995 0.55 0
25 0.2999999999993405 0.55 0
26 0.3199999999992815 0.55 0
27 0.3399999999992225 0.55 0
28 0.3599999999991635 0.55 0
29 0.3799999999991045 0.55 0
30 0.3999999999990456 0.55 0
31 0.4199999999989866 0.55 0
32 0.4399999999989409 0.55 0
33 0.4599999999988904 0.55 0
34 0.4799999999988314 0.55 0
35 0.4999999999987725 0.55 0
36 0.5199999999987134 0.55 0
37 0.5399999999986544 0.55 0
38 0.5599999999985955 0.55 0
39 0.5799999999985366 0.55 0
40 0.5999999999984775 0.55 0
41 0.6199999999984185 0.55 0
42 0.6399999999983595 0.55 0
43 0.6599999999983005 0.55 0
44 0.6799999999982417 0.55 0
45 0.6999999999982044 0.55 0
46 0.7199999999982645 0.55 0
47 0.7399999999983027 0.55 0
48 0.7599999999983628 0.55 0
49 0.779999999998416 0.55 0
50 0.7999999999984612 0.55 0
51 0.8199999999985212 0.55 0
52 0.8399999999985638 0.55 0
53 0.8599999999986194 0.55 0
54 0.8799999999986795 0.55 0
55 0.8999999999987396 0.55 0
56 0.9199999999987779 0.55 0
57 0.9399999999988379 0.55 0
58 0.959999999998898 0.55 0
59 0.9799999999989363 0.55 0
60 0.999999999998987 0.55 0
61 1.019999999999007 0.55 0
62 1.039999999999031 0.55 0
63 1.059999999999131 0.55 0
64 1.079999999999155 0.55 0
65 1.0999999999992 0.55 0
66 1.119999999999282 0.55 0
67 1.139999999999302 0.55 0
68 1.159999999999368 0.55 0
69 1.17999999999943 0.55 0
70 1.19999999999945 0.55 0
71 1.219999999999537 0.55 0
72 1.239999999999577 0.55 0
73 1.259999999999606 0.55 0
74 1.279999999999704 0.55 0
75 1.299999999999724 0.55 0
76 1.319999999999774 0.55 0
77 1.339999999999852 0.55 0
78 1.359999999999872 0.55 0
79 1.379999999999943 0.55 0
80 1.419999999999971 0.55 0
81 1.439999999999962 0.55 0
82 1.459999999999974 0.55 0
83 1.479999999999922 0.55 0
84 1.49999999999987 0.55 0
85 1.519999999999801 0.55 0
86 1.539999999999711 0.55 0
87 1.559999999999682 0.55 0
88 1.579999999999653 0.55 0
89 1.599999999999639 0.55 0
90 1.619999999999645 0.55 0
91 1.639999999999679 0.55 0
92 1.659999999999691 0.55 0
93 1.679999999999682 0.55 0
94 1.699999999999653 0.55 0
95 1.719999999999624 0.55 0
96 1.739999999999616 0.55 0
97 1.759999999999627 0.55 0
98 1.779999999999662 0.55 0
99 1.799999999999668 0.55 0
100 1.819999999999653 0.55 0
101 1.839999999999711 0.55 0
102 1.859999999999769 0.55 0
103 1.879999999999853 0.55 0
104 1.899999999999942 0.55 0
105 1.920000000000029 0.55 0
106 1.94 0.55 0
107 1.959999999999994 0.55 0
108 1.979999999999997 0.55 0
109 2 0.5666666666665005 0
110 2 0.5833333333329864 0
111 2 0.5999999999996097 0
112 2 0.6166666666662836 0
113 2 0.6333333333331453 0
114 1.980263157894998 0.65 0
115 1.960526315789996 0.65 0
116 1.940789473684994 0.65 0
117 1.921052631579993 0.65 0
118 1.901315789474892 0.65 0
119 1.881578947369624 0.65 0
120 1.861842105264329 0.65 0
121 1.842105263159036 0.65 0
122 1.822368421053748 0.65 0
123 1.8026315789486 0.65 0
124 1.782894736843592 0.65 0
125 1.76315789473859 0.65 0
126 1.74342105263351 0.65 0
127 1.723684210528225 0.65 0
128 1.703947368422931 0.65 0
129 1.684210526317637 0.65 0
130 1.664473684212343 0.65 0
131 1.644736842107049 0.65 0
132 1.625000000001755 0.65 0
133 1.605263157896461 0.65 0
134 1.585526315791167 0.65 0
135 1.565789473685873 0.65 0
136 1.546052631580579 0.65 0
137 1.526315789475285 0.65 0
138 1.506578947369991 0.65 0
139 1.486842105264697 0.65 0
140 1.467105263159403 0.65 0
141 1.447368421054109 0.65 0
142 1.427631578948815 0.65 0
143 1.407894736843521 0.65 0
144 1.388157894738227 0.65 0
145 1.368421052632933 0.65 0
146 1.348684210527639 0.65 0
147 1.328947368422345 0.65 0
148 1.309210526317051 0.65 0
149 1.289473684211757 0.65 0
150 1.269736842106463 0.65 0
151 1.250000000001169 0.65 0
152 1.230263157895875 0.65 0
153 1.210526315790581 0.65 0
154 1.190789473685287 0.65 0
155 1.171052631579993 0.65 0
156 1.1513157894747 0.65 0
157 1.131578947369406 0.65 0
158 1.111842105264112 0.65 0
159 1.092105263158818 0.65 0
160 1.072368421053524 0.65 0
161 1.05263157894823 0.65 0
162 1.032894736842936 0.65 0
163 1.013157894737642 0.65 0
164 0.9934210526323479 0.65 0
165 0.9736842105270542 0.65 0
166 0.9539473684217603 0.65 0
167 0.9342105263164664 0.65 0
168 0.9144736842111725 0.65 0
169 0.8947368421058786 0.65 0
170 0.8750000000005846 0.65 0
171 0.8552631578952907 0.65 0
172 0.8355263157899966 0.65 0
173 0.8157894736847027 0.65 0
174 0.796052631579409 0.65 0
175 0.7763157894741151 0.65 0
176 0.7565789473688209 0.65 0
177 0.7368421052635272 0.65 0
178 0.7171052631582331 0.65 0
179 0.6973684210529392 0.65 0
180 0.6776315789476453 0.65 0
181 0.6578947368423513 0.65 0
182 0.6381578947370574 0.65 0
183 0.6184210526317635 0.65 0
184 0.5986842105264696 0.65 0
185 0.5789473684211757 0.65 0
186 0.5592105263158815 0.65 0
187 0.5394736842105878 0.65 0
188 0.5197368421052939 0.65 0
189 0.4807692307691507 0.65 0
190 0.4615384615383014 0.65 0
191 0.442307692307452 0.65 0
192 0.4230769230767628 0.65 0
193 0.403846153846127 0.65 0
194 0.3846153846154912 0.65 0
195 0.3653846153848554 0.65 0
196 0.3461538461542196 0.65 0
197 0.3269230769235838 0.65 0
198 0.3076923076929479 0.65 0
199 0.288461538462312 0.65 0
200 0.2692307692316762 0.65 0
201 0.2500000000010295 0.65 0
202 0.2307692307701911 0.65 0
203 0.2115384615393418 0.65 0
204 0.1923076923084925 0.65 0
205 0.1730769230776433 0.65 0
206 0.153846153846794 0.65 0
207 0.1346153846159447 0.65 0
208 0.1153846153850955 0.65 0
209 0.09615384615424621 0.65 0
210 0.07692307692339695 0.65 0
211 0.05769230769254768 0.65 0
212 0.03846153846169853 0.65 0
213 0.01923076923084927 0.65 0
214 0 0.6333333333334201 0
215 0 0.6166666666666595 0
216 0 0.5999999999999133 0
217 0 0.5833333333331672 0
218 0 0.5666666666665727 0
219 1.999357676968028 0.2196209388232522 0
220 1.997433458398939 0.239157857766311 0
221 1.994235584091173 0.2585270967546346 0
222 1.989777747833456 0.2776457137295436 0
223 1.984079038760652 0.2964318398498339 0
224 1.977163859628997 0.3148050300098296 0
225 1.969061822282749 0.3326866074247373 0
226 1.959807620904265 0.3500000004002188 0
227 1.949440883409316 0.3666710703270968 0
228 1.938006001753655 0.3826284291375224 0
229 1.9255519418559 0.3978037449722147 0
230 1.912132033901297 0.4121320348106317 0
231 1.897803743975925 0.4255519427296225 0
232 1.882628428102947 0.438006002547513 0
233 1.866671069257025 0.4494408841243149 0
234 1.849999999269041 0.4598076215573511 0
235 1.832686606240029 0.4690618228669828 0
236 1.814805028762877 0.4771638601455012 0
237 1.796431838565128 0.4840790391967509 0
238 1.777645712384923 0.4897777481937456 0
239 1.758527095426731 0.4942355843553093 0
240 1.739157856498563 0.4974334585658413 0
241 1.719620937533366 0.4993576770525717 0
242 1.699999998728813 0.5 0
243 1.680379060009824 0.4993576768915438 0
244 1.660842141188153 0.4974334582612916 0
245 1.641472902285425 0.4942355839002289 0
246 1.622354285464796 0.4897777476175796 0
247 1.603568159500574 0.4840790385401452 0
248 1.58519496944234 0.4771638594020778 0
249 1.567313392218225 0.4690618221066775 0
250 1.549999999285039 0.4598076207225486 0
251 1.533328929464736 0.4494408832702234 0
252 1.517371570695399 0.4380060016254511 0
253 1.502196254926103 0.425551941766727 0
254 1.487867965186364 0.4121320338982924 0
255 1.474448057409929 0.3978037441350524 0
256 1.461993997624023 0.3826284283264972 0
257 1.450559116072271 0.3666710695512374 0
258 1.440192378678187 0.3499999996770046 0
259 1.430938177408772 0.3326866067992044 0
260 1.422836140146248 0.3148050294672234 0
261 1.415920961082502 0.2964318393877809 0
262 1.410222252069348 0.2776457133668027 0
263 1.405764415849253 0.2585270964551353 0
264 1.40256654157175 0.2391578575436732 0
265 1.400642323024329 0.2196209387066365 0
266 0.01888941526162724 0.7537722594230323 0
267 0.03765030829415178 0.7581390480352315 0
268 0.05626397162342012 0.7630960114805773 0
269 0.07471184467519593 0.7686382069341963 0
270 0.09297553208495291 0.7747601079768281 0
271 0.1110368222076289 0.7814556101513681 0
272 0.1288777051863124 0.7887180370215685 0
273 0.1464803910084598 0.7965401468686752 0
274 0.1638273271021256 0.8049141398530819 0
275 0.1809012159431449 0.8138316658335745 0
276 0.1976850323222712 0.8232838327098333 0
277 0.2141620401649118 0.8332612152004437 0
278 0.2303158094574779 0.8437538643769203 0
279 0.2461302324606108 0.8547513174903426 0
280 0.2615895397863741 0.8662426084064959 0
281 0.2766783161463756 0.8782162785531874 0
282 0.291381515806654 0.8906603884175099 0
283 0.3056844774243224 0.9035625293185304 0
284 0.3195729387931066 0.9169098358809636 0
285 0.3330330509538245 0.9306889987580269 0
286 0.3460513922367096 0.9448862781403735 0
287 0.3586149813520038 0.9594875171617927 0
288 0.3707112904032219 0.9744781560563097 0
289 0.3823282576103925 0.9898432469627771 0
290 0.3934542991713542 1.005567468659128 0
291 0.4040783206079214 1.02163514152556 0
292 0.4141897282768878 1.038030243823215 0
293 0.4237784395512066 1.054736427119296 0
294 0.4328348930981025 1.071737032943348 0
295 0.4413500581736892 1.089015108958642 0
296 0.4493154438905568 1.106553426342638 0
297 0.4567231075601017 1.124334496749234 0
298 0.4635656626321993 1.142340589788745 0
299 0.4698362860400642 1.160553750654005 0
300 0.4755287250157071 1.178955818042587 0
301 0.4806373033590622 1.197528442387653 0
302 0.4851569270239288 1.216253103903552 0
303 0.4890830892304908 1.23511113109595 0
304 0.4924118750844761 1.254083720061683 0
305 0.4951399652281285 1.273151951985106 0
306 0.4972646393630268 1.292296813092404 0
307 0.4987837788524545 1.3114992129155 0
308 0.4996958688960285 1.330740003865085 0
309 0 0.6666666666665799 0
310 0 0.6833333333333406 0
311 0 0.7000000000000868 0
312 0 0.7166666666668329 0
313 0 0.7333333333334273 0
314 0.5 1.33055555555558 0
315 0.5 1.311111111111203 0
316 0.5 1.291666666666811 0
317 0.5 1.272222222222372 0
318 0.5 1.252777777777985 0
319 0.5 1.233333333333608 0
320 0.5 1.213888888889183 0
321 0.5 1.194444444444767 0
322 0.5 1.17500000000039 0
323 0.5 1.155555555555994 0
324 0.5 1.136111111111554 0
325 0.5 1.116666666667173 0
326 0.5 1.097222222222795 0
327 0.5 1.077777777778365 0
328 0.5 1.058333333333955 0
329 0.5 1.038888888889578 0
330 0.5 1.019444444445177 0
331 0.5 1.000000000000737 0
332 0.5 0.98055555555623 0
333 0.5 0.9611111111117229 0
334 0.5 0.9416666666672592 0
335 0.5 0.9222222222227955 0
336 0.5 0.9027777777783318 0
337 0.5 0.8833333333338682 0
338 0.5 0.8638888888894045 0
339 0.5 0.8444444444449408 0
340 0.5 0.8250000000004337 0
341 0.5 0.805555555555958 0
342 0.5 0.7861111111114629 0
343 0.5 0.7666666666669559 0
344 0.5 0.7472222222224657 0
345 0.5 0.7277777777779851 0
346 0.5 0.7083333333334781 0
347 0.5 0.6888888888889734 0
348 0.5 0.6694444444444975 0
349 1.4 0.2194444444443951 0
350 1.4 0.238888888888786 0
351 1.4 0.2583333333331835 0
352 1.4 0.2777777777775756 0
353 1.4 0.2972222222219652 0
354 1.4 0.3166666666663705 0
355 1.4 0.3361111111107277 0
356 1.4 0.3555555555550957 0
357 1.4 0.3749999999994528 0
358 1.4 0.3944444444439195 0
359 1.4 0.413888888888432 0
360 1.4 0.4333333333329432 0
361 1.4 0.4527777777774605 0
362 1.4 0.472222222221944 0
363 1.4 0.4916666666664372 0
364 1.4 0.5111111111109414 0
365 1.4 0.5305555555554959 0
366 2 0.5305555555555953 0
367 2 0.5111111111111737 0
368 2 0.4916666666667461 0
369 2 0.4722222222223534 0
370 2 0.4527777777779716 0
371 2 0.4333333333336187 0
372 2 0.4138888888892405 0
373 2 0.394444444444837 0
374 2 0.3750000000004227 0
375 2 0.3555555555559096 0
376 2 0.3361111111114399 0
377 2 0.3166666666669702 0
378 2 0.2972222222225004 0
379 2 0.2777777777780031 0
380 2 0.2583333333334961 0
381 2 0.2388888888890046 0
382 2 0.2194444444444926 0
383 0.3643090713367635 0.6300008670186399 0
384 0.4030829723769841 0.6300002415965414 0
385 0.2673769862975788 0.6300211159303324 0
386 0.3061519417495226 0.6300058923043391 0
387 0.4418689284101323 0.6300000673192488 0
388 0.2091803681190877 0.6301415024771998 0
389 0.4807106093113654 0.6300000187579118 0
390 0.06303886831901773 0.6323562045340168 0
391 0.1508211726781684 0.630825358293306 0
392 0.09485563597990887 0.6390935044479071 0
393 1.916027650551143 0.6323180076122755 0
394 1.786410312647484 0.6302627554132207 0
395 1.726962331801942 0.6300398344503005 0
396 1.826163497989669 0.6308232537470763 0
397 1.509263171294386 0.6300000354567126 0
398 0.5396242636347013 0.6300000027589961 0
399 0.5791696540362221 0.6300000007687684 0
400 0.6187400639259046 0.6300000002142102 0
401 0.6583166835503248 0.6300000000596879 0
402 1.449894738813973 0.6300000052151324 0
403 0.6978949857222166 0.6300000000166319 0
404 1.390526316080423 0.6300000007670646 0
405 1.667581167460718 0.630005879240699 0
406 1.548842153348835 0.630000127248345 0
407 1.588421225191918 0.6300004566663956 0
408 1.331157894780473 0.6300000001128235 0
409 0.9947368421228002 0.630000000000004 0
410 1.113473684211549 0.6300000000001005 0
411 1.172842105264189 0.6300000000006806 0
412 1.271789473691378 0.6300000000165951 0
413 1.034315789478936 0.6300000000000084 0
414 0.7374737535420235 0.6300000000046347 0
415 0.8957894741023497 0.6300000000000286 0
416 1.212421052633306 0.6300000000024413 0
417 0.8166315843300148 0.6300000000003606 0
418 1.869406362168664 0.6304300614107592 0
419 0.9353684211693832 0.6300000000000086 0
420 0.07828795327916893 0.5719265596458499 0
421 0.3809260969149066 0.5700004577055331 0
422 0.301536551738543 0.5700058977567848 0
423 0.2618384470324999 0.570021196826478 0
424 0.4404823407368447 0.5700000673196823 0
425 0.5001083050769042 0.5700000099016389 0
426 0.202252849934297 0.570146125554043 0
427 0.1623911952022416 0.5705482869886672 0
428 1.942638289552583 0.5689367067787201 0
429 1.79669045657865 0.5702805533189784 0
430 1.537263183277515 0.5700000671704833 0
431 1.71679748922022 0.5700211499178769 0
432 1.497368428125417 0.5700000187163682 0
433 0.5598629316256378 0.5700000014563753 0
434 0.6196873978370656 0.5700000002142103 0
435 0.6795267868231852 0.5700000000315073 0
436 1.457473686181479 0.5700000052151344 0
437 1.41757894791779 0.5700000014531478 0
438 1.597105435740638 0.5700004566911528 0
439 1.676896962134616 0.5700058846904206 0
440 1.297894736854015 0.5700000000314378 0
441 1.01863157895578 0.5700000000000054 0
442 1.138315789473599 0.57000000000019 0
443 1.357736842186196 0.5700000002137358 0
444 1.198157894737147 0.5700000000012888 0
445 1.078473684211372 0.5700000000000285 0
446 1.258000000003248 0.5700000000087601 0
447 0.9787368421370041 0.5700000000000038 0
448 0.7393684903723278 0.5700000000046348 0
449 0.9188947370618556 0.5700000000000155 0
450 0.8391052659980893 0.5700000000001905 0
451 0.7992105365113633 0.5700000000006823 0
452 1.857781357711527 0.5721392982998943 0
453 1.98230430739932 0.5840669496790132 0
454 0.01111778709112516 0.614403679950444 0
455 0.03772528212055955 0.5688939759762335 0
456 0.01695163511697034 0.5852509484412748 0
457 1.96022506860868 0.6259619001512489 0
458 1.983470382297558 0.6001979308094538 0
459 1.98330198776037 0.6155036114160533 0
460 0.121589334900408 0.5721436542862157 0
461 0.241985228962613 0.5700402347981274 0
462 0.4206265855538302 0.5700001275326602 0
463 0.3610782930546405 0.5700008671140485 0
464 0.3412310601027512 0.5700016427778044 0
465 0.5399324503935862 0.5700000027589968 0
466 0.4802195561113392 0.570000018757941 0
467 0.5002311716841501 0.6300000099016312 0
468 1.058526315791458 0.5700000000000154 0
469 1.92258078078637 0.5702880753540512 0
470 1.836991632172923 0.5710863581871009 0
471 1.776688046702607 0.5701458056103224 0
472 0.7194211839434547 0.5700000000087797 0
473 1.118368421052641 0.5700000000001005 0
474 1.637000619507082 0.5700016391372742 0
475 1.337789473726968 0.5700000001128237 0
476 1.901483453133036 0.5719160242035672 0
477 1.397631579237467 0.5700000007670647 0
478 1.756713414067896 0.5700763562008192 0
479 1.178210526315844 0.5700000000006805 0
480 0.879000000790743 0.5700000000000535 0
481 0.9587894737449285 0.5700000000000054 0
482 0.7792631772102971 0.5700000000012919 0
483 1.238052631580589 0.5700000000046241 0
484 1.577157985833933 0.5700002410675187 0
485 0.599742846687237 0.5700000004058055 0
486 0.6595798391179826 0.5700000000596879 0
487 1.883202234316087 0.6390859065649178 0
488 1.469684214260854 0.6300000098796865 0
489 1.410315790023919 0.6300000014531475 0
490 1.608210853194531 0.6300008650970067 0
491 1.687372621766769 0.6300111324573142 0
492 1.628000619157749 0.6300016387699595 0
493 1.232210526318369 0.6300000000046244 0
494 1.05410526316093 0.6300000000000151 0
495 1.291578947381231 0.6300000000314376 0
496 1.07389473684399 0.6300000000000282 0
497 1.133263157895653 0.63000000000019 0
498 1.350947368502849 0.6300000002137356 0
499 0.7572631944909389 0.6300000000024469 0
500 0.7770526508964298 0.630000000001292 0
501 0.8364210554729589 0.6300000000001907 0
502 0.8562105278157474 0.6300000000001009 0
503 0.9551578947986507 0.6300000000000052 0
504 1.746764900659667 0.6300751565713532 0
505 0.2285882096703659 0.6300753245474158 0
506 0.1703031725194794 0.6304797199643721 0
507 0.1085495209294477 0.6304381882652211 0
508 0.3255377958418431 0.6300031110670431 0
509 0.02060874277841071 0.6263845266554319 0
510 1.981581537458355 0.631675732387367 0
511 1.98109723284644 0.5671684025042159 0
512 0.01867536192190726 0.5677115270543239 0
513 0.08883263520718572 0.6198214415336756 0
514 0.3046123005273646 0.6100095366756386 0
515 0.2264169985165505 0.6101224836136422 0
516 0.1478243114465793 0.6115128567806153 0
517 0.4805954709876112 0.6100000303509533 0
518 0.3818510574956174 0.5900007405707244 0
519 0.4212491427327236 0.5900002063513439 0
520 1.750098596923819 0.6101222115235126 0
521 1.452421055821099 0.6100000084382625 0
522 1.889865571502167 0.6198004683696398 0
523 1.670687805309724 0.6100095155368629 0
524 1.591316068692791 0.6100007389141282 0
525 1.392894737311906 0.6100000012411366 0
526 1.035736842113112 0.6100000000000136 0
527 1.055578947372666 0.6100000000000246 0
528 1.273842105273897 0.610000000026851 0
529 1.115105263158831 0.6100000000001625 0
530 1.333368421122318 0.6100000001825523 0
531 1.234157894740193 0.6100000000074821 0
532 0.7381053753329457 0.6100000000074991 0
533 0.8174736929193518 0.6100000000005833 0
534 0.8373157940706547 0.6100000000003083 0
535 0.9563684211520634 0.6100000000000085 0
536 0.5398537653809292 0.5900000044641501 0
537 1.945915941634975 0.5875847638854066 0
538 1.793329215591612 0.5904455689156243 0
539 0.6193735954183788 0.5900000003465994 0
540 0.6591593387813509 0.5900000000965769 0
541 1.19631578947463 0.5900000000020853 0
542 1.833608952119495 0.5916741614673333 0
543 0.03475050858798245 0.5875818091505581 0
544 1.964457222789947 0.5854324565036475 0
545 0.03019468672465575 0.6059886006087258 0
546 0.2439762503266074 0.5900649460860122 0
547 0.5001997109843195 0.5900000160211845 0
548 1.753415094041407 0.5901229529361522 0
549 1.926107850429632 0.5902745388391487 0
550 1.574315936869169 0.590000390052225 0
551 1.415157895625865 0.5900000023512422 0
552 0.7188423177518163 0.5900000000142056 0
553 1.355473684341659 0.5900000003458314 0
554 1.136631578947782 0.5900000000003075 0
555 1.076947368423073 0.5900000000000459 0
556 1.256000000005604 0.5900000000141737 0
557 0.9774736842626784 0.5900000000000063 0
558 0.7984210691295578 0.5900000000011039 0
559 0.05747019040027079 0.5702905549155454 0
560 1.936554488962082 0.6296683892245803 0
561 0.3621560673432468 0.590001402972299 0
562 0.1000326451000702 0.5728203881341474 0
563 0.1422624854978945 0.5710885933494526 0
564 0.2816883447030051 0.5700111782047111 0
565 0.3213839477235349 0.5700031124825863 0
566 0.4007751471399622 0.5700002416029724 0
567 0.2221255181736753 0.5700765247765653 0
568 0.1823530732993888 0.5702811617115084 0
569 0.4603453938723678 0.5700000355355819 0
570 0.5200130833270631 0.5700000052267185 0
571 1.879501950935938 0.5728125122367617 0
572 1.277947368427309 0.570000000016595 0
573 1.218105263158671 0.5700000000024411 0
574 1.816756234026238 0.5705471255321447 0
575 1.736752102742609 0.570040145893614 0
576 1.158263157894671 0.5700000000003596 0
577 1.37768421067953 0.5700000004049063 0
578 1.656948542375198 0.5700031055856876 0
579 0.7593158260659203 0.5700000000024469 0
580 1.317842105285739 0.570000000059556 0
581 1.557210574401893 0.5700001272500136 0
582 0.9388421053788057 0.5700000000000087 0
583 1.477421056365168 0.5700000098796939 0
584 0.9986842105427776 0.5700000000000038 0
585 0.8191579001182551 0.5700000000003604 0
586 0.8989473688380623 0.5700000000000285 0
587 1.098421052631853 0.5700000000000534 0
588 0.8590526330777432 0.5700000000001008 0
589 1.617052958547465 0.5700008651923677 0
590 1.61115842368204 0.6100013998040418 0
591 0.6994739329326318 0.5700000000166319 0
592 1.43752631682999 0.5700000027528821 0
593 1.038578947372607 0.5700000000000087 0
594 1.696846326011326 0.5700111534487694 0
595 1.517315802872376 0.5700000354568251 0
596 0.5798007209824516 0.5700000007687683 0
597 0.6396332660293211 0.5700000001130741 0
598 1.707165833101249 0.6300210690621503 0
599 1.806269818621176 0.6304785927440028 0
600 1.896913011763413 0.6355562839465508 0
601 1.529052656962433 0.63000006717005 0
602 1.489473691284291 0.6300000187163389 0
603 0.5593912197037318 0.6300000014563754 0
604 0.6385280118315897 0.630000000113074 0
605 0.5989535059266231 0.6300000004058053 0
606 1.568631670039525 0.6300002410610914 0
607 0.6781057347966616 0.6300000000315074 0
608 1.846187540895827 0.6311606586840404 0
609 1.647790646289226 0.6300031041708515 0
610 1.4301052641993 0.6300000027528815 0
611 0.7176843418801333 0.6300000000087796 0
612 1.014526315798959 0.6300000000000052 0
613 1.093684210527617 0.6300000000000533 0
614 1.37073684225933 0.6300000004049062 0
615 1.252000000004174 0.63000000000876 0
616 1.3113684210761 0.6300000000595559 0
617 1.153052631579871 0.6300000000003595 0
618 0.9749473684538746 0.630000000000004 0
619 1.192631578948639 0.6300000000012889 0
620 0.7968421154601145 0.6300000000006825 0
621 0.8760000007918872 0.6300000000000537 0
622 0.9155789475892887 0.6300000000000153 0
623 1.766578373274177 0.630141184843344 0
624 0.7579474276331772 0.610000000003959 0
625 0.5198847033288171 0.6300000052267163 0
626 0.0815768310680569 0.6355718609835233 0
627 0.1312238413082746 0.6311645616288869 0
628 0.4224732514023057 0.6300001275309907 0
629 0.4612760735100891 0.6300000355354693 0
630 0.1897547941080421 0.630263354909311 0
631 0.2479855283126744 0.6300399231991261 0
632 0.3836953622173676 0.6300004576807633 0
633 0.3449233704747114 0.6300016424103065 0
634 0.2867652879975723 0.6300111572027624 0
635 0.01432395576932464 0.6021043994838776 0
636 0.04319251566571771 0.6297776948303128 0
637 1.962050478284352 0.5678939037614654 0
638 1.970871705182166 0.6138444321812262 0
639 0.05395962850973689 0.5903089810326742 0
640 0.2636798767422706 0.5900342568025078 0
641 0.1847567155726657 0.5904465488062296 0
642 1.511947390101089 0.6100000573702222 0
643 0.5793871859906767 0.6100000012438932 0
644 1.472263163936295 0.6100000159856722 0
645 0.896842105939197 0.6100000000000462 0
646 0.8571578971633337 0.6100000000001631 0
647 1.551631656751268 0.6100002058929814 0
648 1.63100100199232 0.6100026517691597 0
649 1.293684210546167 0.610000000050867 0
650 0.9365263159778228 0.6100000000000139 0
651 0.6989477709414957 0.5900000000269108 0
652 1.156526315789885 0.5900000000005817 0
653 1.693691029814967 0.5900180361703238 0
654 0.1282041546171651 0.6127746156964289 0
655 0.3241527680518283 0.6100050345200648 0
656 1.015894736856822 0.6100000000000083 0
657 0.2068393677320839 0.6102313224818361 0
658 0.285070533437092 0.6100180632411134 0
659 0.04887413002044166 0.6099902162351352 0
660 0.06922586518142272 0.6138818425058588 0
661 0.7777895049397775 0.6100000000020903 0
662 1.73023488547991 0.6100646098308297 0
663 0.1675626515850142 0.6108154070754944 0
664 0.2655260786258686 0.6100342068059396 0
665 0.2242624397455342 0.5901232253969079 0
666 0.1005980430466252 0.5992962155651961 0
667 0.144893653858424 0.5916777087246421 0
668 0.3227681514533179 0.5900050353949187 0
669 0.3632329960140303 0.6100014029133334 0
670 0.4023174131824652 0.610000390914631 0
671 0.441420422216269 0.6100001089250494 0
672 0.4409576651721677 0.5900001089253173 0
673 1.950636244866278 0.6058380444596611 0
674 0.4804239537704785 0.5900000303509715 0
675 1.865053285854477 0.6143755031524332 0
676 0.2833782132498283 0.5900180762210315 0
677 0.5002529226355887 0.6100000160211797 0
678 0.599483465656946 0.5900000006566068 0
679 0.4015481002587749 0.5900003909186055 0
680 0.5397531866589311 0.6100000044641498 0
681 1.037157894744337 0.5900000000000138 0
682 0.8183157981820849 0.5900000000005831 0
683 0.6984214552493201 0.6100000000269108 0
684 1.174631578948266 0.6100000000011012 0
685 0.7387369542733726 0.5900000000074992 0
686 1.904594241570958 0.5936176007203344 0
687 1.27589473685254 0.590000000026851 0
688 1.733498227089693 0.5900648023134043 0
689 1.435052633262673 0.5900000044542562 0
690 1.375368421300686 0.5900000006551519 0
691 1.216210526317461 0.5900000000039497 0
692 1.096842105264221 0.5900000000000862 0
693 1.554421130436076 0.5900002058940127 0
694 1.931129290632494 0.6098931149270345 0
695 1.690533122696039 0.610018023196891 0
696 0.6190578272726732 0.6100000003465994 0
697 0.5597188377493199 0.5900000023564647 0
698 1.594210805549093 0.5900007389294291 0
699 1.057052631582842 0.5900000000000248 0
700 1.335578947437816 0.5900000001825524 0
701 0.9575789474674891 0.5900000000000085 0
702 1.514631600627116 0.5900000573702917 0
703 1.474842111304401 0.5900000159856769 0
704 1.614105792158931 0.5900013998629781 0
705 0.8978947375177677 0.5900000000000462 0
706 0.8581052655839982 0.5900000000001631 0
707 1.653896635664885 0.5900050242358555 0
708 1.315684210563101 0.5900000000963634 0
709 0.9376842107142969 0.5900000000000138 0
710 1.789897660992953 0.6104345678452813 0
711 1.829922243959428 0.6115093933575616 0
712 0.6587382875876535 0.6100000000965771 0
713 1.412736842994576 0.6100000023512421 0
714 1.353210526447211 0.6100000003458314 0
715 1.1349473684218 0.6100000000003074 0
716 1.214315789475673 0.6100000000039498 0
717 1.075421052633946 0.6100000000000458 0
718 0.9960526316067104 0.6100000000000063 0
719 0.9973684210800359 0.5900000000000063 0
720 1.854220266810752 0.5934591511511548 0
721 0.7785263470441972 0.5900000000020904 0
722 0.3424620104416043 0.5900026578865825 0
723 0.5200110063118367 0.5900000084570071 0
724 1.81338623155096 0.5908559764953101 0
725 0.6392658921242949 0.5900000001829576 0
726 0.6790533940305796 0.5900000000509797 0
727 1.176421052632151 0.5900000000011011 0
728 1.116736842105862 0.5900000000001626 0
729 1.395263158364252 0.5900000012411367 0
730 1.236105263160933 0.590000000007482 0
731 1.773352254753278 0.5902336632162479 0
732 1.432578949052443 0.6100000044542558 0
733 1.65084400325177 0.6100050233614387 0
734 1.373052631827287 0.6100000006551518 0
735 1.313526315826554 0.6100000000963633 0
736 1.095263157896142 0.6100000000000861 0
737 1.910095708354096 0.6138365808541842 0
738 0.9762105263683023 0.6100000000000062 0
739 1.571473831602619 0.6100003900482528 0
740 0.7182633704089616 0.6100000000142056 0
741 0.7976315954458607 0.6100000000011041 0
742 1.254000000005913 0.6100000000141739 0
743 1.769981107902385 0.6102308073910934 0
744 0.4609920336604941 0.6100000574976534 0
745 0.2459764353349292 0.6100647535072169 0
746 0.1132505493393741 0.6143855582561143 0
747 1.967551534639604 0.6019785794199749 0
748 0.07494604839682298 0.5936458165264717 0
749 0.1244950303524302 0.5934659820887745 0
750 0.2045289304744106 0.5902341797346148 0
751 0.4606796569169234 0.590000057497723 0
752 0.1649064277012254 0.5908578381056061 0
753 0.7586316381573901 0.5900000000039591 0
754 0.8382105309123614 0.5900000000003081 0
755 1.534526356859774 0.5900001086839083 0
756 1.454947371610267 0.5900000084382636 0
757 0.3030738356544639 0.5900095400454354 0
758 1.878339640580501 0.599281374981364 0
759 1.713591878115794 0.5900341809230136 0
760 1.295789473703762 0.5900000000508672 0
761 0.8780000012804116 0.5900000000000866 0
762 1.673793071681893 0.5900095189049761 0
763 1.634001002208576 0.5900026519961726 0
764 0.5795973958816298 0.5900000012438933 0
765 0.917789474040668 0.5900000000000247 0
766 1.494736853549469 0.5900000302837052 0
767 1.531789514754628 0.6100001086836406 0
768 0.5992203899129978 0.6100000006566068 0
769 1.154789473684952 0.6100000000005817 0
770 0.9166842108831458 0.6100000000000249 0
771 1.809871990716441 0.6108135667022971 0
772 1.710381304104946 0.6100341309514259 0
773 1.49210527460242 0.610000030283687 0
774 0.8770000012807931 0.6100000000000866 0
775 0.6388974766090316 0.6100000001829577 0
776 0.6785797101936514 0.61000000005098 0
777 1.194473684211793 0.6100000000020854 0
778 0.5595621615949001 0.6100000023564647 0
779 0.3827741557612274 0.6100007405554158 0
780 1.849857093991607 0.6127681886914094 0
781 0.5199760457962038 0.6100000084570059 0
782 0.1872288297341512 0.6104355422356279 0
783 0.4218648437737987 0.610000206350312 0
784 0.3436927813282933 0.6100026576594564 0
785 1.017263157909096 0.5900000000000084 0
786 0.3466923759054225 0.6693637424918391 0
787 0.2729768256986128 0.851326820769679 0
788 0.4808760038473356 0.824679927825096 0
789 0.2699200540087845 0.6697490691765379 0
790 0.3472871999426935 0.9158948148459227 0
791 0.2067455356777695 0.8059443383535724 0
792 0.1925184161187956 0.6698127328310722 0
793 0.480942887727231 0.7664536352304651 0
794 0.4809682432575381 0.902934802679375 0
795 0.1356524159632879 0.7718052763849619 0
796 0.3830819069196721 0.9687271172566949 0
797 0.09497715637324269 0.6691351362231495 0
798 0.1342932339784328 0.669910543613525 0
799 0.4041170102793198 0.6693287704708941 0
800 0.4820986326146449 0.9613167779598963 0
801 0.06259907714026691 0.7430636110322719 0
802 0.4157439258675329 1.005289716409116 0
803 0.4809135490024357 0.7276552511065966 0
804 0.4868373582034888 1.037924692098943 0
805 0.4424465288773984 0.6693653612550879 0
806 0.01854054379510073 0.7017997545380291 0
807 0.01888123869058739 0.7366017796726192 0
808 0.4638122348607777 1.106976385456988 0
809 0.4388455831376875 1.038069563769297 0
810 0.4808513376801193 0.6888323765395408 0
811 0.03781487897062647 0.6677115882970706 0
812 0.4771533189591189 1.123948985495131 0
813 0.01891953575541176 0.6672075806029131 0
814 0.1176560236130773 0.7640238049023295 0
815 0.2241103903060363 0.8163415833115276 0
816 0.288180433360904 0.8637728486600862 0
817 0.381251641685602 0.9503215518382305 0
818 0.05671805574114821 0.6681767088834555 0
819 0.4616261476886255 0.6693900042210712 0
820 0.4827703491139264 1.089082479450015 0
821 0.4639060577246257 1.070320291690396 0
822 0.4796685107834059 1.022259072210614 0
823 0.481939551452238 0.9999042728083053 0
824 0.4816119411998064 0.9420944399487217 0
825 0.4808802765875959 0.8833016925385364 0
826 0.4808364197987228 0.8637136687908646 0
827 0.4809148832606185 0.8052459177672844 0
828 0.3083766168399794 0.669504852272407 0
829 0.3658306860876168 0.6693329917904258 0
830 0.231208715893313 0.6699374637986881 0
831 0.1539691109905648 0.6699208216564418 0
832 0.09721722798778848 0.7529186275443369 0
833 0.1713132382541973 0.7877858402516873 0
834 0.2409599715922879 0.8275102776831803 0
835 0.3029667671769315 0.8764381769406604 0
836 0.3321179130828428 0.902350179813226 0
837 0.4049864799361592 0.9916641079944826 0
838 0.4808116597214167 0.6694167110491015 0
839 0.4825765655492482 1.158988059679191 0
840 0.3147935358691455 0.8620629081948813 0
841 0.3472400225085198 0.6887012540332729 0
842 0.4617534732643872 0.824300545218913 0
843 0.2521599150331046 0.8108116153912068 0
844 0.3442464568672974 0.8874471222611264 0
845 0.4618889693988456 0.9030019126984729 0
846 0.1244776208959418 0.7477194739393526 0
847 0.4079864538326356 0.9631901998094969 0
848 0.4647299603487896 0.9615932821721055 0
849 0.1340499395939211 0.6902364920522972 0
850 0.4253801648955899 0.9847186208402923 0
851 0.4652184801114925 1.014443543393957 0
852 0.03826313996311025 0.7400087885245893 0
853 0.03718272423563582 0.6854803272296239 0
854 0.4786385543671753 1.051285040927883 0
855 0.2346389374429058 0.7986585499629627 0
856 0.2849191993157266 0.8360749023093917 0
857 0.4276702605879388 1.020786406574603 0
858 0.1890673887103916 0.7964836746701691 0
859 0.3629524727452802 0.9309904188168183 0
860 0.01868989640582492 0.7192098002525715 0
861 0.0781876008312211 0.7552357586871433 0
862 0.1535283257628449 0.7795912091083289 0
863 0.2572469350264078 0.8392085040243332 0
864 0.3175218784761253 0.8892803281845444 0
865 0.3974407973690806 0.9782118381300871 0
866 0.4498927739352875 1.054676521349448 0
867 0.07573081639770651 0.6686426148459149 0
868 0.480885864932429 0.7082457951808769 0
869 0.4822730674258979 0.9804803587035235 0
870 0.480933228258749 0.7470583637176886 0
871 0.4617263422236341 0.8832446435922834 0
872 0.4811742811391018 0.9225906983118005 0
873 0.4809382344315684 0.7858448509825552 0
874 0.4808400993519524 0.8441681186748481 0
875 0.3275447729218438 0.6694201607547464 0
876 0.2891744255019407 0.6696175632871513 0
877 0.250597501906113 0.6698691978123749 0
878 0.2118096577966154 0.6699120388099805 0
879 0.173325814486896 0.6698014774515921 0
880 0.1145279599118489 0.6696073470967804 0
881 0.3849697554412971 0.6693232416760042 0
882 0.4232759936243605 0.6693441511071919 0
883 0.4425761654333962 0.6887275425201346 0
884 0.4617080227254797 0.688777992863694 0
885 0.01864943566242518 0.6844603977898747 0
886 0.4892403435022704 1.139597736486924 0
887 0.4858735344653524 1.111571924101082 0
888 0.2463126500611434 0.7811484617426856 0
889 0.1924950130581944 0.6895317356873442 0
890 0.2706835489364824 0.6895022358581413 0
891 0.1972166987572984 0.7783606013315808 0
892 0.09346740402222982 0.6882724220868823 0
893 0.4618756633761543 0.7469035400762495 0
894 0.4430833428910099 0.9029684141747722 0
895 0.08582378823736159 0.7293295948614014 0
896 0.4620055212033672 0.9230732690468116 0
897 0.4616452664809927 0.8438265367441753 0
898 0.1545937820604105 0.6900532550386267 0
899 0.4043751059871515 0.6886481168755266 0
900 0.4646251599660975 0.99945034719607 0
901 0.03723965647058507 0.7217672751359469 0
902 0.1107611111658084 0.7424680483132226 0
903 0.2689223482770043 0.8232211119159414 0
904 0.4133932525827028 0.9812220237569587 0
905 0.3293648891375335 0.8747909546216018 0
906 0.2161509560827081 0.7875009217935974 0
907 0.4436593729098514 1.001048318816959 0
908 0.381217555804894 0.9132444052735004 0
909 0.360075589895169 0.9000954693860223 0
910 0.1607305272852284 0.7621990030857554 0
911 0.1424897604362026 0.7545414897828971 0
912 0.4649220932149066 1.038678447847494 0
913 0.05564232989211342 0.6863494255704778 0
914 0.300118795143948 0.8491354100887843 0
915 0.3920904690798914 0.9329189388326308 0
916 0.464922659896192 0.9800281765436174 0
917 0.4630309919635117 0.9429925548184563 0
918 0.4617788092549585 0.7081619588348244 0
919 0.1133694671731043 0.6893439449851786 0
920 0.4616123379735833 0.8634988322726999 0
921 0.461896914757753 0.785571824651162 0
922 0.4618498667820854 0.8049034299782206 0
923 0.3090932635640377 0.6889806947505277 0
924 0.2316924957659321 0.6899533872936294 0
925 0.3281868474785306 0.6888113940610138 0
926 0.3662753143922353 0.6886446983990461 0
927 0.4234629404010204 0.6886829440784802 0
928 0.03669274314447656 0.7035045256244573 0
929 0.06994244678605389 0.7193827752929198 0
930 0.3478053722782785 0.7079844683382126 0
931 0.4429024848381055 0.7853016925820471 0
932 0.3409189862464468 0.8603492744792324 0
933 0.2813979651204606 0.8065947942443152 0
934 0.4423804179255657 0.8433116196293645 0
935 0.1297432115891245 0.7305518078770445 0
936 0.3830218886336974 0.8933565147850265 0
937 0.4139010117179585 0.9333742167247865 0
938 0.404603011202904 0.7079508237099225 0
939 0.4424328861944707 0.883264354502804 0
940 0.09115378703895362 0.7074293366110174 0
941 0.442613287198594 0.9224239458718024 0
942 0.4409876655450415 0.946863348701422 0
943 0.2639042615349638 0.7938330777720216 0
944 0.2265896559505379 0.7650097365021968 0
945 0.1683425284023003 0.7444356105439666 0
946 0.1328931014271793 0.7109438608769322 0
947 0.17879197117566 0.770260308348943 0
948 0.297779089935706 0.8206035298952045 0
949 0.07428866692436305 0.6872329188438713 0
950 0.4618349640974683 0.7275390412106391 0
951 0.4618995740874109 0.766247579052147 0
952 0.4428460887675769 0.8044983752562334 0
953 0.3266946445985194 0.8479372141518356 0
954 0.2119601370190937 0.6899794738934926 0
955 0.2899383985085584 0.6892099915503036 0
956 0.2512682187864709 0.6898008411759077 0
957 0.1737691160435245 0.6892828142407187 0
958 0.3556376281913795 0.8724866134242163 0
959 0.3853148564251437 0.6886312786912036 0
960 0.3098704130006495 0.7083976153699335 0
961 0.4426872985489993 0.7080842807916768 0
962 0.4306483494448787 0.9683508057410088 0
963 0.05441578628869483 0.7045280029553432 0
964 0.4481512303990083 0.9763451093543476 0
965 0.453928980374008 1.023471007800015 0
966 0.110118640017801 0.7285155116889959 0
967 0.4239849733257627 0.7851023314699104 0
968 0.3518648439486625 0.8459577821857533 0
969 0.2958202332259335 0.7869625500891435 0
970 0.2452260045681034 0.7519295177357277 0
971 0.2716216719511859 0.7091833963512052 0
972 0.2322226952240473 0.7102675585697444 0
973 0.366714352605742 0.7079123687590501 0
974 0.1907093685145424 0.7113871027801862 0
975 0.1582901753394781 0.7135685552270212 0
976 0.4223975947670324 0.8835180645323881 0
977 0.4051348740185775 0.9082094828797334 0
978 0.4279234849389795 0.9198042135632163 0
979 0.2039393873141072 0.7600908866723048 0
980 0.1860525473814976 0.7529157139585274 0
981 0.4427723574195847 0.727434112421947 0
982 0.3126109378032053 0.8347489278855507 0
983 0.2587232893172131 0.7656761754852455 0
984 0.1494429538094962 0.7362239683823583 0
985 0.4426589568185002 0.8237813577849292 0
986 0.4428324183336088 0.7467703263409822 0
987 0.4428787952081865 0.7660688556123229 0
988 0.4421991585865656 0.8631852501193544 0
989 0.3708373744072162 0.884394608604644 0
990 0.2907847744009766 0.7087419865883577 0
991 0.3288706360699759 0.7081409130967341 0
992 0.385636432046678 0.7079091358180608 0
993 0.4236234523939376 0.7080132340407984 0
994 0.07225906101272858 0.7054984560541858 0
995 0.1115128611378846 0.7092379688662298 0
996 0.4518155238634572 0.9623305573667067 0
997 0.05257384232856616 0.7248839572477158 0
998 0.3107591458263524 0.7276911533159061 0
999 0.3483987636240328 0.7271843014782027 0
1000 0.4230854011196917 0.8424069703520654 0
1001 0.4047711281744658 0.7272375528656749 0
1002 0.256326934200606 0.7434231200856094 0
1003 0.2745026339077542 0.77718439859757 0
1004 0.338196358802183 0.8348031480655149 0
1005 0.1931206872017542 0.7369188894175378 0
1006 0.4245384412520885 0.904300175154883 0
1007 0.398435515133609 0.8835392328613221 0
1008 0.3666674685909024 0.8575329772961733 0
1009 0.2726434006398805 0.7286133457087651 0
1010 0.3123419642923204 0.805826066003023 0
1011 0.4238008301726527 0.746667931001294 0
1012 0.4240077279587436 0.8040157989037886 0
1013 0.422342006326139 0.8625385846980036 0
1014 0.423859102467278 0.7659707195321541 0
1015 0.1744565510685694 0.7039658101086431 0
1016 0.2124340572192941 0.7097772512776165 0
1017 0.2521491969593618 0.7099114803532807 0
1018 0.3671391680411866 0.72710654755496 0
1019 0.4237400851077457 0.7273376912082602 0
1020 0.1774828445551203 0.7276303547270691 0
1021 0.4050644607314061 0.7852876342826292 0
1022 0.3601899457280892 0.8298587980834201 0
1023 0.3128331492468227 0.7800929896069955 0
1024 0.3490600706300181 0.7462757923128169 0
1025 0.4048227558961497 0.7465411994693291 0
1026 0.2324595065715305 0.7335959586534422 0
1027 0.4028560601934374 0.860568926533118 0
1028 0.2722889808480917 0.7501471593015051 0
1029 0.3259475669663031 0.8214338975330239 0
1030 0.3810056403904141 0.8695471827000443 0
1031 0.423679628884982 0.8230012356646432 0
1032 0.2916884825079298 0.7282671985613938 0
1033 0.3859060128576799 0.7271418828519441 0
1034 0.3296155848804718 0.7273732957849613 0
1035 0.2088113490450599 0.7433872157034627 0
1036 0.2540431191817872 0.7293846203382001 0
1037 0.198916563154243 0.7258384468030212 0
1038 0.3302321101149611 0.7894079641445608 0
1039 0.3675403950030945 0.7461574646480815 0
1040 0.4057482855063979 0.8034742754550013 0
1041 0.4037788254412424 0.8409893815320302 0
1042 0.3117553001670961 0.7467476272260821 0
1043 0.341703515885469 0.8116601873149217 0
1044 0.2931753902382179 0.747318803693751 0
1045 0.3469594030157016 0.8251813959228296 0
1046 0.4046789551971369 0.7660347692051344 0
1047 0.3304193847045554 0.7465206519383762 0
1048 0.3860490906126914 0.7463171294296618 0
1049 0.2811980788332666 0.7650290891289349 0
1050 0.3811409293713461 0.8407997561160505 0
1051 0.2218685298241419 0.7470639816239519 0
1052 0.2119303527732825 0.7275696065801991 0
1053 0.3500638672713429 0.7652612547549013 0
1054 0.3857678593668936 0.7655293257911968 0
1055 0.3646425741767223 0.8065966126663598 0
1056 0.3864965007718514 0.8172381587443496 0
1057 0.4049488775345552 0.8216664575596787 0
1058 0.3832842090709856 0.7876720725130028 0
1059 0.3125579624030155 0.7655269260809199 0
1060 0.3679257876743303 0.7646869310442325 0
1061 0.3541506104626604 0.7841944858705999 0
1062 0.3311954817308571 0.7658953744173886 0
1063 0.3917459893374755 0.8033688578861909 0
1064 0.2947402828950239 0.7653205763634129 0
1065 0.38876522999478 0.8582103694097271 0
1066 0.36791061290929 0.7789437972555304 0
1067 1.505031907965409 0.4542585993066002 0
1068 1.896167307897862 0.4508034435864119 0
1069 1.9790594804427 0.4722567233989238 0
1070 1.420332071055639 0.4524000845300818 0
1071 1.519709464877941 0.5304903949696255 0
1072 1.480204407118351 0.5299204287571245 0
1073 1.93955867855127 0.5299634985833168 0
1074 1.899109753689983 0.528389157191923 0
1075 1.937601415960398 0.4106497693539927 0
1076 1.850742421946003 0.4830502161672051 0
1077 1.419999616044955 0.4913909806978546 0
1078 1.457051715585823 0.4075891770019371 0
1079 1.575834292522812 0.529271398974401 0
1080 1.553932746598928 0.4804309336624138 0
1081 1.837160250485554 0.5307770769473168 0
1082 1.797630071857574 0.5073665507847349 0
1083 1.422265665556931 0.392775707853715 0
1084 1.986808931954059 0.4253089595261424 0
1085 1.620887160925617 0.5080376432124448 0
1086 1.440022357220826 0.5301939992753421 0
1087 1.779137336576815 0.5300017365450279 0
1088 1.963984580693549 0.3760036241082472 0
1089 1.660239632112935 0.5317857808521402 0
1090 1.7594211869942 0.5310635694373794 0
1091 1.739352195261458 0.5143187950041052 0
1092 1.680261405856321 0.5154880809745481 0
1093 1.719699145005745 0.5155470118620433 0
1094 1.425575341836731 0.3675576441336709 0
1095 1.58494265589924 0.4960111440081199 0
1096 1.818357862672642 0.5296106918537431 0
1097 1.437324422796096 0.3790960098506889 0
1098 1.619735963404128 0.528187000651522 0
1099 1.419983724398668 0.5108503357381639 0
1100 1.979849055544379 0.5303661371887359 0
1101 1.557544874713806 0.5304974718237233 0
1102 1.874905275946547 0.5243514597869255 0
1103 1.420090182699171 0.413637100778736 0
1104 1.419998173700367 0.5303986488026196 0
1105 1.983462674627045 0.4041576426390493 0
1106 1.982916120594309 0.3850175607851218 0
1107 1.982776761404124 0.3656987903549666 0
1108 1.979707410652261 0.5107507334647754 0
1109 1.778319084809564 0.5098029600324948 0
1110 1.640788856260892 0.5117422540359217 0
1111 1.911189397231891 0.438191346542621 0
1112 1.488867362376847 0.4426296001359785 0
1113 1.86462215568813 0.4725956862113437 0
1114 1.541851364081708 0.4759466222302788 0
1115 1.98071226946037 0.3482808083799287 0
1116 1.967809823147293 0.3570694821540644 0
1117 1.840412862499697 0.4958898712803665 0
1118 1.569636226194908 0.4931958991087855 0
1119 1.41530556165283 0.3395556218015731 0
1120 1.699988142335914 0.5327579143305353 0
1121 1.739651516446407 0.5319823745969073 0
1122 1.60180831179491 0.5023399052133789 0
1123 1.985432568801062 0.3249705078626411 0
1124 1.41538242635624 0.3609030742772777 0
1125 1.493675837817613 0.4691512976185515 0
1126 1.9136992038508 0.4662301606845734 0
1127 1.882320635519567 0.5049669425137047 0
1128 1.538388558036021 0.4933549073764748 0
1129 1.857354389176592 0.5080485737342246 0
1130 1.571865086143236 0.5109366339348866 0
1131 1.968878482320739 0.4335985528487659 0
1132 1.959386638488771 0.5103306336199586 0
1133 1.798817397276535 0.5292924004237373 0
1134 1.595983641029682 0.523577433556302 0
1135 1.460106956215796 0.5299751752982125 0
1136 1.538853594916773 0.53069013304873 0
1137 1.85479560063333 0.5303772426922416 0
1138 1.919485691694305 0.5296008768651872 0
1139 1.50013385617295 0.5301446818777669 0
1140 1.959693603475191 0.5301696615563162 0
1141 1.975555423957243 0.4533965164849835 0
1142 1.420256517298946 0.432836531367502 0
1143 1.42013876465934 0.4719531587483023 0
1144 1.979560773484417 0.4912508461880402 0
1145 1.43996592116553 0.5104728933818462 0
1146 1.467172476862206 0.4296092249552462 0
1147 1.925173928489751 0.4249148723798394 0
1148 1.949589396095336 0.3951366191109929 0
1149 1.447739864498463 0.3923092741344151 0
1150 1.640246394442272 0.5304658475156314 0
1151 1.880248009044763 0.4623180809946342 0
1152 1.520856705688063 0.4699036094425106 0
1153 1.817239140300584 0.5077478866765816 0
1154 1.583651288517437 0.5095397362550466 0
1155 1.758902628907529 0.5123364279633854 0
1156 1.866847984824104 0.4957422780198869 0
1157 1.836230704106488 0.5123270233326503 0
1158 1.660540668827037 0.5141224558959365 0
1159 1.961469070200563 0.4136862745941804 0
1160 1.554520211637285 0.4937515435392129 0
1161 1.680125598350326 0.5325112141960158 0
1162 1.719834829466993 0.5325701632270776 0
1163 1.436939069773306 0.3995507174643458 0
1164 1.416487651548851 0.378345581393959 0
1165 1.69998815076784 0.5159485621417903 0
1166 1.97028537474008 0.3904897753491604 0
1167 1.440997556419557 0.452198065049402 0
1168 1.50067059141554 0.5101573842657207 0
1169 1.460142460088071 0.5097842205981769 0
1170 1.892058492047652 0.4765449686359511 0
1171 1.899654865825958 0.509018665208723 0
1172 1.939027086029721 0.5099646661530388 0
1173 1.478749445469864 0.4598007596553747 0
1174 1.441124510137135 0.4318502523121588 0
1175 1.504565312568488 0.4769285893379552 0
1176 1.960470818100432 0.4563995676735819 0
1177 1.921944314114751 0.4486123437873014 0
1178 1.959404082180019 0.4709990176600067 0
1179 1.959202389781786 0.4904994607605802 0
1180 1.439854913741543 0.4910405393724068 0
1181 1.53815159957604 0.5117220182884484 0
1182 1.43898712338395 0.4127321027854795 0
1183 1.94767242267423 0.4207386268525483 0
1184 1.877610427842885 0.4850032214093067 0
1185 1.520697816444225 0.4921110754369483 0
1186 1.849915530748918 0.5169471208423013 0
1187 1.555573017984269 0.5116939728068015 0
1188 1.898597252793841 0.4920727291191813 0
1189 1.472498525661625 0.4721391602745318 0
1190 1.939111362462985 0.4686242571545809 0
1191 1.918904742147256 0.5097609394481225 0
1192 1.480579104569764 0.5094319129331442 0
1193 1.519858242682585 0.5111678536127828 0
1194 1.440074665774929 0.4718641406059846 0
1195 1.938410175134103 0.4896180762897927 0
1196 1.46119280437572 0.4538248171184129 0
1197 1.943634513749787 0.4421627517371883 0
1198 1.459479397127127 0.4901717258122467 0
1199 1.886179774987379 0.4939324109103761 0
1200 1.502463958437841 0.4908627751273046 0
1201 1.481365084819818 0.4861522649184289 0
1202 1.458954815527461 0.4720992763849714 0
1203 1.917422879489926 0.4899596974078665 0
$EndNodes
$Elements
1433
1 1 2 201 1 1 11
2 1 2 201 1 11 12
3 1 2 201 1 12 13
4 1 2 201 1 13 14
5 1 2 201 1 14 15
6 1 2 201 1 15 16
7 1 2 201 1 16 17
8 1 2 201 1 17 18
9 1 2 201 1 18 19
10 1 2 201 1 19 20
11 1 2 201 1 20 21
12 1 2 201 1 21 22
13 1 2 201 1 22 23
14 1 2 201 1 23 24
15 1 2 201 1 24 25
16 1 2 201 1 25 26
17 1 2 201 1 26 27
18 1 2 201 1 27 28
19 1 2 201 1 28 29
20 1 2 201 1 29 30
21 1 2 201 1 30 31
22 1 2 201 1 31 32
23 1 2 201 1 32 33
24 1 2 201 1 33 34
25 1 2 201 1 34 35
26 1 2 201 1 35 36
27 1 2 201 1 36 37
28 1 2 201 1 37 38
29 1 2 201 1 38 39
30 1 2 201 1 39 40
31 1 2 201 1 40 41
32 1 2 201 1 41 42
33 1 2 201 1 42 43
34 1 2 201 1 43 44
35 1 2 201 1 44 45
36 1 2 201 1 45 46
37 1 2 201 1 46 47
38 1 2 201 1 47 48
39 1 2 201 1 48 49
40 1 2 201 1 49 50
41 1 2 201 1 50 51
42 1 2 201 1 51 52
43 1 2 201 1 52 53
44 1 2 201 1 53 54
45 1 2 201 1 54 55
46 1 2 201 1 55 56
47 1 2 201 1 56 57
48 1 2 201 1 57 58
49 1 2 201 1 58 59
50 1 2 201 1 59 60
51 1 2 201 1 60 61
52 1 2 201 1 61 62
53 1 2 201 1 62 63
54 1 2 201 1 63 64
55 1 2 201 1 64 65
56 1 2 201 1 65 66
57 1 2 201 1 66 67
58 1 2 201 1 67 68
59 1 2 201 1 68 69
60 1 2 201 1 69 70
61 1 2 201 1 70 71
62 1 2 201 1 71 72
63 1 2 201 1 72 73
64 1 2 201 1 73 74
65 1 2 201 1 74 75
66 1 2 201 1 75 76
67 1 2 201 1 76 77
68 1 2 201 1 77 78
69 1 2 201 1 78 79
70 1 2 201 1 79 5
71 1 2 202 2 5 80
72 1 2 202 2 80 81
73 1 2 202 2 81 82
74 1 2 202 2 82 83
75 1 2 202 2 83 84
76 1 2 202 2 84 85
77 1 2 202 2 85 86
78 1 2 202 2 86 87
79 1 2 202 2 87 88
80 1 2 202 2 88 89
81 1 2 202 2 89 90
82 1 2 202 2 90 91
83 1 2 202 2 91 92
84 1 2 202 2 92 93
85 1 2 202 2 93 94
86 1 2 202 2 94 95
87 1 2 202 2 95 96
88 1 2 202 2 96 97
89 1 2 202 2 97 98
90 1 2 202 2 98 99
91 1 2 202 2 99 100
92 1 2 202 2 100 101
93 1 2 202 2 101 102
94 1 2 202 2 102 103
95 1 2 202 2 103 104
96 1 2 202 2 104 105
97 1 2 202 2 105 106
98 1 2 202 2 106 107
99 1 2 202 2 107 108
100 1 2 202 2 108 2
101 1 2 204 3 2 109
102 1 2 204 3 109 110
103 1 2 204 3 110 111
104 1 2 204 3 111 112
105 1 2 204 3 112 113
106 1 2 204 3 113 3
107 1 2 205 4 3 114
108 1 2 205 4 114 115
109 1 2 205 4 115 116
110 1 2 205 4 116 117
111 1 2 205 4 117 118
112 1 2 205 4 118 119
113 1 2 205 4 119 120
114 1 2 205 4 120 121
115 1 2 205 4 121 122
116 1 2 205 4 122 123
117 1 2 205 4 123 124
118 1 2 205 4 124 125
119 1 2 205 4 125 126
120 1 2 205 4 126 127
121 1 2 205 4 127 128
122 1 2 205 4 128 129
123 1 2 205 4 129 130
124 1 2 205 4 130 131
125 1 2 205 4 131 132
126 1 2 205 4 132 133
127 1 2 205 4 133 134
128 1 2 205 4 134 135
129 1 2 205 4 135 136
130 1 2 205 4 136 137
131 1 2 205 4 137 138
132 1 2 205 4 138 139
133 1 2 205 4 139 140
134 1 2 205 4 140 141
135 1 2 205 4 141 142
136 1 2 205 4 142 143
137 1 2 205 4 143 144
138 1 2 205 4 144 145
139 1 2 205 4 145 146
140 1 2 205 4 146 147
141 1 2 205 4 147 148
142 1 2 205 4 148 149
143 1 2 205 4 149 150
144 1 2 205 4 150 151
145 1 2 205 4 151 152
146 1 2 205 4 152 153
147 1 2 205 4 153 154
148 1 2 205 4 154 155
149 1 2 205 4 155 156
150 1 2 205 4 156 157
151 1 2 205 4 157 158
152 1 2 205 4 158 159
153 1 2 205 4 159 160
154 1 2 205 4 160 161
155 1 2 205 4 161 162
156 1 2 205 4 162 163
157 1 2 205 4 163 164
158 1 2 205 4 164 165
159 1 2 205 4 165 166
160 1 2 205 4 166 167
161 1 2 205 4 167 168
162 1 2 205 4 168 169
163 1 2 205 4 169 170
164 1 2 205 4 170 171
165 1 2 205 4 171 172
166 1 2 205 4 172 173
167 1 2 205 4 173 174
168 1 2 205 4 174 175
169 1 2 205 4 175 176
170 1 2 205 4 176 177
171 1 2 205 4 177 178
172 1 2 205 4 178 179
173 1 2 205 4 179 180
174 1 2 205 4 180 181
175 1 2 205 4 181 182
176 1 2 205 4 182 183
177 1 2 205 4 183 184
178 1 2 205 4 184 185
179 1 2 205 4 185 186
180 1 2 205 4 186 187
181 1 2 205 4 187 188
182 1 2 205 4 188 6
183 1 2 206 5 6 189
184 1 2 206 5 189 190
185 1 2 206 5 190 191
186 1 2 206 5 191 192
187 1 2 206 5 192 193
188 1 2 206 5 193 194
189 1 2 206 5 194 195
190 1 2 206 5 195 196
191 1 2 206 5 196 197
192 1 2 206 5 197 198
193 1 2 206 5 198 199
194 1 2 206 5 199 200
195 1 2 206 5 200 201
196 1 2 206 5 201 202
197 1 2 206 5 202 203
198 1 2 206 5 203 204
199 1 2 206 5 204 205
200 1 2 206 5 205 206
201 1 2 206 5 206 207
202 1 2 206 5 207 208
203 1 2 206 5 208 209
204 1 2 206 5 209 210
205 1 2 206 5 210 211
206 1 2 206 5 211 212
207 1 2 206 5 212 213
208 1 2 206 5 213 4
209 1 2 207 6 4 214
210 1 2 207 6 214 215
211 1 2 207 6 215 216
212 1 2 207 6 216 217
213 1 2 207 6 217 218
214 1 2 207 6 218 1
215 1 2 209 10 7 219
216 1 2 209 10 219 220
217 1 2 209 10 220 221
218 1 2 209 10 221 222
219 1 2 209 10 222 223
220 1 2 209 10 223 224
221 1 2 209 10 224 225
222 1 2 209 10 225 226
223 1 2 209 10 226 227
224 1 2 209 10 227 228
225 1 2 209 10 228 229
226 1 2 209 10 229 230
227 1 2 209 10 230 231
228 1 2 209 10 231 232
229 1 2 209 10 232 233
230 1 2 209 10 233 234
231 1 2 209 10 234 235
232 1 2 209 10 235 236
233 1 2 209 10 236 237
234 1 2 209 10 237 238
235 1 2 209 10 238 239
236 1 2 209 10 239 240
237 1 2 209 10 240 241
238 1 2 209 10 241 242
239 1 2 209 10 242 243
240 1 2 209 10 243 244
241 1 2 209 10 244 245
242 1 2 209 10 245 246
243 1 2 209 10 246 247
244 1 2 209 10 247 248
245 1 2 209 10 248 249
246 1 2 209 10 249 250
247 1 2 209 10 250 251
248 1 2 209 10 251 252
249 1 2 209 10 252 253
250 1 2 209 10 253 254
251 1 2 209 10 254 255
252 1 2 209 10 255 256
253 1 2 209 10 256 257
254 1 2 209 10 257 258
255 1 2 209 10 258 259
256 1 2 209 10 259 260
257 1 2 209 10 260 261
258 1 2 209 10 261 262
259 1 2 209 10 262 263
260 1 2 209 10 263 264
261 1 2 209 10 264 265
262 1 2 209 10 265 8
263 1 2 208 11 9 266
264 1 2 208 11 266 267
265 1 2 208 11 267 268
266 1 2 208 11 268 269
267 1 2 208 11 269 270
268 1 2 208 11 270 271
269 1 2 208 11 271 272
270 1 2 208 11 272 273
271 1 2 208 11 273 274
272 1 2 208 11 274 275
273 1 2 208 11 275 276
274 1 2 208 11 276 277
275 1 2 208 11 277 278
276 1 2 208 11 278 279
277 1 2 208 11 279 280
278 1 2 208 11 280 281
279 1 2 208 11 281 282
280 1 2 208 11 282 283
281 1 2 208 11 283 284
282 1 2 208 11 284 285
283 1 2 208 11 285 286
284 1 2 208 11 286 287
285 1 2 208 11 287 288
286 1 2 208 11 288 289
287 1 2 208 11 289 290
288 1 2 208 11 290 291
289 1 2 208 11 291 292
290 1 2 208 11 292 293
291 1 2 208 11 293 294
292 1 2 208 11 294 295
293 1 2 208 11 295 296
294 1 2 208 11 296 297
295 1 2 208 11 297 298
296 1 2 208 11 298 299
297 1 2 208 11 299 300
298 1 2 208 11 300 301
299 1 2 208 11 301 302
300 1 2 208 11 302 303
301 1 2 208 11 303 304
302 1 2 208 11 304 305
303 1 2 208 11 305 306
304 1 2 208 11 306 307
305 1 2 208 11 307 308
306 1 2 208 11 308 10
307 1 2 212 12 4 309
308 1 2 212 12 309 310
309 1 2 212 12 310 311
310 1 2 212 12 311 312
311 1 2 212 12 312 313
312 1 2 212 12 313 9
313 1 2 213 13 10 314
314 1 2 213 13 314 315
315 1 2 213 13 315 316
316 1 2 213 13 316 317
317 1 2 213 13 317 318
318 1 2 213 13 318 319
319 1 2 213 13 319 320
320 1 2 213 13 320 321
321 1 2 213 13 321 322
322 1 2 213 13 322 323
323 1 2 213 13 323 324
324 1 2 213 13 324 325
325 1 2 213 13 325 326
326 1 2 213 13 326 327
327 1 2 213 13 327 328
328 1 2 213 13 328 329
329 1 2 213 13 329 330
330 1 2 213 13 330 331
331 1 2 213 13 331 332
332 1 2 213 13 332 333
333 1 2 213 13 333 334
334 1 2 213 13 334 335
335 1 2 213 13 335 336
336 1 2 213 13 336 337
337 1 2 213 13 337 338
338 1 2 213 13 338 339
339 1 2 213 13 339 340
340 1 2 213 13 340 341
341 1 2 213 13 341 342
342 1 2 213 13 342 343
343 1 2 213 13 343 344
344 1 2 213 13 344 345
345 1 2 213 13 345 346
346 1 2 213 13 346 347
347 1 2 213 13 347 348
348 1 2 213 13 348 6
349 1 2 214 14 8 349
350 1 2 214 14 349 350
351 1 2 214 14 350 351
352 1 2 214 14 351 352
353 1 2 214 14 352 353
354 1 2 214 14 353 354
355 1 2 214 14 354 355
356 1 2 214 14 355 356
357 1 2 214 14 356 357
358 1 2 214 14 357 358
359 1 2 214 14 358 359
360 1 2 214 14 359 360
361 1 2 214 14 360 361
362 1 2 214 14 361 362
363 1 2 214 14 362 363
364 1 2 214 14 363 364
365 1 2 214 14 364 365
366 1 2 214 14 365 5
367 1 2 215 15 2 366
368 1 2 215 15 366 367
369 1 2 215 15 367 368
370 1 2 215 15 368 369
371 1 2 215 15 369 370
372 1 2 215 15 370 371
373 1 2 215 15 371 372
374 1 2 215 15 372 373
375 1 2 215 15 373 374
376 1 2 215 15 374 375
377 1 2 215 15 375 376
378 1 2 215 15 376 377
379 1 2 215 15 377 378
380 1 2 215 15 378 379
381 1 2 215 15 379 380
382 1 2 215 15 380 381
383 1 2 215 15 381 382
384 1 2 215 15 382 7
385 2 2 101 2 324 325 886
386 2 2 101 2 886 323 324
387 2 2 101 2 327 328 820
388 2 2 101 2 820 326 327
389 2 2 101 2 808 295 296
390 2 2 101 2 296 297 808
391 2 2 101 2 839 298 299
392 2 2 101 2 299 300 839
393 2 2 101 2 314 307 308
394 2 2 101 2 308 10 314
395 2 2 101 2 307 314 315
396 2 2 101 2 315 306 307
397 2 2 102 3 259 260 1119
398 2 2 102 3 1119 258 259
399 2 2 102 3 1084 370 371
400 2 2 102 3 371 372 1084
401 2 2 102 3 1119 354 355
402 2 2 102 3 355 356 1119
403 2 2 102 3 219 381 382
404 2 2 102 3 382 7 219
405 2 2 102 3 349 350 265
406 2 2 102 3 265 8 349
407 3 2 100 1 637 544 537 428
408 3 2 100 1 544 747 673 537
409 3 2 100 1 545 543 639 659
410 3 2 100 1 660 659 639 748
411 3 2 100 1 666 513 660 748
412 3 2 100 1 639 559 420 748
413 3 2 100 1 660 390 636 659
414 3 2 100 1 721 661 624 753
415 3 2 100 1 515 657 750 665
416 3 2 100 1 655 514 757 668
417 3 2 100 1 782 663 752 641
418 3 2 100 1 658 664 640 676
419 3 2 100 1 665 546 745 515
420 3 2 100 1 679 519 783 670
421 3 2 100 1 455 543 456 512
422 3 2 100 1 670 779 518 679
423 3 2 100 1 779 669 561 518
424 3 2 100 1 784 655 668 722
425 3 2 100 1 516 654 749 667
426 3 2 100 1 669 784 722 561
427 3 2 100 1 664 745 546 640
428 3 2 100 1 671 783 519 672
429 3 2 100 1 674 547 677 517
430 3 2 100 1 517 744 751 674
431 3 2 100 1 521 756 703 644
432 3 2 100 1 457 638 459 510
433 3 2 100 1 706 646 534 754
434 3 2 100 1 667 752 663 516
435 3 2 100 1 677 547 723 781
436 3 2 100 1 108 2 109 511
437 3 2 100 1 781 723 536 680
438 3 2 100 1 11 512 218 1
439 3 2 100 1 114 510 113 3
440 3 2 100 1 213 4 214 509
441 3 2 100 1 756 521 732 689
442 3 2 100 1 593 681 785 441
443 3 2 100 1 585 682 558 451
444 3 2 100 1 673 694 549 537
445 3 2 100 1 737 522 758 686
446 3 2 100 1 764 643 778 697
447 3 2 100 1 662 688 548 520
448 3 2 100 1 528 687 760 649
449 3 2 100 1 771 724 542 711
450 3 2 100 1 775 725 540 712
451 3 2 100 1 734 690 729 525
452 3 2 100 1 716 691 730 531
453 3 2 100 1 736 692 728 529
454 3 2 100 1 769 652 727 684
455 3 2 100 1 552 472 448 685
456 3 2 100 1 651 683 776 726
457 3 2 100 1 733 707 762 523
458 3 2 100 1 590 704 763 648
459 3 2 100 1 774 761 705 645
460 3 2 100 1 773 766 702 642
461 3 2 100 1 743 731 538 710
462 3 2 100 1 525 729 551 713
463 3 2 100 1 527 699 555 717
464 3 2 100 1 530 700 553 714
465 3 2 100 1 529 728 554 715
466 3 2 100 1 735 708 700 530
467 3 2 100 1 650 709 701 535
468 3 2 100 1 768 678 539 696
469 3 2 100 1 694 737 686 549
470 3 2 100 1 687 528 742 556
471 3 2 100 1 719 718 738 557
472 3 2 100 1 691 716 777 541
473 3 2 100 1 643 764 678 768
474 3 2 100 1 780 720 758 675
475 3 2 100 1 647 693 550 739
476 3 2 100 1 683 651 552 740
477 3 2 100 1 710 538 724 771
478 3 2 100 1 696 539 725 775
479 3 2 100 1 718 719 785 656
480 3 2 100 1 713 551 689 732
481 3 2 100 1 714 553 690 734
482 3 2 100 1 717 555 692 736
483 3 2 100 1 715 554 652 769
484 3 2 100 1 719 584 441 785
485 3 2 100 1 740 552 685 532
486 3 2 100 1 741 558 682 533
487 3 2 100 1 739 550 698 524
488 3 2 100 1 680 536 697 778
489 3 2 100 1 645 705 765 770
490 3 2 100 1 695 653 759 772
491 3 2 100 1 646 706 761 774
492 3 2 100 1 642 702 755 767
493 3 2 100 1 644 703 766 773
494 3 2 100 1 520 548 731 743
495 3 2 100 1 531 730 556 742
496 3 2 100 1 535 701 557 738
497 3 2 100 1 661 721 558 741
498 3 2 100 1 712 540 726 776
499 3 2 100 1 684 727 541 777
500 3 2 100 1 711 542 720 780
501 3 2 100 1 750 426 567 665
502 3 2 100 1 749 460 563 667
503 3 2 100 1 749 666 562 460
504 3 2 100 1 752 427 568 641
505 3 2 100 1 722 668 565 464
506 3 2 100 1 751 569 466 674
507 3 2 100 1 679 518 421 566
508 3 2 100 1 752 667 563 427
509 3 2 100 1 750 641 568 426
510 3 2 100 1 757 676 564 422
511 3 2 100 1 559 639 543 455
512 3 2 100 1 512 11 12 455
513 3 2 100 1 723 547 425 570
514 3 2 100 1 561 463 421 518
515 3 2 100 1 676 640 423 564
516 3 2 100 1 759 431 575 688
517 3 2 100 1 755 430 581 693
518 3 2 100 1 760 687 572 440
519 3 2 100 1 756 689 592 436
520 3 2 100 1 751 672 424 569
521 3 2 100 1 510 114 115 457
522 3 2 100 1 678 764 596 485
523 3 2 100 1 466 425 547 674
524 3 2 100 1 758 571 476 686
525 3 2 100 1 455 12 13 559
526 3 2 100 1 6 467 625 188
527 3 2 100 1 748 420 562 666
528 3 2 100 1 757 422 565 668
529 3 2 100 1 763 474 578 707
530 3 2 100 1 761 480 586 705
531 3 2 100 1 698 438 589 704
532 3 2 100 1 762 439 594 653
533 3 2 100 1 700 708 580 475
534 3 2 100 1 701 709 582 481
535 3 2 100 1 755 702 595 430
536 3 2 100 1 691 573 483 730
537 3 2 100 1 652 576 479 727
538 3 2 100 1 690 577 477 729
539 3 2 100 1 753 579 482 721
540 3 2 100 1 692 587 473 728
541 3 2 100 1 681 593 468 699
542 3 2 100 1 463 561 722 464
543 3 2 100 1 461 423 640 546
544 3 2 100 1 549 469 428 537
545 3 2 100 1 567 461 546 665
546 3 2 100 1 566 462 519 679
547 3 2 100 1 462 424 672 519
548 3 2 100 1 724 538 429 574
549 3 2 100 1 725 539 434 597
550 3 2 100 1 762 707 578 439
551 3 2 100 1 765 705 586 449
552 3 2 100 1 763 704 589 474
553 3 2 100 1 759 653 594 431
554 3 2 100 1 682 585 450 754
555 3 2 100 1 694 673 457 560
556 3 2 100 1 457 115 116 560
557 3 2 100 1 698 550 484 438
558 3 2 100 1 758 720 452 571
559 3 2 100 1 651 726 435 591
560 3 2 100 1 570 465 536 723
561 3 2 100 1 429 538 731 471
562 3 2 100 1 476 469 549 686
563 3 2 100 1 559 13 14 420
564 3 2 100 1 420 14 15 562
565 3 2 100 1 562 15 16 460
566 3 2 100 1 462 31 32 424
567 3 2 100 1 463 464 27 28
568 3 2 100 1 565 26 27 464
569 3 2 100 1 564 24 25 422
570 3 2 100 1 421 463 28 29
571 3 2 100 1 423 461 22 23
572 3 2 100 1 566 30 31 462
573 3 2 100 1 567 21 22 461
574 3 2 100 1 563 17 18 427
575 3 2 100 1 568 19 20 426
576 3 2 100 1 460 16 17 563
577 3 2 100 1 423 23 24 564
578 3 2 100 1 422 25 26 565
579 3 2 100 1 421 29 30 566
580 3 2 100 1 427 18 19 568
581 3 2 100 1 426 20 21 567
582 3 2 100 1 630 506 663 782
583 3 2 100 1 632 383 669 779
584 3 2 100 1 627 507 746 654
585 3 2 100 1 631 745 664 385
586 3 2 100 1 633 508 655 784
587 3 2 100 1 424 32 33 569
588 3 2 100 1 569 33 34 466
589 3 2 100 1 760 440 580 708
590 3 2 100 1 765 449 582 709
591 3 2 100 1 754 450 588 706
592 3 2 100 1 766 432 595 702
593 3 2 100 1 685 448 579 753
594 3 2 100 1 466 34 35 425
595 3 2 100 1 708 735 649 760
596 3 2 100 1 480 761 706 588
597 3 2 100 1 478 471 731 548
598 3 2 100 1 470 452 720 542
599 3 2 100 1 451 558 721 482
600 3 2 100 1 447 557 701 481
601 3 2 100 1 446 556 730 483
602 3 2 100 1 445 555 699 468
603 3 2 100 1 443 553 700 475
604 3 2 100 1 444 541 727 479
605 3 2 100 1 442 554 728 473
606 3 2 100 1 437 551 729 477
607 3 2 100 1 434 539 678 485
608 3 2 100 1 486 435 726 540
609 3 2 100 1 584 719 557 447
610 3 2 100 1 577 690 553 443
611 3 2 100 1 592 689 551 437
612 3 2 100 1 572 687 556 446
613 3 2 100 1 587 692 555 445
614 3 2 100 1 576 652 554 442
615 3 2 100 1 573 691 541 444
616 3 2 100 1 574 470 542 724
617 3 2 100 1 591 472 552 651
618 3 2 100 1 581 484 550 693
619 3 2 100 1 575 478 548 688
620 3 2 100 1 597 486 540 725
621 3 2 100 1 583 432 766 703
622 3 2 100 1 436 583 703 756
623 3 2 100 1 425 35 36 570
624 3 2 100 1 560 393 737 694
625 3 2 100 1 465 433 697 536
626 3 2 100 1 570 36 37 465
627 3 2 100 1 433 465 37 38
628 3 2 100 1 603 398 680 778
629 3 2 100 1 390 660 513 626
630 3 2 100 1 593 62 63 468
631 3 2 100 1 476 104 105 469
632 3 2 100 1 591 45 46 472
633 3 2 100 1 587 65 66 473
634 3 2 100 1 577 79 5 477
635 3 2 100 1 580 76 77 475
636 3 2 100 1 478 97 98 471
637 3 2 100 1 592 81 82 436
638 3 2 100 1 574 100 101 470
639 3 2 100 1 571 103 104 476
640 3 2 100 1 637 428 106 107
641 3 2 100 1 576 68 69 479
642 3 2 100 1 471 98 99 429
643 3 2 100 1 589 90 91 474
644 3 2 100 1 575 96 97 478
645 3 2 100 1 582 57 58 481
646 3 2 100 1 469 105 106 428
647 3 2 100 1 578 92 93 439
648 3 2 100 1 573 71 72 483
649 3 2 100 1 438 484 88 89
650 3 2 100 1 579 48 49 482
651 3 2 100 1 583 83 84 432
652 3 2 100 1 588 53 54 480
653 3 2 100 1 470 101 102 452
654 3 2 100 1 482 49 50 451
655 3 2 100 1 481 58 59 447
656 3 2 100 1 472 46 47 448
657 3 2 100 1 586 55 56 449
658 3 2 100 1 483 72 73 446
659 3 2 100 1 585 51 52 450
660 3 2 100 1 468 63 64 445
661 3 2 100 1 572 74 75 440
662 3 2 100 1 584 60 61 441
663 3 2 100 1 475 77 78 443
664 3 2 100 1 473 66 67 442
665 3 2 100 1 479 69 70 444
666 3 2 100 1 581 87 88 484
667 3 2 100 1 594 94 95 431
668 3 2 100 1 477 5 80 437
669 3 2 100 1 596 39 40 485
670 3 2 100 1 434 485 40 41
671 3 2 100 1 435 486 43 44
672 3 2 100 1 597 42 43 486
673 3 2 100 1 595 85 86 430
674 3 2 100 1 446 73 74 572
675 3 2 100 1 444 70 71 573
676 3 2 100 1 443 78 79 577
677 3 2 100 1 442 67 68 576
678 3 2 100 1 452 102 103 571
679 3 2 100 1 430 86 87 581
680 3 2 100 1 447 59 60 584
681 3 2 100 1 440 75 76 580
682 3 2 100 1 448 47 48 579
683 3 2 100 1 451 50 51 585
684 3 2 100 1 449 56 57 582
685 3 2 100 1 445 64 65 587
686 3 2 100 1 431 95 96 575
687 3 2 100 1 437 80 81 592
688 3 2 100 1 480 54 55 586
689 3 2 100 1 474 91 92 578
690 3 2 100 1 438 89 90 589
691 3 2 100 1 450 52 53 588
692 3 2 100 1 432 84 85 595
693 3 2 100 1 441 61 62 593
694 3 2 100 1 429 99 100 574
695 3 2 100 1 435 44 45 591
696 3 2 100 1 436 82 83 583
697 3 2 100 1 439 93 94 594
698 3 2 100 1 433 38 39 596
699 3 2 100 1 434 41 42 597
700 3 2 100 1 598 491 695 772
701 3 2 100 1 599 394 710 771
702 3 2 100 1 622 415 645 770
703 3 2 100 1 617 497 715 769
704 3 2 100 1 605 399 643 768
705 3 2 100 1 601 397 642 767
706 3 2 100 1 616 495 649 735
707 3 2 100 1 613 496 717 736
708 3 2 100 1 614 498 714 734
709 3 2 100 1 609 492 648 733
710 3 2 100 1 610 489 713 732
711 3 2 100 1 615 742 528 412
712 3 2 100 1 618 738 718 409
713 3 2 100 1 621 502 646 774
714 3 2 100 1 602 488 644 773
715 3 2 100 1 620 500 661 741
716 3 2 100 1 747 638 457 673
717 3 2 100 1 596 764 697 433
718 3 2 100 1 398 625 781 680
719 3 2 100 1 393 600 522 737
720 3 2 100 1 418 608 780 675
721 3 2 100 1 395 598 772 662
722 3 2 100 1 704 590 524 698
723 3 2 100 1 709 650 770 765
724 3 2 100 1 688 662 772 759
725 3 2 100 1 598 395 127 128
726 3 2 100 1 599 396 122 123
727 3 2 100 1 608 121 122 396
728 3 2 100 1 600 118 119 487
729 3 2 100 1 600 393 117 118
730 3 2 100 1 608 418 120 121
731 3 2 100 1 601 137 138 397
732 3 2 100 1 602 397 138 139
733 3 2 100 1 606 135 136 406
734 3 2 100 1 601 406 136 137
735 3 2 100 1 603 399 185 186
736 3 2 100 1 625 398 187 188
737 3 2 100 1 607 180 181 401
738 3 2 100 1 604 401 181 182
739 3 2 100 1 604 182 183 400
740 3 2 100 1 605 400 183 184
741 3 2 100 1 605 184 185 399
742 3 2 100 1 603 186 187 398
743 3 2 100 1 602 139 140 488
744 3 2 100 1 611 178 179 403
745 3 2 100 1 607 403 179 180
746 3 2 100 1 598 128 129 491
747 3 2 100 1 606 407 134 135
748 3 2 100 1 610 402 141 142
749 3 2 100 1 609 405 130 131
750 3 2 100 1 609 131 132 492
751 3 2 100 1 610 142 143 489
752 3 2 100 1 612 163 164 409
753 3 2 100 1 615 412 150 151
754 3 2 100 1 614 404 144 145
755 3 2 100 1 612 413 162 163
756 3 2 100 1 613 159 160 496
757 3 2 100 1 618 409 164 165
758 3 2 100 1 616 148 149 495
759 3 2 100 1 614 145 146 498
760 3 2 100 1 613 410 158 159
761 3 2 100 1 617 156 157 497
762 3 2 100 1 615 151 152 493
763 3 2 100 1 611 414 177 178
764 3 2 100 1 616 408 147 148
765 3 2 100 1 617 411 155 156
766 3 2 100 1 619 154 155 411
767 3 2 100 1 620 174 175 500
768 3 2 100 1 619 416 153 154
769 3 2 100 1 620 417 173 174
770 3 2 100 1 622 168 169 415
771 3 2 100 1 621 415 169 170
772 3 2 100 1 621 170 171 502
773 3 2 100 1 618 165 166 503
774 3 2 100 1 622 419 167 168
775 3 2 100 1 599 123 124 394
776 3 2 100 1 623 394 124 125
777 3 2 100 1 623 125 126 504
778 3 2 100 1 560 116 117 393
779 3 2 100 1 767 647 406 601
780 3 2 100 1 775 604 400 696
781 3 2 100 1 768 696 400 605
782 3 2 100 1 775 712 401 604
783 3 2 100 1 739 606 406 647
784 3 2 100 1 776 607 401 712
785 3 2 100 1 776 683 403 607
786 3 2 100 1 769 684 411 617
787 3 2 100 1 777 716 416 619
788 3 2 100 1 777 619 411 684
789 3 2 100 1 656 612 409 718
790 3 2 100 1 740 611 403 683
791 3 2 100 1 770 650 419 622
792 3 2 100 1 771 711 396 599
793 3 2 100 1 780 608 396 711
794 3 2 100 1 662 520 504 395
795 3 2 100 1 661 500 499 624
796 3 2 100 1 418 522 600 487
797 3 2 100 1 743 623 504 520
798 3 2 100 1 739 524 407 606
799 3 2 100 1 732 521 402 610
800 3 2 100 1 740 532 414 611
801 3 2 100 1 738 618 503 535
802 3 2 100 1 733 523 405 609
803 3 2 100 1 742 615 493 531
804 3 2 100 1 736 529 410 613
805 3 2 100 1 735 530 408 616
806 3 2 100 1 734 525 404 614
807 3 2 100 1 656 526 413 612
808 3 2 100 1 741 533 417 620
809 3 2 100 1 778 643 399 603
810 3 2 100 1 773 642 397 602
811 3 2 100 1 774 645 415 621
812 3 2 100 1 743 710 394 623
813 3 2 100 1 699 527 526 681
814 3 2 100 1 753 624 532 685
815 3 2 100 1 754 534 533 682
816 3 2 100 1 785 681 526 656
817 3 2 100 1 693 647 767 755
818 3 2 100 1 659 636 509 545
819 3 2 100 1 418 675 758 522
820 3 2 100 1 388 630 782 657
821 3 2 100 1 666 746 507 513
822 3 2 100 1 389 629 744 517
823 3 2 100 1 416 716 531 493
824 3 2 100 1 419 650 535 503
825 3 2 100 1 120 418 487 119
826 3 2 100 1 127 395 504 126
827 3 2 100 1 140 141 402 488
828 3 2 100 1 129 130 405 491
829 3 2 100 1 133 134 407 490
830 3 2 100 1 132 133 490 492
831 3 2 100 1 143 144 404 489
832 3 2 100 1 160 161 494 496
833 3 2 100 1 161 162 413 494
834 3 2 100 1 150 412 495 149
835 3 2 100 1 158 410 497 157
836 3 2 100 1 147 408 498 146
837 3 2 100 1 152 153 416 493
838 3 2 100 1 177 414 499 176
839 3 2 100 1 176 499 500 175
840 3 2 100 1 172 173 417 501
841 3 2 100 1 172 501 502 171
842 3 2 100 1 166 167 419 503
843 3 2 100 1 389 517 677 467
844 3 2 100 1 488 402 521 644
845 3 2 100 1 489 404 525 713
846 3 2 100 1 491 405 523 695
847 3 2 100 1 492 490 590 648
848 3 2 100 1 498 408 530 714
849 3 2 100 1 497 410 529 715
850 3 2 100 1 496 494 527 717
851 3 2 100 1 495 412 528 649
852 3 2 100 1 502 501 534 646
853 3 2 100 1 490 407 524 590
854 3 2 100 1 494 413 526 527
855 3 2 100 1 499 414 532 624
856 3 2 100 1 501 417 533 534
857 3 2 100 1 626 210 211 390
858 3 2 100 1 636 390 211 212
859 3 2 100 1 626 392 209 210
860 3 2 100 1 627 207 208 507
861 3 2 100 1 629 190 191 387
862 3 2 100 1 628 387 191 192
863 3 2 100 1 631 201 202 505
864 3 2 100 1 630 388 203 204
865 3 2 100 1 467 6 189 389
866 3 2 100 1 629 389 189 190
867 3 2 100 1 630 204 205 506
868 3 2 100 1 627 391 206 207
869 3 2 100 1 631 385 200 201
870 3 2 100 1 634 386 198 199
871 3 2 100 1 632 194 195 383
872 3 2 100 1 632 384 193 194
873 3 2 100 1 633 383 195 196
874 3 2 100 1 628 192 193 384
875 3 2 100 1 633 196 197 508
876 3 2 100 1 634 199 200 385
877 3 2 100 1 658 634 385 664
878 3 2 100 1 779 670 384 632
879 3 2 100 1 783 628 384 670
880 3 2 100 1 783 671 387 628
881 3 2 100 1 744 629 387 671
882 3 2 100 1 626 513 507 392
883 3 2 100 1 657 515 505 388
884 3 2 100 1 655 508 386 514
885 3 2 100 1 654 516 391 627
886 3 2 100 1 745 631 505 515
887 3 2 100 1 658 514 386 634
888 3 2 100 1 784 669 383 633
889 3 2 100 1 781 625 467 677
890 3 2 100 1 672 751 744 671
891 3 2 100 1 209 392 507 208
892 3 2 100 1 203 388 505 202
893 3 2 100 1 206 391 506 205
894 3 2 100 1 197 198 386 508
895 3 2 100 1 506 391 516 663
896 3 2 100 1 641 750 657 782
897 3 2 100 1 676 757 514 658
898 3 2 100 1 653 695 523 762
899 3 2 100 1 707 733 648 763
900 3 2 100 1 666 749 654 746
901 3 2 100 1 509 214 215 454
902 3 2 100 1 635 454 215 216
903 3 2 100 1 212 213 509 636
904 3 2 100 1 459 638 747 458
905 3 2 100 1 511 109 110 453
906 3 2 100 1 747 544 453 458
907 3 2 100 1 510 459 112 113
908 3 2 100 1 635 216 217 456
909 3 2 100 1 512 456 217 218
910 3 2 100 1 635 545 509 454
911 3 2 100 1 107 108 511 637
912 3 2 100 1 110 111 458 453
913 3 2 100 1 637 511 453 544
914 3 2 100 1 111 112 459 458
915 3 2 100 1 456 543 545 635
916 3 2 101 2 1003 943 933 969
917 3 2 101 2 974 1020 1005 1037
918 3 2 101 2 886 325 887 812
919 3 2 101 2 935 946 995 966
920 3 2 101 2 847 962 942 937
921 3 2 101 2 964 907 900 916
922 3 2 101 2 839 300 321 322
923 3 2 101 2 966 895 832 902
924 3 2 101 2 943 843 903 933
925 3 2 101 2 885 806 928 853
926 3 2 101 2 813 885 853 811
927 3 2 101 2 994 940 892 949
928 3 2 101 2 1044 1064 1059 1042
929 3 2 101 2 912 866 821 854
930 3 2 101 2 328 854 821 820
931 3 2 101 2 1022 1055 1043 1045
932 3 2 101 2 965 809 866 912
933 3 2 101 2 906 891 858 791
934 3 2 101 2 1022 968 1008 1050
935 3 2 101 2 300 301 320 321
936 3 2 101 2 968 1022 1045 1004
937 3 2 101 2 969 1064 1049 1003
938 3 2 101 2 895 929 997 801
939 3 2 101 2 1023 969 1010 1038
940 3 2 101 2 984 975 946 935
941 3 2 101 2 1028 1044 1032 1009
942 3 2 101 2 1025 1048 1054 1046
943 3 2 101 2 968 1004 953 932
944 3 2 101 2 903 843 834 863
945 3 2 101 2 905 840 835 864
946 3 2 101 2 1045 1043 1029 1004
947 3 2 101 2 865 847 817 796
948 3 2 101 2 820 808 812 887
949 3 2 101 2 895 940 994 929
950 3 2 101 2 1061 1066 1060 1053
951 3 2 101 2 1026 972 1016 1052
952 3 2 101 2 1055 1022 1050 1056
953 3 2 101 2 1052 1035 1051 1026
954 3 2 101 2 852 901 860 807
955 3 2 101 2 807 266 267 852
956 3 2 101 2 1028 1009 1036 1002
957 3 2 101 2 855 815 834 843
958 3 2 101 2 852 267 268 801
959 3 2 101 2 795 814 271 272
960 3 2 101 2 791 276 277 815
961 3 2 101 2 816 787 280 281
962 3 2 101 2 817 287 288 796
963 3 2 101 2 980 947 891 979
964 3 2 101 2 857 292 293 809
965 3 2 101 2 1029 982 953 1004
966 3 2 101 2 1008 958 989 1030
967 3 2 101 2 1026 1051 944 970
968 3 2 101 2 820 821 295 808
969 3 2 101 2 1028 1002 970 983
970 3 2 101 2 976 1007 977 1006
971 3 2 101 2 847 865 837 904
972 3 2 101 2 928 963 913 853
973 3 2 101 2 908 909 790 859
974 3 2 101 2 966 902 846 935
975 3 2 101 2 910 911 795 862
976 3 2 101 2 962 850 907 964
977 3 2 101 2 820 887 325 326
978 3 2 101 2 811 853 913 818
979 3 2 101 2 932 958 1008 968
980 3 2 101 2 835 840 914 816
981 3 2 101 2 982 914 840 953
982 3 2 101 2 1063 1056 1057 1040
983 3 2 101 2 859 817 915 908
984 3 2 101 2 937 977 908 915
985 3 2 101 2 910 945 984 911
986 3 2 101 2 919 995 946 849
987 3 2 101 2 932 905 844 958
988 3 2 101 2 895 966 995 940
989 3 2 101 2 818 913 949 867
990 3 2 101 2 1025 1046 1014 1011
991 3 2 101 2 1007 1027 1065 1030
992 3 2 101 2 813 811 212 213
993 3 2 101 2 1019 1011 986 981
994 3 2 101 2 867 210 211 818
995 3 2 101 2 811 818 211 212
996 3 2 101 2 941 942 917 896
997 3 2 101 2 961 981 950 918
998 3 2 101 2 1007 976 1013 1027
999 3 2 101 2 810 838 819 884
1000 3 2 101 2 1039 1048 1033 1018
1001 3 2 101 2 884 918 868 810
1002 3 2 101 2 1000 1013 988 934
1003 3 2 101 2 1010 948 982 1029
1004 3 2 101 2 1018 1033 992 973
1005 3 2 101 2 949 892 797 867
1006 3 2 101 2 938 993 927 899
1007 3 2 101 2 1058 1066 1061 1055
1008 3 2 101 2 986 1011 1014 987
1009 3 2 101 2 928 901 997 963
1010 3 2 101 2 905 932 953 840
1011 3 2 101 2 348 6 189 838
1012 3 2 101 2 854 804 822 912
1013 3 2 101 2 987 951 893 986
1014 3 2 101 2 973 992 959 926
1015 3 2 101 2 897 934 988 920
1016 3 2 101 2 981 961 993 1019
1017 3 2 101 2 916 900 823 869
1018 3 2 101 2 949 913 963 994
1019 3 2 101 2 1057 1031 1012 1040
1020 3 2 101 2 823 900 851 822
1021 3 2 101 2 1012 952 931 967
1022 3 2 101 2 918 884 883 961
1023 3 2 101 2 886 839 322 323
1024 3 2 101 2 950 803 868 918
1025 3 2 101 2 896 917 824 872
1026 3 2 101 2 965 912 822 851
1027 3 2 101 2 824 917 848 800
1028 3 2 101 2 882 799 899 927
1029 3 2 101 2 1042 1047 1034 998
1030 3 2 101 2 986 893 950 981
1031 3 2 101 2 871 845 794 825
1032 3 2 101 2 907 965 851 900
1033 3 2 101 2 819 805 883 884
1034 3 2 101 2 921 922 827 873
1035 3 2 101 2 803 950 893 870
1036 3 2 101 2 951 793 870 893
1037 3 2 101 2 897 920 826 874
1038 3 2 101 2 1024 1039 1018 999
1039 3 2 101 2 921 931 952 922
1040 3 2 101 2 826 920 871 825
1041 3 2 101 2 869 800 848 916
1042 3 2 101 2 827 922 842 788
1043 3 2 101 2 952 1012 1031 985
1044 3 2 101 2 896 845 894 941
1045 3 2 101 2 985 842 922 952
1046 3 2 101 2 951 987 931 921
1047 3 2 101 2 999 1018 973 930
1048 3 2 101 2 987 1014 967 931
1049 3 2 101 2 868 346 347 810
1050 3 2 101 2 838 810 347 348
1051 3 2 101 2 873 793 951 921
1052 3 2 101 2 1014 1046 1021 967
1053 3 2 101 2 848 917 942 996
1054 3 2 101 2 845 871 939 894
1055 3 2 101 2 934 897 842 985
1056 3 2 101 2 1062 1053 1024 1047
1057 3 2 101 2 1058 1021 1046 1054
1058 3 2 101 2 1056 1050 1041 1057
1059 3 2 101 2 872 794 845 896
1060 3 2 101 2 803 345 346 868
1061 3 2 101 2 1040 1021 1058 1063
1062 3 2 101 2 822 804 329 330
1063 3 2 101 2 854 328 329 804
1064 3 2 101 2 934 985 1031 1000
1065 3 2 101 2 823 822 330 331
1066 3 2 101 2 1011 1019 1001 1025
1067 3 2 101 2 908 936 989 909
1068 3 2 101 2 870 344 345 803
1069 3 2 101 2 1013 1000 1041 1027
1070 3 2 101 2 874 788 842 897
1071 3 2 101 2 967 1021 1040 1012
1072 3 2 101 2 823 331 332 869
1073 3 2 101 2 793 343 344 870
1074 3 2 101 2 869 332 333 800
1075 3 2 101 2 999 1034 1047 1024
1076 3 2 101 2 800 333 334 824
1077 3 2 101 2 873 342 343 793
1078 3 2 101 2 988 1013 976 939
1079 3 2 101 2 990 971 1009 1032
1080 3 2 101 2 824 334 335 872
1081 3 2 101 2 827 341 342 873
1082 3 2 101 2 872 335 336 794
1083 3 2 101 2 794 336 337 825
1084 3 2 101 2 930 973 926 841
1085 3 2 101 2 825 337 338 826
1086 3 2 101 2 925 923 960 991
1087 3 2 101 2 826 338 339 874
1088 3 2 101 2 930 991 1034 999
1089 3 2 101 2 874 339 340 788
1090 3 2 101 2 827 788 340 341
1091 3 2 101 2 1026 1036 1017 972
1092 3 2 101 2 832 895 801 861
1093 3 2 101 2 955 890 971 990
1094 3 2 101 2 1031 1057 1041 1000
1095 3 2 101 2 920 988 939 871
1096 3 2 101 2 846 911 984 935
1097 3 2 101 2 892 919 880 797
1098 3 2 101 2 841 926 829 786
1099 3 2 101 2 841 925 991 930
1100 3 2 101 2 801 268 269 861
1101 3 2 101 2 861 269 270 832
1102 3 2 101 2 832 270 271 814
1103 3 2 101 2 795 272 273 862
1104 3 2 101 2 862 273 274 833
1105 3 2 101 2 876 789 890 955
1106 3 2 101 2 947 833 858 891
1107 3 2 101 2 983 1003 1049 1028
1108 3 2 101 2 834 815 277 278
1109 3 2 101 2 858 275 276 791
1110 3 2 101 2 834 278 279 863
1111 3 2 101 2 875 828 923 925
1112 3 2 101 2 863 279 280 787
1113 3 2 101 2 899 959 992 938
1114 3 2 101 2 916 848 996 964
1115 3 2 101 2 879 831 898 957
1116 3 2 101 2 878 792 889 954
1117 3 2 101 2 862 833 947 910
1118 3 2 101 2 877 830 924 956
1119 3 2 101 2 883 927 993 961
1120 3 2 101 2 814 795 911 846
1121 3 2 101 2 815 855 906 791
1122 3 2 101 2 957 898 975 1015
1123 3 2 101 2 888 943 1003 983
1124 3 2 101 2 1017 956 924 972
1125 3 2 101 2 786 875 925 841
1126 3 2 101 2 875 786 196 197
1127 3 2 101 2 835 816 281 282
1128 3 2 101 2 1036 1009 971 1017
1129 3 2 101 2 875 197 198 828
1130 3 2 101 2 876 828 198 199
1131 3 2 101 2 877 789 200 201
1132 3 2 101 2 876 199 200 789
1133 3 2 101 2 990 960 923 955
1134 3 2 101 2 1016 972 924 954
1135 3 2 101 2 878 830 202 203
1136 3 2 101 2 877 201 202 830
1137 3 2 101 2 954 924 830 878
1138 3 2 101 2 956 890 789 877
1139 3 2 101 2 889 974 1016 954
1140 3 2 101 2 898 849 946 975
1141 3 2 101 2 878 203 204 792
1142 3 2 101 2 879 792 204 205
1143 3 2 101 2 1017 971 890 956
1144 3 2 101 2 1015 974 889 957
1145 3 2 101 2 879 205 206 831
1146 3 2 101 2 880 798 207 208
1147 3 2 101 2 957 889 792 879
1148 3 2 101 2 955 923 828 876
1149 3 2 101 2 898 831 798 849
1150 3 2 101 2 880 208 209 797
1151 3 2 101 2 867 797 209 210
1152 3 2 101 2 919 849 798 880
1153 3 2 101 2 1032 998 960 990
1154 3 2 101 2 801 997 901 852
1155 3 2 101 2 1030 989 936 1007
1156 3 2 101 2 1044 1042 998 1032
1157 3 2 101 2 933 948 1010 969
1158 3 2 101 2 1023 1038 1062 1059
1159 3 2 101 2 856 914 982 948
1160 3 2 101 2 282 283 864 835
1161 3 2 101 2 206 207 798 831
1162 3 2 101 2 1034 991 960 998
1163 3 2 101 2 959 881 829 926
1164 3 2 101 2 805 882 927 883
1165 3 2 101 2 919 892 940 995
1166 3 2 101 2 975 1020 974 1015
1167 3 2 101 2 787 816 914 856
1168 3 2 101 2 881 194 195 829
1169 3 2 101 2 836 790 909 844
1170 3 2 101 2 196 786 829 195
1171 3 2 101 2 989 958 844 909
1172 3 2 101 2 855 843 943 888
1173 3 2 101 2 864 283 284 836
1174 3 2 101 2 836 284 285 790
1175 3 2 101 2 1033 1001 938 992
1176 3 2 101 2 275 858 833 274
1177 3 2 101 2 859 286 287 817
1178 3 2 101 2 865 796 288 289
1179 3 2 101 2 809 965 907 857
1180 3 2 101 2 817 847 937 915
1181 3 2 101 2 881 799 193 194
1182 3 2 101 2 882 192 193 799
1183 3 2 101 2 959 899 799 881
1184 3 2 101 2 865 289 290 837
1185 3 2 101 2 979 1035 1005 980
1186 3 2 101 2 837 290 291 802
1187 3 2 101 2 1053 1060 1039 1024
1188 3 2 101 2 847 904 850 962
1189 3 2 101 2 850 802 857 907
1190 3 2 101 2 1048 1025 1001 1033
1191 3 2 101 2 882 805 191 192
1192 3 2 101 2 1052 1016 974 1037
1193 3 2 101 2 866 809 293 294
1194 3 2 101 2 948 933 903 856
1195 3 2 101 2 866 294 295 821
1196 3 2 101 2 1019 993 938 1001
1197 3 2 101 2 838 189 190 819
1198 3 2 101 2 286 859 790 285
1199 3 2 101 2 1054 1048 1039 1060
1200 3 2 101 2 1020 945 980 1005
1201 3 2 101 2 812 298 839 886
1202 3 2 101 2 808 297 298 812
1203 3 2 101 2 292 857 802 291
1204 3 2 101 2 191 805 819 190
1205 3 2 101 2 937 978 1006 977
1206 3 2 101 2 983 970 944 888
1207 3 2 101 2 864 836 844 905
1208 3 2 101 2 802 850 904 837
1209 3 2 101 2 969 1023 1059 1064
1210 3 2 101 2 807 860 312 313
1211 3 2 101 2 1056 1063 1058 1055
1212 3 2 101 2 832 814 846 902
1213 3 2 101 2 1058 1054 1060 1066
1214 3 2 101 2 863 787 856 903
1215 3 2 101 2 266 807 313 9
1216 3 2 101 2 885 310 311 806
1217 3 2 101 2 947 980 945 910
1218 3 2 101 2 1062 1047 1042 1059
1219 3 2 101 2 311 312 860 806
1220 3 2 101 2 885 813 309 310
1221 3 2 101 2 213 4 309 813
1222 3 2 101 2 906 855 888 944
1223 3 2 101 2 994 963 997 929
1224 3 2 101 2 1007 936 908 977
1225 3 2 101 2 806 860 901 928
1226 3 2 101 2 1050 1065 1027 1041
1227 3 2 101 2 1035 1052 1037 1005
1228 3 2 101 2 970 1002 1036 1026
1229 3 2 101 2 1028 1049 1064 1044
1230 3 2 101 2 964 996 942 962
1231 3 2 101 2 301 302 319 320
1232 3 2 101 2 302 303 318 319
1233 3 2 101 2 303 304 317 318
1234 3 2 101 2 304 305 316 317
1235 3 2 101 2 305 306 315 316
1236 3 2 101 2 939 976 1006 894
1237 3 2 101 2 941 894 1006 978
1238 3 2 101 2 891 906 944 979
1239 3 2 101 2 941 978 937 942
1240 3 2 101 2 1035 979 944 1051
1241 3 2 101 2 945 1020 975 984
1242 3 2 101 2 1029 1043 1038 1010
1243 3 2 101 2 1055 1061 1038 1043
1244 3 2 101 2 1038 1061 1053 1062
1245 3 2 101 2 1050 1008 1030 1065
1246 3 2 102 3 1156 1127 1199 1184
1247 3 2 102 3 357 1164 1094 1124
1248 3 2 102 3 1167 1196 1146 1174
1249 3 2 102 3 223 224 1123 377
1250 3 2 102 3 1126 1190 1197 1177
1251 3 2 102 3 261 354 1119 260
1252 3 2 102 3 1125 1175 1152 1067
1253 3 2 102 3 1192 1168 1200 1201
1254 3 2 102 3 1151 1170 1126 1068
1255 3 2 102 3 233 1151 1068 232
1256 3 2 102 3 1187 1101 1079 1130
1257 3 2 102 3 1153 1096 1081 1157
1258 3 2 102 3 1083 1097 1094 1164
1259 3 2 102 3 1203 1188 1171 1191
1260 3 2 102 3 1203 1191 1172 1195
1261 3 2 102 3 1115 376 377 1123
1262 3 2 102 3 1110 1085 1098 1150
1263 3 2 102 3 1155 1090 1087 1109
1264 3 2 102 3 1196 1202 1189 1173
1265 3 2 102 3 1163 1182 1078 1149
1266 3 2 102 3 1196 1167 1194 1202
1267 3 2 102 3 2 366 1100 108
1268 3 2 102 3 1190 1195 1179 1178
1269 3 2 102 3 1086 1145 1099 1104
1270 3 2 102 3 1172 1191 1138 1073
1271 3 2 102 3 1115 1116 1088 1107
1272 3 2 102 3 1198 1180 1145 1169
1273 3 2 102 3 1082 1133 1096 1153
1274 3 2 102 3 1078 255 256 1149
1275 3 2 102 3 1091 1121 1090 1155
1276 3 2 102 3 1144 1069 1178 1179
1277 3 2 102 3 1193 1168 1139 1071
1278 3 2 102 3 80 1104 365 5
1279 3 2 102 3 1073 1140 1132 1172
1280 3 2 102 3 1130 1079 1134 1154
1281 3 2 102 3 1074 1171 1127 1102
1282 3 2 102 3 244 1158 1092 243
1283 3 2 102 3 1157 1081 1137 1186
1284 3 2 102 3 1193 1071 1136 1181
1285 3 2 102 3 1101 1187 1181 1136
1286 3 2 102 3 1156 1129 1102 1127
1287 3 2 102 3 1192 1072 1139 1168
1288 3 2 102 3 1202 1194 1180 1198
1289 3 2 102 3 1099 1145 1180 1077
1290 3 2 102 3 1188 1199 1127 1171
1291 3 2 102 3 1120 94 95 1162
1292 3 2 102 3 1120 1161 93 94
1293 3 2 102 3 1090 1121 96 97
1294 3 2 102 3 1162 95 96 1121
1295 3 2 102 3 1104 80 81 1086
1296 3 2 102 3 1161 1089 92 93
1297 3 2 102 3 1100 1140 107 108
1298 3 2 102 3 1089 1150 91 92
1299 3 2 102 3 1150 1098 90 91
1300 3 2 102 3 1134 89 90 1098
1301 3 2 102 3 1090 97 98 1087
1302 3 2 102 3 1087 98 99 1133
1303 3 2 102 3 1079 88 89 1134
1304 3 2 102 3 1081 1096 100 101
1305 3 2 102 3 1133 99 100 1096
1306 3 2 102 3 1086 81 82 1135
1307 3 2 102 3 1140 1073 106 107
1308 3 2 102 3 1138 105 106 1073
1309 3 2 102 3 1079 1101 87 88
1310 3 2 102 3 1136 86 87 1101
1311 3 2 102 3 1071 85 86 1136
1312 3 2 102 3 1081 101 102 1137
1313 3 2 102 3 1074 104 105 1138
1314 3 2 102 3 1137 102 103 1102
1315 3 2 102 3 1139 84 85 1071
1316 3 2 102 3 1072 83 84 1139
1317 3 2 102 3 1138 1191 1171 1074
1318 3 2 102 3 1102 103 104 1074
1319 3 2 102 3 1135 82 83 1072
1320 3 2 102 3 1102 1129 1186 1137
1321 3 2 102 3 1197 1183 1075 1147
1322 3 2 102 3 1174 1182 1103 1142
1323 3 2 102 3 1146 254 255 1078
1324 3 2 102 3 1147 1075 229 230
1325 3 2 102 3 1196 1173 1112 1146
1326 3 2 102 3 1132 1179 1195 1172
1327 3 2 102 3 1072 1192 1169 1135
1328 3 2 102 3 1174 1142 1070 1167
1329 3 2 102 3 1197 1190 1178 1176
1330 3 2 102 3 1108 1144 1179 1132
1331 3 2 102 3 1146 1112 253 254
1332 3 2 102 3 1147 230 231 1111
1333 3 2 102 3 1197 1176 1141 1131
1334 3 2 102 3 1203 1126 1170 1188
1335 3 2 102 3 370 1084 1131 1141
1336 3 2 102 3 1142 360 361 1070
1337 3 2 102 3 1144 368 369 1069
1338 3 2 102 3 1141 1069 369 370
1339 3 2 102 3 1142 1103 359 360
1340 3 2 102 3 361 362 1143 1070
1341 3 2 102 3 1182 1163 1083 1103
1342 3 2 102 3 1105 1159 1131 1084
1343 3 2 102 3 1070 1143 1194 1167
1344 3 2 102 3 1148 1088 227 228
1345 3 2 102 3 1149 256 257 1097
1346 3 2 102 3 1135 1169 1145 1086
1347 3 2 102 3 1069 1141 1176 1178
1348 3 2 102 3 1107 375 376 1115
1349 3 2 102 3 252 253 1112 1067
1350 3 2 102 3 232 1068 1111 231
1351 3 2 102 3 373 1105 1084 372
1352 3 2 102 3 358 359 1103 1083
1353 3 2 102 3 363 1077 1143 362
1354 3 2 102 3 357 358 1083 1164
1355 3 2 102 3 374 1106 1105 373
1356 3 2 102 3 375 1107 1106 374
1357 3 2 102 3 1140 1100 1108 1132
1358 3 2 102 3 1165 242 243 1092
1359 3 2 102 3 1143 1077 1180 1194
1360 3 2 102 3 1152 1185 1128 1114
1361 3 2 102 3 1104 1099 364 365
1362 3 2 102 3 1075 1148 228 229
1363 3 2 102 3 1113 1184 1170 1151
1364 3 2 102 3 1100 366 367 1108
1365 3 2 102 3 1144 1108 367 368
1366 3 2 102 3 357 1124 1119 356
1367 3 2 102 3 1197 1147 1111 1177
1368 3 2 102 3 241 242 1165 1093
1369 3 2 102 3 1159 1105 1106 1166
1370 3 2 102 3 1173 1125 1067 1112
1371 3 2 102 3 1177 1111 1068 1126
1372 3 2 102 3 363 364 1099 1077
1373 3 2 102 3 1185 1193 1181 1128
1374 3 2 102 3 1161 1120 1165 1092
1375 3 2 102 3 240 241 1093 1091
1376 3 2 102 3 1119 1124 1094 258
1377 3 2 102 3 251 252 1067 1152
1378 3 2 102 3 1173 1189 1201 1125
1379 3 2 102 3 245 1110 1158 244
1380 3 2 102 3 1088 1116 226 227
1381 3 2 102 3 1107 1088 1166 1106
1382 3 2 102 3 1097 257 258 1094
1383 3 2 102 3 1146 1078 1182 1174
1384 3 2 102 3 1125 1201 1200 1175
1385 3 2 102 3 1151 233 234 1113
1386 3 2 102 3 1152 1114 250 251
1387 3 2 102 3 246 1085 1110 245
1388 3 2 102 3 238 239 1155 1109
1389 3 2 102 3 1120 1162 1093 1165
1390 3 2 102 3 1126 1203 1195 1190
1391 3 2 102 3 1088 1148 1159 1166
1392 3 2 102 3 1185 1200 1168 1193
1393 3 2 102 3 1183 1159 1148 1075
1394 3 2 102 3 1116 1115 225 226
1395 3 2 102 3 1113 234 235 1076
1396 3 2 102 3 1114 1080 249 250
1397 3 2 102 3 1109 1082 237 238
1398 3 2 102 3 1085 246 247 1122
1399 3 2 102 3 1184 1113 1076 1156
1400 3 2 102 3 1091 1155 239 240
1401 3 2 102 3 1114 1128 1160 1080
1402 3 2 102 3 1115 1123 224 225
1403 3 2 102 3 1076 235 236 1117
1404 3 2 102 3 1122 247 248 1095
1405 3 2 102 3 1082 1153 236 237
1406 3 2 102 3 1156 1076 1117 1129
1407 3 2 102 3 249 1080 1160 1118
1408 3 2 102 3 1157 1117 236 1153
1409 3 2 102 3 249 1118 1095 248
1410 3 2 102 3 1134 1122 1095 1154
1411 3 2 102 3 1118 1130 1154 1095
1412 3 2 102 3 1118 1160 1187 1130
1413 3 2 102 3 1117 1157 1186 1129
1414 3 2 102 3 1150 1089 1158 1110
1415 3 2 102 3 1197 1131 1159 1183
1416 3 2 102 3 1089 1161 1092 1158
1417 3 2 102 3 1121 1091 1093 1162
1418 3 2 102 3 1152 1175 1200 1185
1419 3 2 102 3 1083 1163 1149 1097
1420 3 2 102 3 1188 1170 1184 1199
1421 3 2 102 3 1128 1181 1187 1160
1422 3 2 102 3 219 220 380 381
1423 3 2 102 3 220 221 379 380
1424 3 2 102 3 221 222 378 379
1425 3 2 102 3 263 352 353 262
1426 3 2 102 3 264 351 352 263
1427 3 2 102 3 265 350 351 264
1428 3 2 102 3 377 378 222 223
1429 3 2 102 3 354 261 262 353
1430 3 2 102 3 1133 1082 1109 1087
1431 3 2 102 3 1134 1098 1085 1122
1432 3 2 102 3 1202 1198 1201 1189
1433 3 2 102 3 1169 1192 1201 1198
$EndElements
