$MeshFormat
2.2 0 8
$EndMeshFormat
$PhysicalNames
5
1 3 "left                                                                            "
1 4 "right                                                                           "
1 5 "bottom                                                                          "
2 1 "FirstMaterial                                                                   "
2 2 "SecondMaterial                                                                  "
$EndPhysicalNames
$Nodes
408
1 0 0.0002142857142857146 0
2 0 0 0
3 0 0.001285714285714286 0
4 0 0.0015 0
5 0 0.001071428571428572 0
6 0 0.0008571428571428574 0
7 0 0.0006428571428571431 0
8 0 0.0004285714285714288 0
9 0.012 0.0002142857142857146 0
10 0.012 0 0
11 0.012 0.0015 0
12 0.012 0.001285714285714286 0
13 0.012 0.001071428571428572 0
14 0.012 0.0008571428571428574 0
15 0.012 0.0006428571428571431 0
16 0.012 0.0004285714285714288 0
17 0.0002000000000000001 0 0
18 0.003800000000000002 0 0
19 0.004000000000000001 0 0
20 0.0004000000000000001 0 0
21 0.0006000000000000003 0 0
22 0.0008000000000000003 0 0
23 0.001 0 0
24 0.0012 0 0
25 0.0014 0 0
26 0.0016 0 0
27 0.0018 0 0
28 0.002 0 0
29 0.0022 0 0
30 0.002400000000000001 0 0
31 0.002600000000000001 0 0
32 0.002800000000000001 0 0
33 0.003000000000000001 0 0
34 0.003200000000000001 0 0
35 0.003400000000000002 0 0
36 0.003600000000000002 0 0
37 0.004200000000000001 0 0
38 0.004400000000000001 0 0
39 0.004600000000000002 0 0
40 0.004800000000000001 0 0
41 0.005000000000000001 0 0
42 0.005200000000000001 0 0
43 0.005400000000000001 0 0
44 0.005600000000000001 0 0
45 0.005800000000000001 0 0
46 0.006000000000000001 0 0
47 0.006200000000000001 0 0
48 0.006400000000000001 0 0
49 0.006600000000000002 0 0
50 0.006800000000000002 0 0
51 0.007000000000000003 0 0
52 0.007200000000000002 0 0
53 0.007400000000000002 0 0
54 0.007600000000000003 0 0
55 0.007800000000000003 0 0
56 0.008000000000000002 0 0
57 0.0118 0 0
58 0.008200000000000001 0 0
59 0.0116 0 0
60 0.0114 0 0
61 0.0112 0 0
62 0.011 0 0
63 0.0108 0 0
64 0.0106 0 0
65 0.0104 0 0
66 0.0102 0 0
67 0.01 0 0
68 0.009800000000000003 0 0
69 0.009600000000000001 0 0
70 0.009400000000000002 0 0
71 0.009200000000000003 0 0
72 0.009000000000000001 0 0
73 0.008800000000000002 0 0
74 0.0086 0 0
75 0.008400000000000001 0 0
76 0.004000000000000001 0.002571428571428572 0
77 0.00393201115694654 0.002756555796636456 0
78 0.004000000000000001 0.003000000000000001 0
79 0.003840313783826804 0.002521015662701707 0
80 0.0002112973716354857 0.001361288127144811 0
81 0.004000000000000001 0.002142857142857143 0
82 0.00389152952589486 0.002382745907474272 0
83 0.003725804319752637 0.002295682252909669 0
84 0.003820922721385176 0.000195689448487938 0
85 0.004000000000000001 0.0004285714285714287 0
86 0.004000000000000001 0.001714285714285715 0
87 0.003739712675695917 0.001906809207229625 0
88 0.003589602216228261 0.002082758440416575 0
89 0.003433038993324105 0.001884325781398653 0
90 0.0004352601380800531 0.001244120545546676 0
91 0.0001826941219834389 0.0011861094907628 0
92 0.0002669131002016527 0.0009679959239796553 0
93 0.0002169962033724358 0.0006835554858571409 0
94 0.0001447745113715374 0.000441887737205081 0
95 0.0002716934453140969 0.0002229720291839335 0
96 0.000505111515060698 0.0002227254054633083 0
97 0.0007396791302127349 0.000206935391990871 0
98 0.0009982525067434402 0.000166623943694831 0
99 0.001248130937454009 0.0001979685715460176 0
100 0.001491194069401498 0.0002447995947815794 0
101 0.001727471772718015 0.0002042460027941741 0
102 0.001952528410888171 0.0001930744103101507 0
103 0.002214538681235863 0.0001578875833554826 0
104 0.002450853647728872 0.0001531362370511278 0
105 0.002653507295832166 0.0002452181409801779 0
106 0.002923825394846005 0.0002185957250980553 0
107 0.003201540800657036 0.0001830995750446451 0
108 0.00347544206017085 0.0001913994110048749 0
109 0.003667515901651468 0.0001563742978325839 0
110 0.003637097705274409 0.0003935015160356755 0
111 0.003706917201585635 0.0007193224404002431 0
112 0.004000000000000001 0.0008571428571428573 0
113 0.003680144906779606 0.001098608436801207 0
114 0.004000000000000001 0.001285714285714286 0
115 0.003724226723049498 0.001456381193323442 0
116 0.003675922168927218 0.001709818957190041 0
117 0.003481157238424548 0.001587944556178082 0
118 0.003257645222655389 0.001702324165632009 0
119 0.003289681706508609 0.001433004179975414 0
120 0.003065135564420674 0.001538532852011863 0
121 0.003088060973295838 0.001288567492394645 0
122 0.002857392004779192 0.001394553074409086 0
123 0.002879488180710203 0.001160090130515832 0
124 0.002636445457439371 0.001271792387910225 0
125 0.002672141967272377 0.001042476987579803 0
126 0.002404455909322577 0.00117145090847313 0
127 0.002509498010588611 0.0009433207639859129 0
128 0.002318536240967472 0.0009136072875033412 0
129 0.002163691304399232 0.001094509580520171 0
130 0.002078649317018057 0.0008534008239749942 0
131 0.001916505372130252 0.001041720587165733 0
132 0.001816098289896627 0.0008122159812456128 0
133 0.001665314617264295 0.001013599996828221 0
134 0.001531321922149748 0.0007645472949122367 0
135 0.001412574695939963 0.001010422718113724 0
136 0.00125577134169786 0.0008100793722059678 0
137 0.00116075640904163 0.001032219812292726 0
138 0.0009955890868895605 0.0008459580435007349 0
139 0.0009123215474993166 0.001078778189643221 0
140 0.0007367274507581235 0.0009107188569881068 0
141 0.0006696988256704231 0.001149642692628839 0
142 0.0005233719361867042 0.001001157739810272 0
143 0.003504773848414753 0.00134250961704651 0
144 0.001506891541866819 0.0005032494244050518 0
145 0.001661909384145715 0.0003877570437577115 0
146 0.001336901248472685 0.0006179657231901994 0
147 0.001725575945159845 0.0005817340839027771 0
148 0.00129661044067157 0.0004190360823548552 0
149 0.001860287342334285 0.0003980249509731024 0
150 0.001098559876032137 0.0005875259346377355 0
151 0.001978771442929969 0.0006153172976510301 0
152 0.001105552255358866 0.000356056566923835 0
153 0.002112178281720749 0.0003958416829821704 0
154 0.0008971118368063834 0.0004041030093872822 0
155 0.002277813584244496 0.0006403067046405607 0
156 0.0008114920204140177 0.0006553371976233505 0
157 0.002384884212161477 0.0003602018423627436 0
158 0.0005101673382435308 0.0007324161038746547 0
159 0.000380636619005484 0.0004587977600453373 0
160 0.0006392094664009833 0.0004474218031731178 0
161 0.002593061827242751 0.0005577872221021513 0
162 0.00282055929139444 0.0004250223626191691 0
163 0.003064894050544393 0.0004559057527403491 0
164 0.003343934223708356 0.0004146174651598963 0
165 0.003439841587426085 0.0006469776391560885 0
166 0.003481355876403088 0.000890681457824425 0
167 0.003340015984563431 0.001138566676933089 0
168 0.003093948650289998 0.001067062985677511 0
169 0.00292578958159158 0.0008956115385676435 0
170 0.002674359669710754 0.0008110914926013132 0
171 0.002476010756866746 0.000775736049677802 0
172 0.00322795584205255 0.000849898657251169 0
173 0.002859844925427191 0.0006413382512347166 0
174 0.003064711746430705 0.0006923130523004205 0
175 0.003231795464282989 0.0006128726070680048 0
176 0.004200000000000001 0.0004285714285714287 0
177 0.004200000000000001 0.0008571428571428573 0
178 0.004200000000000001 0.001285714285714286 0
179 0.004200000000000001 0.001714285714285715 0
180 0.004200000000000001 0.002142857142857143 0
181 0.004200000000000001 0.002571428571428571 0
182 0.004200000000000001 0.003000000000000001 0
183 0.004400000000000001 0.0004285714285714287 0
184 0.004400000000000001 0.0008571428571428573 0
185 0.004400000000000001 0.001285714285714286 0
186 0.004400000000000001 0.001714285714285715 0
187 0.004400000000000001 0.002142857142857143 0
188 0.004400000000000001 0.002571428571428572 0
189 0.004400000000000001 0.003000000000000001 0
190 0.004600000000000002 0.0004285714285714287 0
191 0.004600000000000002 0.0008571428571428573 0
192 0.004600000000000002 0.001285714285714286 0
193 0.004600000000000002 0.001714285714285715 0
194 0.004600000000000002 0.002142857142857143 0
195 0.004600000000000002 0.002571428571428572 0
196 0.004600000000000002 0.003000000000000001 0
197 0.004800000000000001 0.0004285714285714287 0
198 0.004800000000000001 0.0008571428571428574 0
199 0.004800000000000001 0.001285714285714286 0
200 0.004800000000000001 0.001714285714285715 0
201 0.004800000000000001 0.002142857142857143 0
202 0.004800000000000001 0.002571428571428572 0
203 0.004800000000000001 0.003000000000000001 0
204 0.005000000000000001 0.0004285714285714287 0
205 0.005000000000000001 0.0008571428571428573 0
206 0.005000000000000001 0.001285714285714286 0
207 0.005000000000000001 0.001714285714285715 0
208 0.005000000000000001 0.002142857142857143 0
209 0.005000000000000001 0.002571428571428572 0
210 0.005000000000000001 0.003000000000000001 0
211 0.005200000000000001 0.0004285714285714287 0
212 0.005200000000000001 0.0008571428571428573 0
213 0.005200000000000001 0.001285714285714286 0
214 0.005200000000000001 0.001714285714285715 0
215 0.005200000000000001 0.002142857142857143 0
216 0.005200000000000001 0.002571428571428572 0
217 0.005200000000000001 0.003000000000000001 0
218 0.005400000000000001 0.0004285714285714287 0
219 0.005400000000000001 0.0008571428571428573 0
220 0.005400000000000001 0.001285714285714286 0
221 0.005400000000000001 0.001714285714285715 0
222 0.005400000000000001 0.002142857142857143 0
223 0.005400000000000001 0.002571428571428572 0
224 0.005400000000000001 0.003000000000000001 0
225 0.005600000000000002 0.0004285714285714287 0
226 0.005600000000000002 0.0008571428571428574 0
227 0.005600000000000002 0.001285714285714286 0
228 0.005600000000000002 0.001714285714285715 0
229 0.005600000000000002 0.002142857142857143 0
230 0.005600000000000002 0.002571428571428572 0
231 0.005600000000000001 0.003000000000000001 0
232 0.005800000000000001 0.0004285714285714287 0
233 0.005800000000000001 0.0008571428571428573 0
234 0.005800000000000001 0.001285714285714286 0
235 0.005800000000000001 0.001714285714285715 0
236 0.005800000000000001 0.002142857142857143 0
237 0.005800000000000001 0.002571428571428572 0
238 0.005800000000000001 0.003000000000000001 0
239 0.006 0.0004285714285714287 0
240 0.006 0.0008571428571428573 0
241 0.006 0.001285714285714286 0
242 0.006 0.001714285714285715 0
243 0.006 0.002142857142857143 0
244 0.006 0.002571428571428572 0
245 0.006000000000000001 0.003000000000000001 0
246 0.006200000000000001 0.0004285714285714287 0
247 0.006200000000000001 0.0008571428571428573 0
248 0.006200000000000001 0.001285714285714286 0
249 0.006200000000000001 0.001714285714285715 0
250 0.006200000000000001 0.002142857142857143 0
251 0.006200000000000001 0.002571428571428572 0
252 0.006200000000000001 0.003000000000000001 0
253 0.006400000000000002 0.0004285714285714287 0
254 0.006400000000000002 0.0008571428571428573 0
255 0.006400000000000002 0.001285714285714286 0
256 0.006400000000000002 0.001714285714285715 0
257 0.006400000000000002 0.002142857142857143 0
258 0.006400000000000002 0.002571428571428572 0
259 0.006400000000000001 0.003000000000000001 0
260 0.006600000000000002 0.0004285714285714287 0
261 0.006600000000000002 0.0008571428571428573 0
262 0.006600000000000002 0.001285714285714286 0
263 0.006600000000000002 0.001714285714285715 0
264 0.006600000000000002 0.002142857142857143 0
265 0.006600000000000002 0.002571428571428572 0
266 0.006600000000000002 0.003000000000000001 0
267 0.006800000000000002 0.0004285714285714287 0
268 0.006800000000000002 0.0008571428571428573 0
269 0.006800000000000002 0.001285714285714286 0
270 0.006800000000000002 0.001714285714285715 0
271 0.006800000000000002 0.002142857142857143 0
272 0.006800000000000002 0.002571428571428572 0
273 0.006800000000000002 0.003000000000000001 0
274 0.007000000000000003 0.0004285714285714287 0
275 0.007000000000000003 0.0008571428571428573 0
276 0.007000000000000003 0.001285714285714286 0
277 0.007000000000000003 0.001714285714285715 0
278 0.007000000000000003 0.002142857142857143 0
279 0.007000000000000003 0.002571428571428572 0
280 0.007000000000000003 0.003000000000000001 0
281 0.007200000000000002 0.0004285714285714287 0
282 0.007200000000000002 0.0008571428571428573 0
283 0.007200000000000002 0.001285714285714286 0
284 0.007200000000000002 0.001714285714285715 0
285 0.007200000000000002 0.002142857142857143 0
286 0.007200000000000002 0.002571428571428572 0
287 0.007200000000000002 0.003000000000000001 0
288 0.007400000000000002 0.0004285714285714287 0
289 0.007400000000000002 0.0008571428571428573 0
290 0.007400000000000002 0.001285714285714286 0
291 0.007400000000000002 0.001714285714285715 0
292 0.007400000000000002 0.002142857142857143 0
293 0.007400000000000002 0.002571428571428572 0
294 0.007400000000000002 0.003000000000000001 0
295 0.007600000000000003 0.0004285714285714287 0
296 0.007600000000000003 0.0008571428571428573 0
297 0.007600000000000003 0.001285714285714286 0
298 0.007600000000000003 0.001714285714285715 0
299 0.007600000000000003 0.002142857142857143 0
300 0.007600000000000003 0.002571428571428572 0
301 0.007600000000000003 0.003000000000000001 0
302 0.007800000000000003 0.0004285714285714287 0
303 0.007800000000000003 0.0008571428571428573 0
304 0.007800000000000003 0.001285714285714286 0
305 0.007800000000000003 0.001714285714285715 0
306 0.007800000000000003 0.002142857142857143 0
307 0.007800000000000003 0.002571428571428572 0
308 0.007800000000000003 0.003000000000000001 0
309 0.008000000000000002 0.0004285714285714287 0
310 0.008000000000000002 0.0008571428571428573 0
311 0.008000000000000002 0.001285714285714286 0
312 0.008000000000000002 0.001714285714285715 0
313 0.008000000000000002 0.002142857142857143 0
314 0.008000000000000002 0.002571428571428572 0
315 0.008000000000000002 0.003000000000000001 0
316 0.008067988843053462 0.002756555796636456 0
317 0.008159686216173198 0.002521015662701707 0
318 0.01178870262836452 0.001361288127144811 0
319 0.008108470474105144 0.002382745907474272 0
320 0.008274195680247367 0.002295682252909669 0
321 0.008179077278614827 0.000195689448487938 0
322 0.008260287324304085 0.001906809207229625 0
323 0.008410397783771742 0.002082758440416575 0
324 0.008566961006675897 0.001884325781398653 0
325 0.01156473986191995 0.001244120545546676 0
326 0.01181730587801656 0.0011861094907628 0
327 0.01173308689979835 0.0009679959239796553 0
328 0.01178300379662757 0.0006835554858571409 0
329 0.01185522548862846 0.000441887737205081 0
330 0.01172830655468591 0.0002229720291839335 0
331 0.01149488848493931 0.0002227254054633083 0
332 0.01126032086978727 0.000206935391990871 0
333 0.01100174749325656 0.000166623943694831 0
334 0.01075186906254599 0.0001979685715460176 0
335 0.0105088059305985 0.0002447995947815794 0
336 0.01027252822728199 0.0002042460027941741 0
337 0.01004747158911183 0.0001930744103101507 0
338 0.009785461318764139 0.0001578875833554826 0
339 0.00954914635227113 0.0001531362370511278 0
340 0.009346492704167837 0.0002452181409801779 0
341 0.009076174605153999 0.0002185957250980553 0
342 0.008798459199342967 0.0001830995750446451 0
343 0.008524557939829154 0.0001913994110048749 0
344 0.008332484098348535 0.0001563742978325839 0
345 0.008362902294725593 0.0003935015160356755 0
346 0.00829308279841437 0.0007193224404002431 0
347 0.008319855093220398 0.001098608436801207 0
348 0.008275773276950504 0.001456381193323442 0
349 0.008324077831072784 0.001709818957190041 0
350 0.008518842761575454 0.001587944556178082 0
351 0.008742354777344613 0.001702324165632009 0
352 0.008710318293491393 0.001433004179975414 0
353 0.008934864435579329 0.001538532852011863 0
354 0.008911939026704164 0.001288567492394645 0
355 0.009142607995220811 0.001394553074409086 0
356 0.0091205118192898 0.001160090130515832 0
357 0.009363554542560631 0.001271792387910225 0
358 0.009327858032727626 0.001042476987579803 0
359 0.009595544090677425 0.00117145090847313 0
360 0.009490501989411392 0.0009433207639859129 0
361 0.009681463759032531 0.0009136072875033412 0
362 0.00983630869560077 0.001094509580520171 0
363 0.009921350682981944 0.0008534008239749942 0
364 0.01008349462786975 0.001041720587165733 0
365 0.01018390171010337 0.0008122159812456128 0
366 0.01033468538273571 0.001013599996828221 0
367 0.01046867807785025 0.0007645472949122367 0
368 0.01058742530406004 0.001010422718113724 0
369 0.01074422865830214 0.0008100793722059678 0
370 0.01083924359095837 0.001032219812292726 0
371 0.01100441091311044 0.0008459580435007349 0
372 0.01108767845250069 0.001078778189643221 0
373 0.01126327254924188 0.0009107188569881068 0
374 0.01133030117432958 0.001149642692628839 0
375 0.0114766280638133 0.001001157739810272 0
376 0.008495226151585249 0.00134250961704651 0
377 0.01049310845813318 0.0005032494244050518 0
378 0.01033809061585429 0.0003877570437577115 0
379 0.01066309875152732 0.0006179657231901994 0
380 0.01027442405484016 0.0005817340839027771 0
381 0.01070338955932843 0.0004190360823548552 0
382 0.01013971265766572 0.0003980249509731024 0
383 0.01090144012396787 0.0005875259346377355 0
384 0.01002122855707003 0.0006153172976510301 0
385 0.01089444774464114 0.000356056566923835 0
386 0.009887821718279254 0.0003958416829821704 0
387 0.01110288816319362 0.0004041030093872822 0
388 0.009722186415755507 0.0006403067046405607 0
389 0.01118850797958599 0.0006553371976233505 0
390 0.009615115787838524 0.0003602018423627436 0
391 0.01148983266175647 0.0007324161038746547 0
392 0.01161936338099452 0.0004587977600453373 0
393 0.01136079053359902 0.0004474218031731178 0
394 0.009406938172757253 0.0005577872221021513 0
395 0.009179440708605564 0.0004250223626191691 0
396 0.00893510594945561 0.0004559057527403491 0
397 0.008656065776291647 0.0004146174651598963 0
398 0.008560158412573918 0.0006469776391560885 0
399 0.008518644123596915 0.000890681457824425 0
400 0.008659984015436571 0.001138566676933089 0
401 0.008906051349710006 0.001067062985677511 0
402 0.009074210418408422 0.0008956115385676435 0
403 0.009325640330289249 0.0008110914926013132 0
404 0.009523989243133257 0.000775736049677802 0
405 0.008772044157947453 0.000849898657251169 0
406 0.009140155074572812 0.0006413382512347166 0
407 0.008935288253569297 0.0006923130523004205 0
408 0.008768204535717014 0.0006128726070680048 0
$EndNodes
$Elements
754
1 1 2 3 3 4 3
2 1 2 3 3 3 5
3 1 2 3 3 5 6
4 1 2 3 3 6 7
5 1 2 3 3 7 8
6 1 2 3 3 8 1
7 1 2 3 3 1 2
8 1 2 4 4 10 9
9 1 2 4 4 9 16
10 1 2 4 4 16 15
11 1 2 4 4 15 14
12 1 2 4 4 14 13
13 1 2 4 4 13 12
14 1 2 4 4 12 11
15 1 2 5 5 2 17
16 1 2 5 5 17 20
17 1 2 5 5 20 21
18 1 2 5 5 21 22
19 1 2 5 5 22 23
20 1 2 5 5 23 24
21 1 2 5 5 24 25
22 1 2 5 5 25 26
23 1 2 5 5 26 27
24 1 2 5 5 27 28
25 1 2 5 5 28 29
26 1 2 5 5 29 30
27 1 2 5 5 30 31
28 1 2 5 5 31 32
29 1 2 5 5 32 33
30 1 2 5 5 33 34
31 1 2 5 5 34 35
32 1 2 5 5 35 36
33 1 2 5 5 36 18
34 1 2 5 5 18 19
35 1 2 5 5 19 37
36 1 2 5 5 37 38
37 1 2 5 5 38 39
38 1 2 5 5 39 40
39 1 2 5 5 40 41
40 1 2 5 5 41 42
41 1 2 5 5 42 43
42 1 2 5 5 43 44
43 1 2 5 5 44 45
44 1 2 5 5 45 46
45 1 2 5 5 46 47
46 1 2 5 5 47 48
47 1 2 5 5 48 49
48 1 2 5 5 49 50
49 1 2 5 5 50 51
50 1 2 5 5 51 52
51 1 2 5 5 52 53
52 1 2 5 5 53 54
53 1 2 5 5 54 55
54 1 2 5 5 55 56
55 1 2 5 5 56 58
56 1 2 5 5 58 75
57 1 2 5 5 75 74
58 1 2 5 5 74 73
59 1 2 5 5 73 72
60 1 2 5 5 72 71
61 1 2 5 5 71 70
62 1 2 5 5 70 69
63 1 2 5 5 69 68
64 1 2 5 5 68 67
65 1 2 5 5 67 66
66 1 2 5 5 66 65
67 1 2 5 5 65 64
68 1 2 5 5 64 63
69 1 2 5 5 63 62
70 1 2 5 5 62 61
71 1 2 5 5 61 60
72 1 2 5 5 60 59
73 1 2 5 5 59 57
74 1 2 5 5 57 10
75 2 2 1 1 76 77 78
76 2 2 1 1 76 79 77
77 2 2 1 1 1 17 2
78 2 2 1 1 80 3 4
79 2 2 1 1 81 82 76
80 2 2 1 1 76 82 79
81 2 2 1 1 82 83 79
82 2 2 1 1 18 84 19
83 2 2 1 1 19 84 85
84 2 2 1 1 86 87 81
85 2 2 1 1 81 87 88
86 2 2 1 1 87 89 88
87 2 2 1 1 83 81 88
88 2 2 1 1 82 81 83
89 2 2 1 1 90 91 80
90 2 2 1 1 3 91 5
91 2 2 1 1 80 91 3
92 2 2 1 1 92 5 91
93 2 2 1 1 92 6 5
94 2 2 1 1 93 6 92
95 2 2 1 1 93 7 6
96 2 2 1 1 94 7 93
97 2 2 1 1 94 8 7
98 2 2 1 1 94 1 8
99 2 2 1 1 95 1 94
100 2 2 1 1 95 17 1
101 2 2 1 1 95 20 17
102 2 2 1 1 96 20 95
103 2 2 1 1 96 21 20
104 2 2 1 1 97 21 96
105 2 2 1 1 97 22 21
106 2 2 1 1 98 22 97
107 2 2 1 1 98 23 22
108 2 2 1 1 98 24 23
109 2 2 1 1 99 24 98
110 2 2 1 1 99 25 24
111 2 2 1 1 100 25 99
112 2 2 1 1 100 26 25
113 2 2 1 1 101 26 100
114 2 2 1 1 101 27 26
115 2 2 1 1 102 27 101
116 2 2 1 1 102 28 27
117 2 2 1 1 103 28 102
118 2 2 1 1 103 29 28
119 2 2 1 1 103 30 29
120 2 2 1 1 104 30 103
121 2 2 1 1 104 31 30
122 2 2 1 1 105 31 104
123 2 2 1 1 105 32 31
124 2 2 1 1 106 32 105
125 2 2 1 1 106 33 32
126 2 2 1 1 107 33 106
127 2 2 1 1 107 34 33
128 2 2 1 1 107 35 34
129 2 2 1 1 108 35 107
130 2 2 1 1 108 36 35
131 2 2 1 1 109 36 108
132 2 2 1 1 109 18 36
133 2 2 1 1 109 84 18
134 2 2 1 1 110 84 109
135 2 2 1 1 110 85 84
136 2 2 1 1 111 85 110
137 2 2 1 1 111 112 85
138 2 2 1 1 113 112 111
139 2 2 1 1 113 114 112
140 2 2 1 1 115 114 113
141 2 2 1 1 115 86 114
142 2 2 1 1 116 86 115
143 2 2 1 1 116 87 86
144 2 2 1 1 116 89 87
145 2 2 1 1 117 89 116
146 2 2 1 1 117 118 89
147 2 2 1 1 119 118 117
148 2 2 1 1 119 120 118
149 2 2 1 1 121 120 119
150 2 2 1 1 121 122 120
151 2 2 1 1 123 122 121
152 2 2 1 1 123 124 122
153 2 2 1 1 125 124 123
154 2 2 1 1 125 126 124
155 2 2 1 1 127 126 125
156 2 2 1 1 128 126 127
157 2 2 1 1 128 129 126
158 2 2 1 1 130 129 128
159 2 2 1 1 130 131 129
160 2 2 1 1 132 131 130
161 2 2 1 1 132 133 131
162 2 2 1 1 134 133 132
163 2 2 1 1 134 135 133
164 2 2 1 1 136 135 134
165 2 2 1 1 136 137 135
166 2 2 1 1 138 137 136
167 2 2 1 1 138 139 137
168 2 2 1 1 140 139 138
169 2 2 1 1 140 141 139
170 2 2 1 1 142 141 140
171 2 2 1 1 142 90 141
172 2 2 1 1 92 90 142
173 2 2 1 1 92 91 90
174 2 2 1 1 115 117 116
175 2 2 1 1 113 143 115
176 2 2 1 1 117 143 119
177 2 2 1 1 115 143 117
178 2 2 1 1 144 145 100
179 2 2 1 1 100 145 101
180 2 2 1 1 144 146 134
181 2 2 1 1 134 146 136
182 2 2 1 1 147 134 132
183 2 2 1 1 144 134 147
184 2 2 1 1 147 145 144
185 2 2 1 1 148 146 144
186 2 2 1 1 148 100 99
187 2 2 1 1 148 144 100
188 2 2 1 1 149 145 147
189 2 2 1 1 149 101 145
190 2 2 1 1 102 101 149
191 2 2 1 1 136 150 138
192 2 2 1 1 146 150 136
193 2 2 1 1 148 150 146
194 2 2 1 1 151 149 147
195 2 2 1 1 151 132 130
196 2 2 1 1 151 147 132
197 2 2 1 1 152 99 98
198 2 2 1 1 148 99 152
199 2 2 1 1 152 150 148
200 2 2 1 1 151 153 149
201 2 2 1 1 102 153 103
202 2 2 1 1 149 153 102
203 2 2 1 1 152 154 150
204 2 2 1 1 154 98 97
205 2 2 1 1 152 98 154
206 2 2 1 1 155 153 151
207 2 2 1 1 155 130 128
208 2 2 1 1 155 151 130
209 2 2 1 1 154 156 150
210 2 2 1 1 138 156 140
211 2 2 1 1 150 156 138
212 2 2 1 1 155 157 153
213 2 2 1 1 103 157 104
214 2 2 1 1 153 157 103
215 2 2 1 1 158 93 92
216 2 2 1 1 158 140 156
217 2 2 1 1 158 142 140
218 2 2 1 1 158 92 142
219 2 2 1 1 159 96 95
220 2 2 1 1 158 159 93
221 2 2 1 1 159 94 93
222 2 2 1 1 159 95 94
223 2 2 1 1 159 160 96
224 2 2 1 1 158 160 159
225 2 2 1 1 156 160 158
226 2 2 1 1 154 160 156
227 2 2 1 1 97 160 154
228 2 2 1 1 96 160 97
229 2 2 1 1 104 157 105
230 2 2 1 1 105 157 161
231 2 2 1 1 162 105 161
232 2 2 1 1 162 106 105
233 2 2 1 1 163 106 162
234 2 2 1 1 163 107 106
235 2 2 1 1 164 107 163
236 2 2 1 1 164 108 107
237 2 2 1 1 109 108 110
238 2 2 1 1 110 108 164
239 2 2 1 1 165 110 164
240 2 2 1 1 165 111 110
241 2 2 1 1 166 111 165
242 2 2 1 1 166 113 111
243 2 2 1 1 167 113 166
244 2 2 1 1 167 143 113
245 2 2 1 1 167 119 143
246 2 2 1 1 167 121 119
247 2 2 1 1 168 121 167
248 2 2 1 1 168 123 121
249 2 2 1 1 169 123 168
250 2 2 1 1 169 125 123
251 2 2 1 1 170 125 169
252 2 2 1 1 170 127 125
253 2 2 1 1 171 127 170
254 2 2 1 1 171 128 127
255 2 2 1 1 171 155 128
256 2 2 1 1 161 155 171
257 2 2 1 1 161 157 155
258 2 2 1 1 170 161 171
259 2 2 1 1 165 172 166
260 2 2 1 1 172 169 168
261 2 2 1 1 172 167 166
262 2 2 1 1 172 168 167
263 2 2 1 1 169 173 170
264 2 2 1 1 173 163 162
265 2 2 1 1 172 174 169
266 2 2 1 1 169 174 173
267 2 2 1 1 174 163 173
268 2 2 1 1 161 173 162
269 2 2 1 1 170 173 161
270 2 2 1 1 175 172 165
271 2 2 1 1 175 174 172
272 2 2 1 1 163 174 175
273 2 2 1 1 175 164 163
274 2 2 1 1 175 165 164
275 2 2 2 2 19 85 176
276 2 2 2 2 19 176 37
277 2 2 2 2 85 112 176
278 2 2 2 2 112 177 176
279 2 2 2 2 112 114 178
280 2 2 2 2 112 178 177
281 2 2 2 2 114 86 178
282 2 2 2 2 86 179 178
283 2 2 2 2 86 81 180
284 2 2 2 2 86 180 179
285 2 2 2 2 81 76 180
286 2 2 2 2 76 181 180
287 2 2 2 2 76 78 182
288 2 2 2 2 76 182 181
289 2 2 2 2 37 176 38
290 2 2 2 2 176 183 38
291 2 2 2 2 176 177 184
292 2 2 2 2 176 184 183
293 2 2 2 2 177 178 184
294 2 2 2 2 178 185 184
295 2 2 2 2 178 179 186
296 2 2 2 2 178 186 185
297 2 2 2 2 179 180 186
298 2 2 2 2 180 187 186
299 2 2 2 2 180 181 188
300 2 2 2 2 180 188 187
301 2 2 2 2 181 182 188
302 2 2 2 2 182 189 188
303 2 2 2 2 38 183 190
304 2 2 2 2 38 190 39
305 2 2 2 2 183 184 190
306 2 2 2 2 184 191 190
307 2 2 2 2 184 185 192
308 2 2 2 2 184 192 191
309 2 2 2 2 185 186 192
310 2 2 2 2 186 193 192
311 2 2 2 2 186 187 194
312 2 2 2 2 186 194 193
313 2 2 2 2 187 188 194
314 2 2 2 2 188 195 194
315 2 2 2 2 188 189 196
316 2 2 2 2 188 196 195
317 2 2 2 2 39 190 40
318 2 2 2 2 190 197 40
319 2 2 2 2 190 191 198
320 2 2 2 2 190 198 197
321 2 2 2 2 191 192 198
322 2 2 2 2 192 199 198
323 2 2 2 2 192 193 200
324 2 2 2 2 192 200 199
325 2 2 2 2 193 194 200
326 2 2 2 2 194 201 200
327 2 2 2 2 194 195 202
328 2 2 2 2 194 202 201
329 2 2 2 2 195 196 202
330 2 2 2 2 196 203 202
331 2 2 2 2 40 197 204
332 2 2 2 2 40 204 41
333 2 2 2 2 197 198 204
334 2 2 2 2 198 205 204
335 2 2 2 2 198 199 206
336 2 2 2 2 198 206 205
337 2 2 2 2 199 200 206
338 2 2 2 2 200 207 206
339 2 2 2 2 200 201 208
340 2 2 2 2 200 208 207
341 2 2 2 2 201 202 208
342 2 2 2 2 202 209 208
343 2 2 2 2 202 203 210
344 2 2 2 2 202 210 209
345 2 2 2 2 41 204 42
346 2 2 2 2 204 211 42
347 2 2 2 2 204 205 212
348 2 2 2 2 204 212 211
349 2 2 2 2 205 206 212
350 2 2 2 2 206 213 212
351 2 2 2 2 206 207 214
352 2 2 2 2 206 214 213
353 2 2 2 2 207 208 214
354 2 2 2 2 208 215 214
355 2 2 2 2 208 209 216
356 2 2 2 2 208 216 215
357 2 2 2 2 209 210 216
358 2 2 2 2 210 217 216
359 2 2 2 2 42 211 218
360 2 2 2 2 42 218 43
361 2 2 2 2 211 212 218
362 2 2 2 2 212 219 218
363 2 2 2 2 212 213 220
364 2 2 2 2 212 220 219
365 2 2 2 2 213 214 220
366 2 2 2 2 214 221 220
367 2 2 2 2 214 215 222
368 2 2 2 2 214 222 221
369 2 2 2 2 215 216 222
370 2 2 2 2 216 223 222
371 2 2 2 2 216 217 224
372 2 2 2 2 216 224 223
373 2 2 2 2 43 218 44
374 2 2 2 2 218 225 44
375 2 2 2 2 218 219 226
376 2 2 2 2 218 226 225
377 2 2 2 2 219 220 226
378 2 2 2 2 220 227 226
379 2 2 2 2 220 221 228
380 2 2 2 2 220 228 227
381 2 2 2 2 221 222 228
382 2 2 2 2 222 229 228
383 2 2 2 2 222 223 230
384 2 2 2 2 222 230 229
385 2 2 2 2 223 224 230
386 2 2 2 2 224 231 230
387 2 2 2 2 44 225 232
388 2 2 2 2 44 232 45
389 2 2 2 2 225 226 232
390 2 2 2 2 226 233 232
391 2 2 2 2 226 227 234
392 2 2 2 2 226 234 233
393 2 2 2 2 227 228 234
394 2 2 2 2 228 235 234
395 2 2 2 2 228 229 236
396 2 2 2 2 228 236 235
397 2 2 2 2 229 230 236
398 2 2 2 2 230 237 236
399 2 2 2 2 230 231 238
400 2 2 2 2 230 238 237
401 2 2 2 2 45 232 46
402 2 2 2 2 232 239 46
403 2 2 2 2 232 233 240
404 2 2 2 2 232 240 239
405 2 2 2 2 233 234 240
406 2 2 2 2 234 241 240
407 2 2 2 2 234 235 242
408 2 2 2 2 234 242 241
409 2 2 2 2 235 236 242
410 2 2 2 2 236 243 242
411 2 2 2 2 236 237 244
412 2 2 2 2 236 244 243
413 2 2 2 2 237 238 244
414 2 2 2 2 238 245 244
415 2 2 2 2 46 239 246
416 2 2 2 2 46 246 47
417 2 2 2 2 239 240 246
418 2 2 2 2 240 247 246
419 2 2 2 2 240 241 248
420 2 2 2 2 240 248 247
421 2 2 2 2 241 242 248
422 2 2 2 2 242 249 248
423 2 2 2 2 242 243 250
424 2 2 2 2 242 250 249
425 2 2 2 2 243 244 250
426 2 2 2 2 244 251 250
427 2 2 2 2 244 245 252
428 2 2 2 2 244 252 251
429 2 2 2 2 47 246 48
430 2 2 2 2 246 253 48
431 2 2 2 2 246 247 254
432 2 2 2 2 246 254 253
433 2 2 2 2 247 248 254
434 2 2 2 2 248 255 254
435 2 2 2 2 248 249 256
436 2 2 2 2 248 256 255
437 2 2 2 2 249 250 256
438 2 2 2 2 250 257 256
439 2 2 2 2 250 251 258
440 2 2 2 2 250 258 257
441 2 2 2 2 251 252 258
442 2 2 2 2 252 259 258
443 2 2 2 2 48 253 260
444 2 2 2 2 48 260 49
445 2 2 2 2 253 254 260
446 2 2 2 2 254 261 260
447 2 2 2 2 254 255 262
448 2 2 2 2 254 262 261
449 2 2 2 2 255 256 262
450 2 2 2 2 256 263 262
451 2 2 2 2 256 257 264
452 2 2 2 2 256 264 263
453 2 2 2 2 257 258 264
454 2 2 2 2 258 265 264
455 2 2 2 2 258 259 266
456 2 2 2 2 258 266 265
457 2 2 2 2 49 260 50
458 2 2 2 2 260 267 50
459 2 2 2 2 260 261 268
460 2 2 2 2 260 268 267
461 2 2 2 2 261 262 268
462 2 2 2 2 262 269 268
463 2 2 2 2 262 263 270
464 2 2 2 2 262 270 269
465 2 2 2 2 263 264 270
466 2 2 2 2 264 271 270
467 2 2 2 2 264 265 272
468 2 2 2 2 264 272 271
469 2 2 2 2 265 266 272
470 2 2 2 2 266 273 272
471 2 2 2 2 50 267 274
472 2 2 2 2 50 274 51
473 2 2 2 2 267 268 274
474 2 2 2 2 268 275 274
475 2 2 2 2 268 269 276
476 2 2 2 2 268 276 275
477 2 2 2 2 269 270 276
478 2 2 2 2 270 277 276
479 2 2 2 2 270 271 278
480 2 2 2 2 270 278 277
481 2 2 2 2 271 272 278
482 2 2 2 2 272 279 278
483 2 2 2 2 272 273 280
484 2 2 2 2 272 280 279
485 2 2 2 2 51 274 52
486 2 2 2 2 274 281 52
487 2 2 2 2 274 275 282
488 2 2 2 2 274 282 281
489 2 2 2 2 275 276 282
490 2 2 2 2 276 283 282
491 2 2 2 2 276 277 284
492 2 2 2 2 276 284 283
493 2 2 2 2 277 278 284
494 2 2 2 2 278 285 284
495 2 2 2 2 278 279 286
496 2 2 2 2 278 286 285
497 2 2 2 2 279 280 286
498 2 2 2 2 280 287 286
499 2 2 2 2 52 281 288
500 2 2 2 2 52 288 53
501 2 2 2 2 281 282 288
502 2 2 2 2 282 289 288
503 2 2 2 2 282 283 290
504 2 2 2 2 282 290 289
505 2 2 2 2 283 284 290
506 2 2 2 2 284 291 290
507 2 2 2 2 284 285 292
508 2 2 2 2 284 292 291
509 2 2 2 2 285 286 292
510 2 2 2 2 286 293 292
511 2 2 2 2 286 287 294
512 2 2 2 2 286 294 293
513 2 2 2 2 53 288 54
514 2 2 2 2 288 295 54
515 2 2 2 2 288 289 296
516 2 2 2 2 288 296 295
517 2 2 2 2 289 290 296
518 2 2 2 2 290 297 296
519 2 2 2 2 290 291 298
520 2 2 2 2 290 298 297
521 2 2 2 2 291 292 298
522 2 2 2 2 292 299 298
523 2 2 2 2 292 293 300
524 2 2 2 2 292 300 299
525 2 2 2 2 293 294 300
526 2 2 2 2 294 301 300
527 2 2 2 2 54 295 302
528 2 2 2 2 54 302 55
529 2 2 2 2 295 296 302
530 2 2 2 2 296 303 302
531 2 2 2 2 296 297 304
532 2 2 2 2 296 304 303
533 2 2 2 2 297 298 304
534 2 2 2 2 298 305 304
535 2 2 2 2 298 299 306
536 2 2 2 2 298 306 305
537 2 2 2 2 299 300 306
538 2 2 2 2 300 307 306
539 2 2 2 2 300 301 308
540 2 2 2 2 300 308 307
541 2 2 2 2 55 302 56
542 2 2 2 2 302 309 56
543 2 2 2 2 302 303 310
544 2 2 2 2 302 310 309
545 2 2 2 2 303 304 310
546 2 2 2 2 304 311 310
547 2 2 2 2 304 305 312
548 2 2 2 2 304 312 311
549 2 2 2 2 305 306 312
550 2 2 2 2 306 313 312
551 2 2 2 2 306 307 314
552 2 2 2 2 306 314 313
553 2 2 2 2 307 308 314
554 2 2 2 2 308 315 314
555 2 2 2 2 314 315 316
556 2 2 2 2 314 316 317
557 2 2 2 2 9 10 57
558 2 2 2 2 318 11 12
559 2 2 2 2 313 314 319
560 2 2 2 2 314 317 319
561 2 2 2 2 319 317 320
562 2 2 2 2 58 56 321
563 2 2 2 2 56 309 321
564 2 2 2 2 312 313 322
565 2 2 2 2 313 323 322
566 2 2 2 2 322 323 324
567 2 2 2 2 320 323 313
568 2 2 2 2 319 320 313
569 2 2 2 2 325 318 326
570 2 2 2 2 12 13 326
571 2 2 2 2 318 12 326
572 2 2 2 2 327 326 13
573 2 2 2 2 327 13 14
574 2 2 2 2 328 327 14
575 2 2 2 2 328 14 15
576 2 2 2 2 329 328 15
577 2 2 2 2 329 15 16
578 2 2 2 2 329 16 9
579 2 2 2 2 330 329 9
580 2 2 2 2 330 9 57
581 2 2 2 2 330 57 59
582 2 2 2 2 331 330 59
583 2 2 2 2 331 59 60
584 2 2 2 2 332 331 60
585 2 2 2 2 332 60 61
586 2 2 2 2 333 332 61
587 2 2 2 2 333 61 62
588 2 2 2 2 333 62 63
589 2 2 2 2 334 333 63
590 2 2 2 2 334 63 64
591 2 2 2 2 335 334 64
592 2 2 2 2 335 64 65
593 2 2 2 2 336 335 65
594 2 2 2 2 336 65 66
595 2 2 2 2 337 336 66
596 2 2 2 2 337 66 67
597 2 2 2 2 338 337 67
598 2 2 2 2 338 67 68
599 2 2 2 2 338 68 69
600 2 2 2 2 339 338 69
601 2 2 2 2 339 69 70
602 2 2 2 2 340 339 70
603 2 2 2 2 340 70 71
604 2 2 2 2 341 340 71
605 2 2 2 2 341 71 72
606 2 2 2 2 342 341 72
607 2 2 2 2 342 72 73
608 2 2 2 2 342 73 74
609 2 2 2 2 343 342 74
610 2 2 2 2 343 74 75
611 2 2 2 2 344 343 75
612 2 2 2 2 344 75 58
613 2 2 2 2 344 58 321
614 2 2 2 2 345 344 321
615 2 2 2 2 345 321 309
616 2 2 2 2 346 345 309
617 2 2 2 2 346 309 310
618 2 2 2 2 347 346 310
619 2 2 2 2 347 310 311
620 2 2 2 2 348 347 311
621 2 2 2 2 348 311 312
622 2 2 2 2 349 348 312
623 2 2 2 2 349 312 322
624 2 2 2 2 349 322 324
625 2 2 2 2 350 349 324
626 2 2 2 2 350 324 351
627 2 2 2 2 352 350 351
628 2 2 2 2 352 351 353
629 2 2 2 2 354 352 353
630 2 2 2 2 354 353 355
631 2 2 2 2 356 354 355
632 2 2 2 2 356 355 357
633 2 2 2 2 358 356 357
634 2 2 2 2 358 357 359
635 2 2 2 2 360 358 359
636 2 2 2 2 361 360 359
637 2 2 2 2 361 359 362
638 2 2 2 2 363 361 362
639 2 2 2 2 363 362 364
640 2 2 2 2 365 363 364
641 2 2 2 2 365 364 366
642 2 2 2 2 367 365 366
643 2 2 2 2 367 366 368
644 2 2 2 2 369 367 368
645 2 2 2 2 369 368 370
646 2 2 2 2 371 369 370
647 2 2 2 2 371 370 372
648 2 2 2 2 373 371 372
649 2 2 2 2 373 372 374
650 2 2 2 2 375 373 374
651 2 2 2 2 375 374 325
652 2 2 2 2 327 375 325
653 2 2 2 2 327 325 326
654 2 2 2 2 348 349 350
655 2 2 2 2 347 348 376
656 2 2 2 2 350 352 376
657 2 2 2 2 348 350 376
658 2 2 2 2 377 335 378
659 2 2 2 2 335 336 378
660 2 2 2 2 377 367 379
661 2 2 2 2 367 369 379
662 2 2 2 2 380 365 367
663 2 2 2 2 377 380 367
664 2 2 2 2 380 377 378
665 2 2 2 2 381 377 379
666 2 2 2 2 381 334 335
667 2 2 2 2 381 335 377
668 2 2 2 2 382 380 378
669 2 2 2 2 382 378 336
670 2 2 2 2 337 382 336
671 2 2 2 2 369 371 383
672 2 2 2 2 379 369 383
673 2 2 2 2 381 379 383
674 2 2 2 2 384 380 382
675 2 2 2 2 384 363 365
676 2 2 2 2 384 365 380
677 2 2 2 2 385 333 334
678 2 2 2 2 381 385 334
679 2 2 2 2 385 381 383
680 2 2 2 2 384 382 386
681 2 2 2 2 337 338 386
682 2 2 2 2 382 337 386
683 2 2 2 2 385 383 387
684 2 2 2 2 387 332 333
685 2 2 2 2 385 387 333
686 2 2 2 2 388 384 386
687 2 2 2 2 388 361 363
688 2 2 2 2 388 363 384
689 2 2 2 2 387 383 389
690 2 2 2 2 371 373 389
691 2 2 2 2 383 371 389
692 2 2 2 2 388 386 390
693 2 2 2 2 338 339 390
694 2 2 2 2 386 338 390
695 2 2 2 2 391 327 328
696 2 2 2 2 391 389 373
697 2 2 2 2 391 373 375
698 2 2 2 2 391 375 327
699 2 2 2 2 392 330 331
700 2 2 2 2 391 328 392
701 2 2 2 2 392 328 329
702 2 2 2 2 392 329 330
703 2 2 2 2 392 331 393
704 2 2 2 2 391 392 393
705 2 2 2 2 389 391 393
706 2 2 2 2 387 389 393
707 2 2 2 2 332 387 393
708 2 2 2 2 331 332 393
709 2 2 2 2 339 340 390
710 2 2 2 2 340 394 390
711 2 2 2 2 395 394 340
712 2 2 2 2 395 340 341
713 2 2 2 2 396 395 341
714 2 2 2 2 396 341 342
715 2 2 2 2 397 396 342
716 2 2 2 2 397 342 343
717 2 2 2 2 344 345 343
718 2 2 2 2 345 397 343
719 2 2 2 2 398 397 345
720 2 2 2 2 398 345 346
721 2 2 2 2 399 398 346
722 2 2 2 2 399 346 347
723 2 2 2 2 400 399 347
724 2 2 2 2 400 347 376
725 2 2 2 2 400 376 352
726 2 2 2 2 400 352 354
727 2 2 2 2 401 400 354
728 2 2 2 2 401 354 356
729 2 2 2 2 402 401 356
730 2 2 2 2 402 356 358
731 2 2 2 2 403 402 358
732 2 2 2 2 403 358 360
733 2 2 2 2 404 403 360
734 2 2 2 2 404 360 361
735 2 2 2 2 404 361 388
736 2 2 2 2 394 404 388
737 2 2 2 2 394 388 390
738 2 2 2 2 403 404 394
739 2 2 2 2 398 399 405
740 2 2 2 2 405 401 402
741 2 2 2 2 405 399 400
742 2 2 2 2 405 400 401
743 2 2 2 2 402 403 406
744 2 2 2 2 406 395 396
745 2 2 2 2 405 402 407
746 2 2 2 2 402 406 407
747 2 2 2 2 407 406 396
748 2 2 2 2 394 395 406
749 2 2 2 2 403 394 406
750 2 2 2 2 408 398 405
751 2 2 2 2 408 405 407
752 2 2 2 2 396 408 407
753 2 2 2 2 408 396 397
754 2 2 2 2 408 397 398
$EndElements
