// File automatically generated by Merope 
//SetFactory("OpenCASCADE");
// Ask OpenCASCADE to compute more accurate bounding boxes of entities using the 
// STL mesh: 
//Geometry.OCCBoundsUseStl = 1;
meshSize = 0;  // WARNING : Default value. Correct value is at the end of the script.

 // BEGIN  Points
Point(650)={-0.79285272080146096,4.1622160520620621,3.2776376162746002,meshSize};
Point(724)={4.2071472791985389,4.1622160520620621,3.2776376162746002,meshSize};
Point(827)={6.1070071745075829,2.6511147370479677,3.9343749689383993,meshSize};
Point(652)={1.9324723887733275,4.9408481490073868,3.9885711603240943,meshSize};
Point(823)={6.0729938357943771,2.7105811158635151,4.0143110848748433,meshSize};
Point(739)={2.4115472127278559,5.1603935069322855,3.9017640563865856,meshSize};
Point(565)={3.8072490868370745,-0.93738458323507168,2.3513794832785688,meshSize};
Point(418)={3.2305216610471321,0.026094878087900231,4.6792661450395725,meshSize};
Point(720)={3.2305216610471321,5.0260948780879007,4.6792661450395716,meshSize};
Point(556)={3.6890996809587797,-0.23792458604464406,4.4897728685489433,meshSize};
Point(654)={-1.3109003190412198,4.7620754139553556,4.4897728685489433,meshSize};
Point(746)={3.6890996809587797,4.7620754139553565,4.4897728685489442,meshSize};
Point(648)={-0.81993092377882959,3.4789255941852404,4.2570063602170416,meshSize};
Point(747)={4.1800690762211703,3.4789255941852399,4.2570063602170416,meshSize};
Point(417)={2.0229736990664628,-0.50644434821218498,4.8602012853706222,meshSize};
Point(651)={2.022973699066462,4.4935556517878146,4.8602012853706222,meshSize};
Point(419)={2.8695813116628606,-0.17862350884157818,4.8160898557388494,meshSize};
Point(743)={2.8695813116628601,4.8213764911584214,4.8160898557388503,meshSize};
Point(568)={3.5234928189943329,-0.83683802227456761,2.2607409084168304,meshSize};
Point(489)={2.3692867447034085,-0.11378601911486985,2.9313871107202711,meshSize};
Point(265)={1.6709039173211599,6.2942031352097274,1.4625541994326883,meshSize};
Point(427)={1.6709039173211608,1.2942031352097272,6.4625541994326881,meshSize};
Point(422)={1.3247411046836994,2.9326177576276127,4.5595020510448423,meshSize};
Point(423)={2.3247734362943735,2.7930013234751159,4.9712486119842421,meshSize};
Point(258)={2.747187318973737,6.656339847928999,1.8291104603104182,meshSize};
Point(742)={1.9806547579655229,3.8770596466423433,5.1399116625218086,meshSize};
Point(657)={1.8752656715763756,3.9222313418254315,5.1056434897676342,meshSize};
Point(841)={6.2184274575725631,2.7893513558923546,3.1595450745571334,meshSize};
Point(842)={6.0503372451810034,3.4413833685053654,3.0029113432698211,meshSize};
Point(192)={1.0452763517957089,1.2115686834392645,1.3931619273746778,meshSize};
Point(409)={1.0452763517957084,1.2115686834392649,6.3931619273746776,meshSize};
Point(492)={1.4916565870055296,-0.59833900033790921,2.7742861934644689,meshSize};
Point(426)={1.2378931349672833,1.02853189675294,6.4049720504190679,meshSize};
Point(494)={1.2378931349672828,1.0285318967529398,1.4049720504190677,meshSize};
Point(344)={3.9767871860662338,4.1109628972931134,2.303584730068871,meshSize};
Point(554)={3.9767871860662338,-0.8890371027068863,2.303584730068871,meshSize};
Point(573)={4.5271374305988097,-0.74282311892187136,2.9205629177493257,meshSize};
Point(818)={4.5271374305988088,4.2571768810781281,2.9205629177493262,meshSize};
Point(272)={3.8380326309265151,4.6928734530903231,1.7583226788984745,meshSize};
Point(563)={3.8380326309265151,-0.30712654690967744,1.7583226788984752,meshSize};
Point(317)={4.9411149892344213,3.2516670567792065,1.542657510476519,meshSize};
Point(490)={1.3811826445666595,-0.62295957111388223,2.8941222207965192,meshSize};
Point(822)={5.9053815348673915,3.6344836042709074,2.8327745243256435,meshSize};
Point(485)={0.13763324141398581,0.3584982797075742,3.0134971315086032,meshSize};
Point(572)={5.1376332414139858,0.35849827970757436,3.0134971315086032,meshSize};
Point(414)={1.281760443595767,-0.13473839921086062,5.4375027026509706,meshSize};
Point(646)={1.2817604435957666,4.8652616007891387,5.4375027026509706,meshSize};
Point(486)={0.00026760762204602884,1.2114640236752634,2.2993116693360625,meshSize};
Point(571)={5.000267607622046,1.2114640236752634,2.2993116693360625,meshSize};
Point(644)={1.3590010575629377,4.1245964562296535,5.5191634886901335,meshSize};
Point(326)={5.2357246437403413,3.5148850124491022,0.55903987927702381,meshSize};
Point(649)={0.23572464374034208,3.5148850124491027,5.5590398792770239,meshSize};
Point(113)={-0.22257764084844678,6.2979170455847253,1.9577515261832035,meshSize};
Point(275)={3.0611397503110562,6.7462488979929551,1.3195624429598967,meshSize};
Point(407)={3.0611397503110562,1.7462488979929551,6.3195624429598976,meshSize};
Point(274)={3.1194965932568701,6.7689764887828661,1.4606543193351578,meshSize};
Point(106)={0.62686097083516124,6.3768024751050341,1.5945167878616306,meshSize};
Point(173)={0.6268609708351609,1.3768024751050336,1.5945167878616309,meshSize};
Point(189)={-0.17953634497907012,2.6397678478636575,1.3276738872902951,meshSize};
Point(267)={3.3294634329163708,5.1680096594009912,-0.070028462820016735,meshSize};
Point(405)={3.3294634329163708,0.168009659400991,4.9299715371799842,meshSize};
Point(115)={-1.0980553692858921,5.1315187865536886,0.99981001393779123,meshSize};
Point(273)={3.9019446307141079,5.1315187865536878,0.99981001393779168,meshSize};
Point(408)={0.55220923286283674,1.0334982531167842,4.1248516957881698,meshSize};
Point(642)={0.55220923286283674,6.0334982531167842,4.1248516957881698,meshSize};
Point(498)={0.040653329890879775,1.045343902285361,3.7238189172763194,meshSize};
Point(567)={5.0406533298908798,1.0453439022853614,3.723818917276319,meshSize};
Point(639)={0.040653329890879553,6.0453439022853619,3.7238189172763194,meshSize};
Point(111)={0.89713471829350422,6.2586005979830981,1.3029931382874702,meshSize};
Point(191)={0.89713471829350411,1.2586005979830976,1.30299313828747,meshSize};
Point(402)={0.89713471829350377,1.2586005979830981,6.3029931382874693,meshSize};
Point(403)={3.0643289131552827,1.8059200728564193,6.2543153074649283,meshSize};
Point(425)={0.73421285057974761,2.6405811528750629,4.3494305069150538,meshSize};
Point(816)={5.7342128505797483,2.6405811528750629,4.3494305069150538,meshSize};
Point(175)={0.78677222658719215,2.7267263251233098,-0.35087948469091046,meshSize};
Point(404)={0.78677222658719193,2.7267263251233098,4.6491205153090895,meshSize};
Point(181)={0.18871608983308708,3.0578454681777769,0.20733608322717778,meshSize};
Point(663)={0.18871608983308677,3.0578454681777774,5.2073360832271778,meshSize};
Point(664)={-0.27069960576686436,2.9672915972375238,4.5923901365752196,meshSize};
Point(834)={4.7293003942331344,2.9672915972375242,4.5923901365752196,meshSize};
Point(718)={3.6817290222852099,2.4963590785164405,4.4250055429587389,meshSize};
Point(574)={3.2898040822858827,1.9684192770203341,4.1800475584687256,meshSize};
Point(190)={0.30024521809892857,1.5953279556174085,1.8523105439141894,meshSize};
Point(424)={0.63365203874000176,2.0411562302509472,4.0460762592221,meshSize};
Point(817)={5.633652038740002,2.0411562302509489,4.0460762592221009,meshSize};
Point(114)={-1.0960244301312732,5.4374504469998381,1.3743418382738801,meshSize};
Point(266)={3.9039755698687273,5.4374504469998373,1.3743418382738803,meshSize};
Point(327)={3.7060039685560802,4.9838349373953772,-0.3467304532972133,meshSize};
Point(561)={3.7060039685560806,-0.016165062604623026,4.653269546702786,meshSize};
Point(655)={-1.2939960314439194,4.9838349373953772,4.653269546702786,meshSize};
Point(410)={3.2876431092209577,1.967521640512937,4.1812818882662164,meshSize};
Point(112)={0.18147019208685078,6.4425338257912408,1.9164665214867165,meshSize};
Point(488)={0.18147019208685045,1.4425338257912408,1.916466521486716,meshSize};
Point(339)={3.3514179955180277,5.131888908384572,-0.24151875371603282,meshSize};
Point(412)={3.3514179955180272,0.13188890838457112,4.7584812462839672,meshSize};
Point(487)={0.011207649342630965,1.2353826009459556,3.6739838631378161,meshSize};
Point(570)={5.011207649342631,1.2353826009459556,3.6739838631378161,meshSize};
Point(421)={3.2213888696439117,2.2362842421879527,4.5995398096553997,meshSize};
Point(102)={0.67823180649120007,5.3989366338780949,0.36603975805286781,meshSize};
Point(415)={0.67823180649119985,0.39893663387809508,5.3660397580528683,meshSize};
Point(653)={0.67823180649119952,5.398936633878094,5.3660397580528683,meshSize};
Point(101)={-0.61215561208824598,4.8534008484300255,0.39514438731931989,meshSize};
Point(325)={4.3878443879117537,4.8534008484300255,0.39514438731931995,meshSize};
Point(656)={-0.61215561208824598,4.8534008484300264,5.3951443873193199,meshSize};
Point(1)={4.3878443879117537,-0.14659915156997472,0.39514438731931961,meshSize};
Point(2)={5.6782318064912003,0.39893663387809486,0.36603975805286743,meshSize};
Point(3)={3.2213888696439126,2.2362842421879519,-0.40046019034460217,meshSize};
Point(4)={5.011207649342631,1.2353826009459552,-1.3260161368621832,meshSize};
Point(5)={3.3514179955180277,0.13188890838457157,-0.24151875371603287,meshSize};
Point(6)={5.1814701920868504,1.442533825791241,1.9164665214867165,meshSize};
Point(7)={3.2876431092209586,1.9675216405129374,-0.81871811173378384,meshSize};
Point(9)={3.7060039685560806,-0.01616506260462347,-0.34673045329721347,meshSize};
Point(10)={3.9039755698687264,0.43745044699983882,1.3743418382738803,meshSize};
Point(11)={5.633652038740002,2.0411562302509481,-0.95392374077789976,meshSize};
Point(12)={5.3002452180989286,1.5953279556174089,1.8523105439141894,meshSize};
Point(13)={3.2898040822858823,1.9684192770203346,-0.81995244153127422,meshSize};
Point(14)={3.6817290222852095,2.4963590785164413,-0.57499445704126129,meshSize};
Point(15)={4.7293003942331353,2.9672915972375247,-0.40760986342478051,meshSize};
Point(16)={5.1887160898330871,3.0578454681777778,0.20733608322717767,meshSize};
Point(17)={5.7867722265871926,2.7267263251233103,-0.35087948469091118,meshSize};
Point(18)={5.7342128505797483,2.6405811528750638,-0.65056949308494572,meshSize};
Point(19)={3.0643289131552827,1.8059200728564184,1.2543153074649294,meshSize};
Point(20)={5.8971347182935041,1.2586005979830981,1.3029931382874693,meshSize};
Point(21)={5.0406533298908798,1.0453439022853619,-1.2761810827236808,meshSize};
Point(22)={5.5522092328628379,1.0334982531167838,-0.87514830421183043,meshSize};
Point(23)={3.9019446307141079,0.13151878655368821,0.99981001393779034,meshSize};
Point(24)={3.3294634329163717,0.16800965940099144,-0.070028462820015458,meshSize};
Point(25)={4.8204636550209301,2.6397678478636584,1.3276738872902949,meshSize};
Point(26)={5.6268609708351605,1.3768024751050343,1.5945167878616311,meshSize};
Point(27)={3.1194965932568706,1.7689764887828665,1.4606543193351578,meshSize};
Point(28)={3.0611397503110567,1.7462488979929556,1.3195624429598969,meshSize};
Point(30)={4.7774223591515526,1.2979170455847253,1.9577515261832035,meshSize};
Point(92)={0.23572464374034194,3.5148850124491018,0.55903987927702392,meshSize};
Point(93)={1.3590010575629381,4.1245964562296535,0.51916348869013307,meshSize};
Point(94)={0.00026760762204641741,6.2114640236752638,2.2993116693360625,meshSize};
Point(95)={1.2817604435957672,4.8652616007891387,0.43750270265097013,meshSize};
Point(96)={0.13763324141398592,5.3584982797075744,3.0134971315086032,meshSize};
Point(97)={0.90538153486739259,3.6344836042709074,2.832774524325643,meshSize};
Point(99)={1.3811826445666597,4.3770404288861187,2.8941222207965192,meshSize};
Point(100)={-0.058885010765578061,3.2516670567792061,1.5426575104765181,meshSize};
Point(103)={-1.1619673690734849,4.6928734530903231,1.7583226788984752,meshSize};
Point(104)={-0.47286256940119087,4.257176881078129,2.9205629177493257,meshSize};
Point(105)={-1.0232128139337662,4.1109628972931134,2.303584730068871,meshSize};
Point(107)={1.2378931349672833,6.0285318967529395,1.4049720504190679,meshSize};
Point(109)={1.4916565870055303,4.4016609996620915,2.7742861934644685,meshSize};
Point(110)={1.0452763517957089,6.211568683439264,1.393161927374678,meshSize};
Point(167)={1.0503372451810034,3.4413833685053659,3.0029113432698207,meshSize};
Point(171)={1.2184274575725629,2.7893513558923546,3.1595450745571334,meshSize};
Point(172)={1.8752656715763756,3.9222313418254311,0.10564348976763416,meshSize};
Point(179)={1.9806547579655227,3.8770596466423424,0.13991166252180864,meshSize};
Point(184)={2.7471873189737375,1.656339847928999,1.8291104603104178,meshSize};
Point(187)={2.3247734362943735,2.7930013234751159,-0.028751388015757717,meshSize};
Point(188)={1.3247411046836988,2.9326177576276127,-0.44049794895515748,meshSize};
Point(193)={1.6709039173211606,1.2942031352097265,1.4625541994326881,meshSize};
Point(259)={2.3692867447034085,4.8862139808851301,2.9313871107202711,meshSize};
Point(261)={3.5234928189943329,4.1631619777254318,2.2607409084168308,meshSize};
Point(269)={2.8695813116628619,4.8213764911584231,-0.1839101442611506,meshSize};
Point(271)={2.022973699066462,4.4935556517878155,-0.13979871462937754,meshSize};
Point(320)={4.1800690762211703,3.4789255941852391,-0.7429936397829584,meshSize};
Point(333)={3.6890996809587793,4.7620754139553565,-0.5102271314510558,meshSize};
Point(340)={3.2305216610471321,5.0260948780879007,-0.32073385496042794,meshSize};
Point(343)={3.8072490868370745,4.0626154167649275,2.3513794832785693,meshSize};
Point(406)={2.4115472127278554,0.16039350693228571,3.9017640563865852,meshSize};
Point(413)={1.0729938357943769,2.7105811158635147,4.0143110848748433,meshSize};
Point(416)={1.9324723887733279,-0.059151850992612554,3.9885711603240943,meshSize};
Point(420)={1.1070071745075829,2.6511147370479673,3.9343749689383993,meshSize};
Point(558)={4.2071472791985389,-0.83778394793793776,3.2776376162746006,meshSize};
Point(887)={2.6938757024277731,3.5894602181954296,3.5452305227580792,meshSize};
Point(888)={2.6938757024277731,4.0746497884207615,2.670821533243128,meshSize};
Point(889)={3.4101759602585693,2.9793044543166971,3.2066690299135807,meshSize};
Point(890)={2.6938757024277731,3.1042706479700977,4.4196395122730303,meshSize};
Point(891)={1.9775754445969769,4.1996159820741621,3.8837920156025776,meshSize};
Point(892)={2.7636549214425727,3.6520941566593423,3.5799846641830011,meshSize};
Point(893)={2.7636549214425727,4.1372837268846743,2.7055756746680499,meshSize};
Point(894)={3.4799551792733689,3.0419383927806098,3.2414231713385027,meshSize};
Point(895)={2.7636549214425727,3.1669045864340104,4.4543936536979523,meshSize};
Point(896)={2.0473546636117765,4.2622499205380748,3.9185461570274995,meshSize};
Point(900)={4.6117919054711889,1.3599866476836691,0.28164520767155937,meshSize};
Point(901)={4.6117919054711889,1.8451762179090034,-0.59276378184339018,meshSize};
Point(902)={5.3280921633019833,0.7498308838049359,-0.056916285172941901,meshSize};
Point(903)={4.6117919054711889,0.87479707745833468,1.1560541971865088,meshSize};
Point(904)={3.8954916476403945,1.9701424115624024,0.62020670051606064,meshSize};
Point(905)={4.6815711244859886,1.4226205861475814,0.31639934909648132,meshSize};
Point(906)={4.6815711244859886,1.9078101563729157,-0.55800964041846823,meshSize};
Point(907)={5.397871382316783,0.8124648222688482,-0.022162143748019947,meshSize};
Point(908)={4.6815711244859886,0.93743101592224698,1.1908083386114308,meshSize};
Point(909)={3.9652708666551941,2.0327763500263147,0.65496084194098259,meshSize};
Point(913)={3.5650402808384101,3.5237431251741893,0.74503162804504219,meshSize};
Point(914)={3.5650402808384101,4.0089326953995208,-0.12937736146990886,meshSize};
Point(915)={4.2813405386692063,2.9135873612954568,0.40647013520054365,meshSize};
Point(916)={3.5650402808384101,3.0385535549488574,1.6194406175599934,meshSize};
Point(917)={2.8487400230076139,4.1338988890529222,1.0835931208895406,meshSize};
Point(918)={3.6348194998532097,3.586377063638102,0.77978576946996414,meshSize};
Point(919)={3.6348194998532097,4.0715666338634335,-0.094623220044986911,meshSize};
Point(920)={4.3511197576840059,2.9762212997593696,0.44122427662546559,meshSize};
Point(921)={3.6348194998532097,3.1011874934127701,1.6541947589849153,meshSize};
Point(922)={2.9185192420224135,4.196532827516835,1.1183472623144626,meshSize};
Point(926)={3.5952665916029201,0.58870169946512729,2.9410897450365874,meshSize};
Point(927)={3.5952665916029201,1.0738912696904606,2.0666807555216371,meshSize};
Point(928)={4.3115668494337154,-0.021454064413605534,2.6025282521920876,meshSize};
Point(929)={3.5952665916029201,0.10351212923979414,3.8154987345515377,meshSize};
Point(930)={2.8789663337721247,1.1988574633438602,3.2796512378810871,meshSize};
Point(931)={3.6650458106177197,0.65133563792903981,2.9758438864615093,meshSize};
Point(932)={3.6650458106177197,1.1365252081543731,2.101434896946559,meshSize};
Point(933)={4.381346068448515,0.041179874050306986,2.6372823936170096,meshSize};
Point(934)={3.6650458106177197,0.16614606770370666,3.8502528759764596,meshSize};
Point(935)={2.9487455527869244,1.2614914018077727,3.3144053793060091,meshSize};
Point(939)={4.4373101301609381,2.594811810007136,2.8994832504899044,meshSize};
Point(940)={4.4373101301609381,3.0800013802324679,2.0250742609749532,meshSize};
Point(941)={5.1536103879917343,1.9846560461284035,2.560921757645406,meshSize};
Point(942)={4.4373101301609381,2.1096222397818041,3.7738922400048556,meshSize};
Point(943)={3.7210098723301419,3.2049675738858685,3.2380447433344028,meshSize};
Point(944)={4.5070893491757378,2.6574457484710488,2.9342373919148264,meshSize};
Point(945)={4.5070893491757378,3.1426353186963807,2.0598284023998752,meshSize};
Point(946)={5.223389607006534,2.0472899845923163,2.5956758990703279,meshSize};
Point(947)={4.5070893491757378,2.1722561782457168,3.8086463814297775,meshSize};
Point(948)={3.7907890913449416,3.2676015123497812,3.2727988847593248,meshSize};
Point(952)={0.32505332159272904,4.7431226003608842,1.5984927493989711,meshSize};
Point(953)={0.32505332159272904,5.2283121705862161,0.72408375988402007,meshSize};
Point(954)={1.0413535794235262,4.1329668364821526,1.2599312565544731,meshSize};
Point(955)={0.32505332159272904,4.2579330301355522,2.4729017389139223,meshSize};
Point(956)={-0.39124693623806828,5.3532783642396158,1.9370542422434691,meshSize};
Point(957)={0.39483254060752848,4.8057565388247969,1.6332468908238931,meshSize};
Point(958)={0.39483254060752848,5.2909461090501289,0.75883790130894202,meshSize};
Point(959)={1.1111327984383257,4.1956007749460653,1.2946853979793951,meshSize};
Point(960)={0.39483254060752848,4.320566968599465,2.5076558803388442,meshSize};
Point(961)={-0.32146771722326883,5.4159123027035285,1.9718083836683911,meshSize};
Point(965)={1.4055648948909965,2.7385702557184044,1.3857016990435631,meshSize};
Point(966)={1.4055648948909965,3.2237598259437363,0.51129270952861205,meshSize};
Point(967)={2.1218651527217949,2.1284144918396741,1.0471402061990658,meshSize};
Point(968)={1.4055648948909965,2.2533806854930725,2.2601106885585143,meshSize};
Point(969)={0.68926463706019803,3.3487260195971347,1.7242631918880604,meshSize};
Point(970)={1.4753441139057957,2.8012041941823171,1.4204558404684851,meshSize};
Point(971)={1.4753441139057957,3.2863937644076491,0.546046850953534,meshSize};
Point(972)={2.1916443717365941,2.1910484303035869,1.0818943476239877,meshSize};
Point(973)={1.4753441139057957,2.3160146239569852,2.2948648299834362,meshSize};
Point(974)={0.75904385607499725,3.4113599580610474,1.7590173333129824,meshSize};
Point(978)={1.7721474550869516,1.1602471538897776,4.9601785459679038,meshSize};
Point(979)={1.7721474550869516,1.6454367241151027,4.0857695564529486,meshSize};
Point(980)={2.488447712917746,0.5500913900110409,4.6216170531234093,meshSize};
Point(981)={1.7721474550869516,0.67505758366445257,5.8345875354828589,meshSize};
Point(982)={1.0558471972561572,1.7704029177685143,5.2987400388123982,meshSize};
Point(983)={1.8419266741017508,1.2228810923536899,4.9949326873928248,meshSize};
Point(984)={1.8419266741017508,1.708070662579015,4.1205236978778697,meshSize};
Point(985)={2.5582269319325452,0.6127253284749532,4.6563711945483304,meshSize};
Point(986)={1.8419266741017508,0.73769152212836486,5.86934167690778,meshSize};
Point(987)={1.1256264162709564,1.8330368562324266,5.3334941802373192,meshSize};
Point(991)={0.37922309301104762,4.4895630744407606,4.2474645676373886,meshSize};
Point(992)={0.37922309301104762,4.9747526446660828,3.3730555781224321,meshSize};
Point(993)={1.0955233508418429,3.8794073105620237,3.9089030747928963,meshSize};
Point(994)={0.37922309301104762,4.0043735042154385,5.1218735571523446,meshSize};
Point(995)={-0.3370771648197477,5.0997188383194976,4.5860260604818812,meshSize};
Point(996)={0.44900231202584706,4.5521970129046734,4.2822187090623096,meshSize};
Point(997)={0.44900231202584706,5.0373865831299955,3.4078097195473531,meshSize};
Point(998)={1.1653025698566424,3.9420412490259364,3.9436572162178174,meshSize};
Point(999)={0.44900231202584706,4.0670074426793512,5.1566276985772657,meshSize};
Point(1000)={-0.26729794580494826,5.1623527767834103,4.6207802019068023,meshSize};
Point(1004)={1.4627488655836176,1.0250305960127681,2.9106775912690215,meshSize};
Point(1005)={1.4627488655836176,1.5102201662381025,2.0362686017540721,meshSize};
Point(1006)={2.179049123414412,0.41487483213403498,2.5721160984245204,meshSize};
Point(1007)={1.4627488655836176,0.53984102578743376,3.7850865807839709,meshSize};
Point(1008)={0.74644860775282318,1.6351863598915013,3.2492390841135226,meshSize};
Point(1009)={1.5325280845984173,1.0876645344766804,2.9454317326939434,meshSize};
Point(1010)={1.5325280845984173,1.5728541047020148,2.071022743178994,meshSize};
Point(1011)={2.2488283424292117,0.47750877059794727,2.6068702398494423,meshSize};
Point(1012)={1.5325280845984173,0.60247496425134606,3.8198407222088928,meshSize};
Point(1013)={0.81622782676762284,1.6978202983554136,3.2839932255384445,meshSize};
Point(1017)={2.3241873481441426,4.9360247506271833,1.4571955471514189,meshSize};
Point(1018)={2.3241873481441426,5.4212143208525152,0.58278655763646781,meshSize};
Point(1019)={3.0404876059749388,4.3258689867484508,1.1186340543069204,meshSize};
Point(1020)={2.3241873481441426,4.4508351804018513,2.33160453666637,meshSize};
Point(1021)={1.6078870903133464,5.5461805145059158,1.7957570399959173,meshSize};
Point(1022)={2.3939665671589423,4.998658689091096,1.4919496885763408,meshSize};
Point(1023)={2.3939665671589423,5.4838482593164279,0.61754069906138975,meshSize};
Point(1024)={3.1102668249897385,4.3885029252123635,1.1533881957318424,meshSize};
Point(1025)={2.3939665671589423,4.5134691188657641,2.366358678091292,meshSize};
Point(1026)={1.6776663093281461,5.6088144529698285,1.8305111814208392,meshSize};
// END  Points


 // BEGIN  Edges
Line(2) = {2,22};
Line(3) = {22,21};
Line(4) = {21,9};
Line(5) = {9,1};
Line(6) = {1,2};
Line(7) = {2,20};
Line(8) = {20,17};
Line(9) = {17,18};
Line(10) = {18,11};
Line(11) = {11,22};
Line(14) = {1,23};
Line(15) = {23,10};
Line(16) = {10,30};
Line(17) = {30,6};
Line(18) = {6,26};
Line(19) = {26,20};
Line(21) = {3,19};
Line(22) = {19,28};
Line(23) = {28,24};
Line(24) = {24,5};
Line(25) = {5,7};
Line(26) = {7,3};
Line(27) = {3,14};
Line(28) = {14,15};
Line(29) = {15,16};
Line(30) = {16,25};
Line(36) = {7,13};
Line(37) = {13,14};
Line(39) = {4,11};
Line(41) = {18,15};
Line(44) = {13,4};
Line(45) = {4,21};
Line(52) = {5,9};
Line(56) = {24,23};
Line(63) = {25,12};
Line(64) = {12,6};
Line(66) = {12,26};
Line(71) = {10,27};
Line(74) = {27,28};
Line(84) = {16,17};
Line(93) = {93,95};
Line(94) = {95,102};
Line(95) = {102,101};
Line(96) = {101,92};
Line(97) = {92,93};
Line(100) = {109,107};
Line(101) = {107,95};
Line(104) = {92,100};
Line(105) = {100,97};
Line(109) = {94,113};
Line(110) = {113,112};
Line(111) = {112,94};
Line(112) = {94,96};
Line(113) = {96,104};
Line(114) = {104,105};
Line(115) = {105,103};
Line(116) = {103,114};
Line(117) = {114,113};
Line(120) = {112,106};
Line(121) = {106,110};
Line(122) = {110,107};
Line(124) = {109,99};
Line(125) = {99,96};
Line(129) = {110,111};
Line(130) = {111,102};
Line(135) = {97,104};
Line(138) = {100,105};
Line(147) = {101,115};
Line(148) = {115,103};
Line(153) = {111,106};
Line(157) = {114,115};
Line(172) = {179,187};
Line(173) = {187,19};
Line(179) = {171,167};
Line(185) = {171,190};
Line(186) = {190,189};
Line(187) = {189,100};
Line(189) = {97,167};
Line(195) = {93,172};
Line(196) = {172,179};
Line(199) = {27,184};
Line(216) = {184,193};
Line(217) = {193,192};
Line(218) = {192,173};
Line(219) = {173,190};
Line(221) = {172,188};
Line(222) = {188,187};
Line(227) = {92,181};
Line(228) = {181,175};
Line(229) = {175,188};
Line(232) = {192,191};
Line(233) = {191,173};
Line(235) = {191,175};
Line(237) = {181,189};
Line(243) = {193,28};
Line(258) = {107,265};
Line(259) = {265,258};
Line(260) = {258,259};
Line(261) = {259,109};
Line(268) = {259,261};
Line(273) = {265,275};
Line(274) = {275,274};
Line(275) = {274,258};
Line(277) = {274,266};
Line(278) = {266,272};
Line(279) = {272,261};
Line(289) = {272,273};
Line(290) = {273,267};
Line(291) = {267,269};
Line(292) = {269,179};
Line(295) = {95,271};
Line(296) = {271,269};
Line(298) = {267,275};
Line(302) = {172,271};
Line(305) = {266,273};
Line(326) = {14,320};
Line(327) = {320,333};
Line(328) = {333,340};
Line(329) = {340,269};
Line(332) = {187,3};
Line(335) = {15,320};
Line(342) = {16,326};
Line(343) = {326,325};
Line(344) = {325,327};
Line(345) = {327,333};
Line(347) = {273,325};
Line(349) = {326,317};
Line(350) = {317,344};
Line(351) = {344,272};
Line(354) = {267,339};
Line(355) = {339,327};
Line(369) = {343,344};
Line(371) = {317,25};
Line(386) = {343,261};
Line(392) = {339,340};
Line(403) = {403,423};
Line(404) = {423,421};
Line(405) = {421,403};
Line(406) = {403,407};
Line(407) = {407,427};
Line(408) = {427,409};
Line(409) = {409,402};
Line(410) = {402,404};
Line(411) = {404,422};
Line(412) = {422,423};
Line(415) = {421,410};
Line(416) = {410,412};
Line(417) = {412,405};
Line(418) = {405,407};
Line(421) = {402,415};
Line(422) = {415,408};
Line(423) = {408,424};
Line(424) = {424,425};
Line(425) = {425,404};
Line(427) = {425,413};
Line(431) = {412,418};
Line(432) = {418,419};
Line(433) = {419,405};
Line(435) = {419,417};
Line(436) = {417,414};
Line(437) = {414,426};
Line(438) = {426,427};
Line(441) = {406,416};
Line(442) = {416,417};
Line(445) = {418,406};
Line(448) = {420,424};
Line(450) = {408,416};
Line(458) = {415,414};
Line(464) = {426,409};
Line(474) = {413,420};
Line(483) = {171,420};
Line(485) = {424,487};
Line(486) = {487,486};
Line(487) = {486,488};
Line(488) = {488,190};
Line(498) = {488,173};
Line(514) = {184,489};
Line(515) = {489,406};
Line(517) = {485,486};
Line(519) = {487,498};
Line(520) = {498,485};
Line(521) = {485,490};
Line(522) = {490,492};
Line(523) = {492,494};
Line(524) = {494,192};
Line(530) = {498,408};
Line(532) = {416,490};
Line(538) = {489,492};
Line(545) = {193,494};
Line(555) = {30,571};
Line(556) = {571,570};
Line(557) = {570,574};
Line(564) = {10,563};
Line(565) = {563,554};
Line(566) = {554,573};
Line(567) = {573,572};
Line(568) = {572,571};
Line(575) = {556,418};
Line(577) = {412,561};
Line(578) = {561,556};
Line(579) = {556,558};
Line(580) = {558,565};
Line(581) = {565,568};
Line(582) = {568,489};
Line(587) = {561,567};
Line(588) = {567,572};
Line(590) = {573,558};
Line(599) = {568,563};
Line(611) = {554,565};
Line(614) = {574,410};
Line(626) = {570,567};
Line(644) = {413,167};
Line(647) = {104,650};
Line(648) = {650,648};
Line(649) = {648,664};
Line(650) = {664,425};
Line(653) = {422,657};
Line(654) = {657,651};
Line(655) = {651,652};
Line(656) = {652,99};
Line(665) = {96,639};
Line(666) = {639,655};
Line(667) = {655,654};
Line(668) = {654,650};
Line(673) = {652,642};
Line(674) = {642,639};
Line(676) = {642,653};
Line(677) = {653,656};
Line(678) = {656,655};
Line(683) = {651,646};
Line(684) = {646,653};
Line(687) = {664,663};
Line(688) = {663,404};
Line(690) = {644,646};
Line(693) = {657,644};
Line(694) = {644,649};
Line(695) = {649,656};
Line(703) = {663,649};
Line(705) = {648,654};
Line(721) = {343,724};
Line(722) = {724,746};
Line(723) = {746,720};
Line(724) = {720,739};
Line(725) = {739,259};
Line(732) = {739,652};
Line(737) = {746,747};
Line(738) = {747,718};
Line(739) = {718,421};
Line(741) = {423,742};
Line(742) = {742,743};
Line(743) = {743,720};
Line(745) = {743,651};
Line(751) = {657,742};
Line(772) = {724,747};
Line(780) = {574,718};
Line(816) = {816,817};
Line(817) = {817,570};
Line(820) = {718,834};
Line(821) = {834,816};
Line(822) = {816,823};
Line(823) = {823,827};
Line(824) = {827,817};
Line(827) = {834,747};
Line(829) = {724,818};
Line(830) = {818,822};
Line(831) = {822,842};
Line(832) = {842,823};
Line(835) = {827,841};
Line(836) = {841,12};
Line(838) = {6,571};
Line(844) = {344,818};
Line(847) = {317,822};
Line(884) = {841,842};
Circle(887) = {888,887,889};
Circle(888) = {889,887,890};
Circle(889) = {890,887,891};
Circle(890) = {891,887,888};
Circle(891) = {893,892,894};
Circle(892) = {894,892,895};
Circle(893) = {895,892,896};
Circle(894) = {896,892,893};
Line(895) = {893,888};
Line(896) = {894,889};
Line(897) = {895,890};
Line(898) = {896,891};
Circle(900) = {901,900,902};
Circle(901) = {902,900,903};
Circle(902) = {903,900,904};
Circle(903) = {904,900,901};
Circle(904) = {906,905,907};
Circle(905) = {907,905,908};
Circle(906) = {908,905,909};
Circle(907) = {909,905,906};
Line(908) = {906,901};
Line(909) = {907,902};
Line(910) = {908,903};
Line(911) = {909,904};
Circle(913) = {914,913,915};
Circle(914) = {915,913,916};
Circle(915) = {916,913,917};
Circle(916) = {917,913,914};
Circle(917) = {919,918,920};
Circle(918) = {920,918,921};
Circle(919) = {921,918,922};
Circle(920) = {922,918,919};
Line(921) = {919,914};
Line(922) = {920,915};
Line(923) = {921,916};
Line(924) = {922,917};
Circle(926) = {927,926,928};
Circle(927) = {928,926,929};
Circle(928) = {929,926,930};
Circle(929) = {930,926,927};
Circle(930) = {932,931,933};
Circle(931) = {933,931,934};
Circle(932) = {934,931,935};
Circle(933) = {935,931,932};
Line(934) = {932,927};
Line(935) = {933,928};
Line(936) = {934,929};
Line(937) = {935,930};
Circle(939) = {940,939,941};
Circle(940) = {941,939,942};
Circle(941) = {942,939,943};
Circle(942) = {943,939,940};
Circle(943) = {945,944,946};
Circle(944) = {946,944,947};
Circle(945) = {947,944,948};
Circle(946) = {948,944,945};
Line(947) = {945,940};
Line(948) = {946,941};
Line(949) = {947,942};
Line(950) = {948,943};
Circle(952) = {953,952,954};
Circle(953) = {954,952,955};
Circle(954) = {955,952,956};
Circle(955) = {956,952,953};
Circle(956) = {958,957,959};
Circle(957) = {959,957,960};
Circle(958) = {960,957,961};
Circle(959) = {961,957,958};
Line(960) = {958,953};
Line(961) = {959,954};
Line(962) = {960,955};
Line(963) = {961,956};
Circle(965) = {966,965,967};
Circle(966) = {967,965,968};
Circle(967) = {968,965,969};
Circle(968) = {969,965,966};
Circle(969) = {971,970,972};
Circle(970) = {972,970,973};
Circle(971) = {973,970,974};
Circle(972) = {974,970,971};
Line(973) = {971,966};
Line(974) = {972,967};
Line(975) = {973,968};
Line(976) = {974,969};
Circle(978) = {979,978,980};
Circle(979) = {980,978,981};
Circle(980) = {981,978,982};
Circle(981) = {982,978,979};
Circle(982) = {984,983,985};
Circle(983) = {985,983,986};
Circle(984) = {986,983,987};
Circle(985) = {987,983,984};
Line(986) = {984,979};
Line(987) = {985,980};
Line(988) = {986,981};
Line(989) = {987,982};
Circle(991) = {992,991,993};
Circle(992) = {993,991,994};
Circle(993) = {994,991,995};
Circle(994) = {995,991,992};
Circle(995) = {997,996,998};
Circle(996) = {998,996,999};
Circle(997) = {999,996,1000};
Circle(998) = {1000,996,997};
Line(999) = {997,992};
Line(1000) = {998,993};
Line(1001) = {999,994};
Line(1002) = {1000,995};
Circle(1004) = {1005,1004,1006};
Circle(1005) = {1006,1004,1007};
Circle(1006) = {1007,1004,1008};
Circle(1007) = {1008,1004,1005};
Circle(1008) = {1010,1009,1011};
Circle(1009) = {1011,1009,1012};
Circle(1010) = {1012,1009,1013};
Circle(1011) = {1013,1009,1010};
Line(1012) = {1010,1005};
Line(1013) = {1011,1006};
Line(1014) = {1012,1007};
Line(1015) = {1013,1008};
Circle(1017) = {1018,1017,1019};
Circle(1018) = {1019,1017,1020};
Circle(1019) = {1020,1017,1021};
Circle(1020) = {1021,1017,1018};
Circle(1021) = {1023,1022,1024};
Circle(1022) = {1024,1022,1025};
Circle(1023) = {1025,1022,1026};
Circle(1024) = {1026,1022,1023};
Line(1025) = {1023,1018};
Line(1026) = {1024,1019};
Line(1027) = {1025,1020};
Line(1028) = {1026,1021};
// END  Edges


 // BEGIN  CurveLoops
Line Loop(2) = {2,3,4,5,6};
Line Loop(3) = {7,8,9,10,11,-2};
Line Loop(4) = {-6,14,15,16,17,18,19,-7};
Line Loop(5) = {21,22,23,24,25,26};
Line Loop(7) = {-26,36,37,-27};
Line Loop(8) = {39,-10,41,-28,-37,44};
Line Loop(9) = {45,-3,-11,-39};
Line Loop(10) = {-44,-36,-25,52,-4,-45};
Line Loop(11) = {-24,56,-14,-5,-52};
Line Loop(13) = {-64,66,-18};
Line Loop(16) = {-15,-56,-23,-74,-71};
Line Loop(17) = {-63,-30,84,-8,-19,-66};
Line Loop(18) = {-41,-9,-84,-29};
Line Loop(93) = {93,94,95,96,97};
Line Loop(96) = {109,110,111};
Line Loop(97) = {112,113,114,115,116,117,-109};
Line Loop(98) = {-111,120,121,122,-100,124,125,-112};
Line Loop(99) = {-101,-122,129,130,-94};
Line Loop(101) = {-105,138,-114,-135};
Line Loop(103) = {-104,-96,147,148,-115,-138};
Line Loop(104) = {-95,-130,153,-120,-110,-117,157,-147};
Line Loop(105) = {-148,-157,-116};
Line Loop(106) = {-153,-129,-121};
Line Loop(169) = {-179,185,186,187,105,189};
Line Loop(176) = {221,222,-172,-196};
Line Loop(177) = {-195,-97,227,228,229,-221};
Line Loop(178) = {-218,232,233};
Line Loop(179) = {-233,235,-228,237,-186,-219};
Line Loop(180) = {-235,-232,-217,243,-22,-173,-222,-229};
Line Loop(181) = {-227,104,-187,-237};
Line Loop(182) = {74,-243,-216,-199};
Line Loop(257) = {100,258,259,260,261};
Line Loop(260) = {-259,273,274,275};
Line Loop(261) = {-275,277,278,279,-268,-260};
Line Loop(264) = {101,295,296,-291,298,-273,-258};
Line Loop(265) = {195,302,-295,-93};
Line Loop(266) = {305,-289,-278};
Line Loop(267) = {-277,-274,-298,-290,-305};
Line Loop(268) = {-292,-296,-302,196};
Line Loop(319) = {326,327,328,329,292,172,332,27};
Line Loop(320) = {28,335,-326};
Line Loop(321) = {-332,173,-21};
Line Loop(322) = {-335,29,342,343,344,345,-327};
Line Loop(323) = {347,-343,349,350,351,289};
Line Loop(324) = {290,354,355,-344,-347};
Line Loop(327) = {-371,-349,-342,30};
Line Loop(329) = {-279,-351,-369,386};
Line Loop(331) = {-355,392,-328,-345};
Line Loop(332) = {-329,-392,-354,291};
Line Loop(403) = {403,404,405};
Line Loop(404) = {406,407,408,409,410,411,412,-403};
Line Loop(405) = {-405,415,416,417,418,-406};
Line Loop(406) = {-410,421,422,423,424,425};
Line Loop(408) = {-417,431,432,433};
Line Loop(409) = {-433,435,436,437,438,-407,-418};
Line Loop(410) = {441,442,-435,-432,445};
Line Loop(413) = {-422,458,-436,-442,-450};
Line Loop(414) = {-408,-438,464};
Line Loop(415) = {-464,-437,-458,-421,-409};
Line Loop(417) = {-427,-424,-448,-474};
Line Loop(482) = {-185,483,448,485,486,487,488};
Line Loop(484) = {-488,498,219};
Line Loop(488) = {517,-486,519,520};
Line Loop(489) = {521,522,523,524,218,-498,-487,-517};
Line Loop(490) = {-520,530,450,532,-521};
Line Loop(491) = {-485,-423,-530,-519};
Line Loop(492) = {538,-522,-532,-441,-515};
Line Loop(493) = {-514,216,545,-523,-538};
Line Loop(494) = {-545,217,-524};
Line Loop(556) = {-16,564,565,566,567,568,-555};
Line Loop(558) = {575,-431,577,578};
Line Loop(559) = {579,580,581,582,515,-445,-575};
Line Loop(560) = {-578,587,588,-567,590,-579};
Line Loop(562) = {514,-582,599,-564,71,199};
Line Loop(564) = {-590,-566,611,-580};
Line Loop(567) = {-577,-416,-614,-557,626,-587};
Line Loop(568) = {-599,-581,-611,-565};
Line Loop(569) = {-626,-556,-568,-588};
Line Loop(641) = {644,-189,135,647,648,649,650,427};
Line Loop(644) = {665,666,667,668,-647,-113};
Line Loop(645) = {-125,-656,673,674,-665};
Line Loop(646) = {676,677,678,-666,-674};
Line Loop(647) = {-673,-655,683,684,-676};
Line Loop(648) = {-650,687,688,-425};
Line Loop(649) = {690,-683,-654,693};
Line Loop(650) = {694,695,-677,-684,-690};
Line Loop(651) = {-693,-653,-411,-688,703,-694};
Line Loop(652) = {705,-667,-678,-695,-703,-687,-649};
Line Loop(653) = {-648,-668,-705};
Line Loop(719) = {268,-386,721,722,723,724,725};
Line Loop(721) = {-725,732,656,-124,-261};
Line Loop(722) = {-723,737,738,739,-404,741,742,743};
Line Loop(723) = {-743,745,655,-732,-724};
Line Loop(724) = {-412,653,751,-741};
Line Loop(727) = {654,-745,-742,-751};
Line Loop(728) = {772,-737,-722};
Line Loop(731) = {-483,179,-644,474};
Line Loop(736) = {-739,-780,614,-415};
Line Loop(816) = {816,817,557,780,820,821};
Line Loop(817) = {822,823,824,-816};
Line Loop(818) = {-821,827,-772,829,830,831,832,-822};
Line Loop(819) = {-824,835,836,64,838,556,-817};
Line Loop(820) = {-829,-721,369,844};
Line Loop(821) = {-844,-350,847,-830};
Line Loop(822) = {-827,-820,-738};
Line Loop(827) = {-847,371,63,-836,884,-831};
Line Loop(828) = {-832,-884,-835,-823};
Line Loop(829) = {-17,555,-838};
Line Loop(887) = {887,888,889,890};
Line Loop(888) = {-894,-893,-892,-891};
Line Loop(889) = {895,-890,-898,894};
Line Loop(890) = {896,-887,-895,891};
Line Loop(891) = {897,-888,-896,892};
Line Loop(892) = {898,-889,-897,893};
Line Loop(900) = {900,901,902,903};
Line Loop(901) = {-907,-906,-905,-904};
Line Loop(902) = {908,-903,-911,907};
Line Loop(903) = {909,-900,-908,904};
Line Loop(904) = {910,-901,-909,905};
Line Loop(905) = {911,-902,-910,906};
Line Loop(913) = {913,914,915,916};
Line Loop(914) = {-920,-919,-918,-917};
Line Loop(915) = {921,-916,-924,920};
Line Loop(916) = {922,-913,-921,917};
Line Loop(917) = {923,-914,-922,918};
Line Loop(918) = {924,-915,-923,919};
Line Loop(926) = {926,927,928,929};
Line Loop(927) = {-933,-932,-931,-930};
Line Loop(928) = {934,-929,-937,933};
Line Loop(929) = {935,-926,-934,930};
Line Loop(930) = {936,-927,-935,931};
Line Loop(931) = {937,-928,-936,932};
Line Loop(939) = {939,940,941,942};
Line Loop(940) = {-946,-945,-944,-943};
Line Loop(941) = {947,-942,-950,946};
Line Loop(942) = {948,-939,-947,943};
Line Loop(943) = {949,-940,-948,944};
Line Loop(944) = {950,-941,-949,945};
Line Loop(952) = {952,953,954,955};
Line Loop(953) = {-959,-958,-957,-956};
Line Loop(954) = {960,-955,-963,959};
Line Loop(955) = {961,-952,-960,956};
Line Loop(956) = {962,-953,-961,957};
Line Loop(957) = {963,-954,-962,958};
Line Loop(965) = {965,966,967,968};
Line Loop(966) = {-972,-971,-970,-969};
Line Loop(967) = {973,-968,-976,972};
Line Loop(968) = {974,-965,-973,969};
Line Loop(969) = {975,-966,-974,970};
Line Loop(970) = {976,-967,-975,971};
Line Loop(978) = {978,979,980,981};
Line Loop(979) = {-985,-984,-983,-982};
Line Loop(980) = {986,-981,-989,985};
Line Loop(981) = {987,-978,-986,982};
Line Loop(982) = {988,-979,-987,983};
Line Loop(983) = {989,-980,-988,984};
Line Loop(991) = {991,992,993,994};
Line Loop(992) = {-998,-997,-996,-995};
Line Loop(993) = {999,-994,-1002,998};
Line Loop(994) = {1000,-991,-999,995};
Line Loop(995) = {1001,-992,-1000,996};
Line Loop(996) = {1002,-993,-1001,997};
Line Loop(1004) = {1004,1005,1006,1007};
Line Loop(1005) = {-1011,-1010,-1009,-1008};
Line Loop(1006) = {1012,-1007,-1015,1011};
Line Loop(1007) = {1013,-1004,-1012,1008};
Line Loop(1008) = {1014,-1005,-1013,1009};
Line Loop(1009) = {1015,-1006,-1014,1010};
Line Loop(1017) = {1017,1018,1019,1020};
Line Loop(1018) = {-1024,-1023,-1022,-1021};
Line Loop(1019) = {1025,-1020,-1028,1024};
Line Loop(1020) = {1026,-1017,-1025,1021};
Line Loop(1021) = {1027,-1018,-1026,1022};
Line Loop(1022) = {1028,-1019,-1027,1023};
// END  CurveLoops


 // BEGIN  Surfaces
Plane Surface(731) = {731};
Plane Surface(828) = {828};
Plane Surface(653) = {653};
Plane Surface(728) = {728};
Plane Surface(641) = {641};
Plane Surface(818) = {818};
Plane Surface(564) = {564};
Plane Surface(820) = {820};
Plane Surface(560) = {560};
Plane Surface(644) = {644};
Plane Surface(559) = {559};
Plane Surface(719) = {719};
Plane Surface(492) = {492};
Plane Surface(721) = {721};
Plane Surface(490) = {490};
Plane Surface(645) = {645};
Plane Surface(488) = {488};
Plane Surface(569) = {569};
Plane Surface(482) = {482};
Plane Surface(819) = {819};
Plane Surface(417) = {417};
Plane Surface(817) = {817};
Plane Surface(414) = {414};
Plane Surface(494) = {494};
Plane Surface(413) = {413};
Plane Surface(647) = {647};
Plane Surface(410) = {410};
Plane Surface(723) = {723};
Plane Surface(332) = {332};
Plane Surface(408) = {408};
Plane Surface(331) = {331};
Plane Surface(558) = {558};
Plane Surface(329) = {329};
Plane Surface(568) = {568};
Plane Surface(322) = {322};
Plane Surface(652) = {652};
Plane Surface(321) = {321};
Plane Surface(403) = {403};
Plane Surface(320) = {320};
Plane Surface(822) = {822};
Plane Surface(319) = {319};
Plane Surface(722) = {722};
Plane Surface(268) = {268};
Plane Surface(727) = {727};
Plane Surface(265) = {265};
Plane Surface(649) = {649};
Plane Surface(264) = {264};
Plane Surface(409) = {409};
Plane Surface(261) = {261};
Plane Surface(562) = {562};
Plane Surface(257) = {257};
Plane Surface(493) = {493};
Plane Surface(182) = {182};
Plane Surface(260) = {260};
Plane Surface(181) = {181};
Plane Surface(327) = {327};
Plane Surface(180) = {180};
Plane Surface(404) = {404};
Plane Surface(177) = {177};
Plane Surface(651) = {651};
Plane Surface(176) = {176};
Plane Surface(724) = {724};
Plane Surface(169) = {169};
Plane Surface(827) = {827};
Plane Surface(106) = {106};
Plane Surface(178) = {178};
Plane Surface(105) = {105};
Plane Surface(266) = {266};
Plane Surface(103) = {103};
Plane Surface(323) = {323};
Plane Surface(101) = {101};
Plane Surface(821) = {821};
Plane Surface(99) = {99};
Plane Surface(415) = {415};
Plane Surface(98) = {98};
Plane Surface(489) = {489};
Plane Surface(97) = {97};
Plane Surface(556) = {556};
Plane Surface(96) = {96};
Plane Surface(829) = {829};
Plane Surface(93) = {93};
Plane Surface(650) = {650};
Plane Surface(18) = {18};
Plane Surface(648) = {648};
Plane Surface(17) = {17};
Plane Surface(179) = {179};
Plane Surface(16) = {16};
Plane Surface(267) = {267};
Plane Surface(13) = {13};
Plane Surface(484) = {484};
Plane Surface(11) = {11};
Plane Surface(324) = {324};
Plane Surface(10) = {10};
Plane Surface(567) = {567};
Plane Surface(9) = {9};
Plane Surface(491) = {491};
Plane Surface(8) = {8};
Plane Surface(816) = {816};
Plane Surface(7) = {7};
Plane Surface(736) = {736};
Plane Surface(5) = {5};
Plane Surface(405) = {405};
Plane Surface(4) = {4};
Plane Surface(104) = {104};
Plane Surface(3) = {3};
Plane Surface(406) = {406};
Plane Surface(2) = {2};
Plane Surface(646) = {646};
Plane Surface(887) = {887};
Plane Surface(888) = {888};
Surface(889) = {889};
Surface(890) = {890};
Surface(891) = {891};
Surface(892) = {892};
Plane Surface(900) = {900};
Plane Surface(901) = {901};
Surface(902) = {902};
Surface(903) = {903};
Surface(904) = {904};
Surface(905) = {905};
Plane Surface(913) = {913};
Plane Surface(914) = {914};
Surface(915) = {915};
Surface(916) = {916};
Surface(917) = {917};
Surface(918) = {918};
Plane Surface(926) = {926};
Plane Surface(927) = {927};
Surface(928) = {928};
Surface(929) = {929};
Surface(930) = {930};
Surface(931) = {931};
Plane Surface(939) = {939};
Plane Surface(940) = {940};
Surface(941) = {941};
Surface(942) = {942};
Surface(943) = {943};
Surface(944) = {944};
Plane Surface(952) = {952};
Plane Surface(953) = {953};
Surface(954) = {954};
Surface(955) = {955};
Surface(956) = {956};
Surface(957) = {957};
Plane Surface(965) = {965};
Plane Surface(966) = {966};
Surface(967) = {967};
Surface(968) = {968};
Surface(969) = {969};
Surface(970) = {970};
Plane Surface(978) = {978};
Plane Surface(979) = {979};
Surface(980) = {980};
Surface(981) = {981};
Surface(982) = {982};
Surface(983) = {983};
Plane Surface(991) = {991};
Plane Surface(992) = {992};
Surface(993) = {993};
Surface(994) = {994};
Surface(995) = {995};
Surface(996) = {996};
Plane Surface(1004) = {1004};
Plane Surface(1005) = {1005};
Surface(1006) = {1006};
Surface(1007) = {1007};
Surface(1008) = {1008};
Surface(1009) = {1009};
Plane Surface(1017) = {1017};
Plane Surface(1018) = {1018};
Surface(1019) = {1019};
Surface(1020) = {1020};
Surface(1021) = {1021};
Surface(1022) = {1022};
// END  Surfaces


 // BEGIN  SurfaceLoop
Surface Loop(1) = {2,3,4,5,7,8,9,10,11,13,16,17,18,93,96,97,98,99,101,103,104,105,106,169,176,177,178,179,180,181,182,257,260,261,264,265,266,267,268,319,320,321,322,323,324,327,329,331,332,403,404,405,406,408,409,410,413,414,415,417,482,484,488,489,490,491,492,493,494,556,558,559,560,562,564,567,568,569,641,644,645,646,647,648,649,650,651,652,653,719,721,722,723,724,727,728,731,736,816,817,818,819,820,821,822,827,828,829};
Surface Loop(887) = {887,888,889,890,891,892};
Surface Loop(900) = {900,901,902,903,904,905};
Surface Loop(913) = {913,914,915,916,917,918};
Surface Loop(926) = {926,927,928,929,930,931};
Surface Loop(939) = {939,940,941,942,943,944};
Surface Loop(952) = {952,953,954,955,956,957};
Surface Loop(965) = {965,966,967,968,969,970};
Surface Loop(978) = {978,979,980,981,982,983};
Surface Loop(991) = {991,992,993,994,995,996};
Surface Loop(1004) = {1004,1005,1006,1007,1008,1009};
Surface Loop(1017) = {1017,1018,1019,1020,1021,1022};
// END  SurfaceLoop


 // BEGIN  Matrix volume
Volume(1) = {1,887,900,913,926,939,952,965,978,991,1004,1017};
Volume(887) = {887};
Volume(900) = {900};
Volume(913) = {913};
Volume(926) = {926};
Volume(939) = {939};
Volume(952) = {952};
Volume(965) = {965};
Volume(978) = {978};
Volume(991) = {991};
Volume(1004) = {1004};
Volume(1017) = {1017};
// END  Matrix volume


 // BEGIN  Periodic surfaces of the enveloppe
Periodic Surface {646 }={ 2 } Translate {-5,5.0000000000000009,5};
Periodic Surface {406 }={ 3 } Translate {-5,2.2204460492503131e-16,5.0000000000000009};
Periodic Surface {104 }={ 4 } Translate {-5,5,2.7755575615628914e-16};
Periodic Surface {5 }={ 405 } Translate {8.8817841970012523e-16,-8.8817841970012523e-16,-5.0000000000000018};
Periodic Surface {7 }={ 736 } Translate {8.8817841970012523e-16,-8.8817841970012523e-16,-5.0000000000000018};
Periodic Surface {8 }={ 816 } Translate {0,-4.4408920985006262e-16,-4.9999999999999991};
Periodic Surface {491 }={ 9 } Translate {-5,4.4408920985006262e-16,4.9999999999999991};
Periodic Surface {10 }={ 567 } Translate {0,-4.4408920985006262e-16,-4.9999999999999991};
Periodic Surface {11 }={ 324 } Translate {0,-5,-3.3306690738754696e-16};
Periodic Surface {484 }={ 13 } Translate {-5,-2.2204460492503131e-16,-4.4408920985006262e-16};
Periodic Surface {16 }={ 267 } Translate {-8.8817841970012523e-16,-4.9999999999999982,0};
Periodic Surface {179 }={ 17 } Translate {-5,-4.4408920985006262e-16,-0};
Periodic Surface {648 }={ 18 } Translate {-5,-8.8817841970012523e-16,5};
Periodic Surface {93 }={ 650 } Translate {0,-8.8817841970012523e-16,-5};
Periodic Surface {96 }={ 829 } Translate {-5,5,-0};
Periodic Surface {97 }={ 556 } Translate {-5,4.9999999999999991,-2.2204460492503131e-16};
Periodic Surface {489 }={ 98 } Translate {-3.3306690738754696e-16,-5,-4.4408920985006262e-16};
Periodic Surface {415 }={ 99 } Translate {-2.2204460492503131e-16,-5,5};
Periodic Surface {101 }={ 821 } Translate {-4.9999999999999991,0,-4.4408920985006262e-16};
Periodic Surface {103 }={ 323 } Translate {-5,0,-5.5511151231257827e-17};
Periodic Surface {105 }={ 266 } Translate {-5,8.8817841970012523e-16,-2.2204460492503131e-16};
Periodic Surface {178 }={ 106 } Translate {-1.1102230246251565e-16,-5,-2.2204460492503131e-16};
Periodic Surface {169 }={ 827 } Translate {-5,-4.4408920985006262e-16,-0};
Periodic Surface {176 }={ 724 } Translate {0,-4.4408920985006262e-16,-5};
Periodic Surface {177 }={ 651 } Translate {3.0531133177191805e-16,-4.4408920985006262e-16,-5};
Periodic Surface {180 }={ 404 } Translate {2.2204460492503131e-16,0,-5};
Periodic Surface {181 }={ 327 } Translate {-5,-8.8817841970012523e-16,1.1102230246251565e-16};
Periodic Surface {182 }={ 260 } Translate {4.4408920985006262e-16,-5,0};
Periodic Surface {493 }={ 257 } Translate {-4.4408920985006262e-16,-5,-2.2204460492503131e-16};
Periodic Surface {562 }={ 261 } Translate {-8.8817841970012523e-16,-4.9999999999999982,0};
Periodic Surface {409 }={ 264 } Translate {-0,-5,5.0000000000000009};
Periodic Surface {265 }={ 649 } Translate {4.4408920985006262e-16,0,-5};
Periodic Surface {268 }={ 727 } Translate {0,-4.4408920985006262e-16,-5};
Periodic Surface {319 }={ 722 } Translate {8.8817841970012523e-16,-8.8817841970012523e-16,-5.0000000000000018};
Periodic Surface {320 }={ 822 } Translate {-4.4408920985006262e-16,8.8817841970012523e-16,-5};
Periodic Surface {321 }={ 403 } Translate {8.8817841970012523e-16,-8.8817841970012523e-16,-5.0000000000000018};
Periodic Surface {652 }={ 322 } Translate {-5,8.8817841970012523e-16,5};
Periodic Surface {568 }={ 329 } Translate {-0,-5.0000000000000009,6.6613381477509392e-16};
Periodic Surface {558 }={ 331 } Translate {-4.4408920985006262e-16,-5.0000000000000009,5};
Periodic Surface {408 }={ 332 } Translate {-4.4408920985006262e-16,-5.0000000000000009,5};
Periodic Surface {410 }={ 723 } Translate {4.4408920985006262e-16,-5,-8.8817841970012523e-16};
Periodic Surface {413 }={ 647 } Translate {3.3306690738754696e-16,-4.9999999999999991,0};
Periodic Surface {494 }={ 414 } Translate {-4.4408920985006262e-16,-2.2204460492503131e-16,-5};
Periodic Surface {417 }={ 817 } Translate {-5,-1.7763568394002505e-15,-8.8817841970012523e-16};
Periodic Surface {482 }={ 819 } Translate {-5,0,0};
Periodic Surface {488 }={ 569 } Translate {-5,0,0};
Periodic Surface {490 }={ 645 } Translate {2.2204460492503131e-16,-5.0000000000000009,0};
Periodic Surface {492 }={ 721 } Translate {-2.2204460492503131e-16,-5.0000000000000009,-0};
Periodic Surface {559 }={ 719 } Translate {-0,-5,-0};
Periodic Surface {644 }={ 560 } Translate {-5,5,-0};
Periodic Surface {564 }={ 820 } Translate {8.8817841970012523e-16,-4.9999999999999991,-4.4408920985006262e-16};
Periodic Surface {641 }={ 818 } Translate {-4.9999999999999991,-4.4408920985006262e-16,0};
Periodic Surface {653 }={ 728 } Translate {-5,4.4408920985006262e-16,0};
Periodic Surface {731 }={ 828 } Translate {-5,4.4408920985006262e-16,-4.4408920985006262e-16};
// END  Periodic surfaces of the enveloppe


 // BEGIN  Physical volumes
Physical Volume(1) = {1};
Physical Volume(2) = {887,900,913,926,939,952,965,978,991,1004,1017};
// END  Physical volumes


 // BEGIN  Physical surfaces
Physical Surface(1) = {2,3,4,5,7,8,9,10,11,13,16,17,18,93,96,97,98,99,101,103,104,105,106,169,176,177,178,179,180,181,182,257,260,261,264,265,266,267,268,319,320,321,322,323,324,327,329,331,332,403,404,405,406,408,409,410,413,414,415,417,482,484,488,489,490,491,492,493,494,556,558,559,560,562,564,567,568,569,641,644,645,646,647,648,649,650,651,652,653,719,721,722,723,724,727,728,731,736,816,817,818,819,820,821,822,827,828,829,887,888,889,890,891,892,900,901,902,903,904,905,913,914,915,916,917,918,926,927,928,929,930,931,939,940,941,942,943,944,952,953,954,955,956,957,965,966,967,968,969,970,978,979,980,981,982,983,991,992,993,994,995,996,1004,1005,1006,1007,1008,1009,1017,1018,1019,1020,1021,1022};
Physical Surface(2) = {887,888,889,890,891,892,900,901,902,903,904,905,913,914,915,916,917,918,926,927,928,929,930,931,939,940,941,942,943,944,952,953,954,955,956,957,965,966,967,968,969,970,978,979,980,981,982,983,991,992,993,994,995,996,1004,1005,1006,1007,1008,1009,1017,1018,1019,1020,1021,1022};
Physical Surface(3) = {2,3,4,5,7,8,9,10,11,13,16,17,18,93,96,97,98,99,101,103,104,105,106,169,176,177,178,179,180,181,182,257,260,261,264,265,266,267,268,319,320,321,322,323,324,327,329,331,332,403,404,405,406,408,409,410,413,414,415,417,482,484,488,489,490,491,492,493,494,556,558,559,560,562,564,567,568,569,641,644,645,646,647,648,649,650,651,652,653,719,721,722,723,724,727,728,731,736,816,817,818,819,820,821,822,827,828,829};
// END  Physical surfaces


MeshSize {:} =0.10000000000000001;

Mesh.ElementOrder =1;
Mesh 2;
Mesh 3;
Mesh.MshFileVersion = 2.2;
Save "cylinders.vtk";
