<?xml version="1.0" encoding="UTF-8" standalone="no"?>
<!-- Generated by graphviz version 2.38.0 (20140413.2041)
 -->

<!-- Title: tangent_operator_converter Pages: 1 -->

<svg
   xmlns:dc="http://purl.org/dc/elements/1.1/"
   xmlns:cc="http://creativecommons.org/ns#"
   xmlns:rdf="http://www.w3.org/1999/02/22-rdf-syntax-ns#"
   xmlns:svg="http://www.w3.org/2000/svg"
   xmlns="http://www.w3.org/2000/svg"
   xmlns:sodipodi="http://sodipodi.sourceforge.net/DTD/sodipodi-0.dtd"
   xmlns:inkscape="http://www.inkscape.org/namespaces/inkscape"
   width="702pt"
   height="521pt"
   viewBox="0.00 0.00 702.39 520.86"
   version="1.1"
   id="svg298"
   sodipodi:docname="FiniteStrainTangentOperatorConvertion.svg"
   inkscape:version="0.92.1 r15371">
  <metadata
     id="metadata304">
    <rdf:RDF>
      <cc:Work
         rdf:about="">
        <dc:format>image/svg+xml</dc:format>
        <dc:type
           rdf:resource="http://purl.org/dc/dcmitype/StillImage" />
      </cc:Work>
    </rdf:RDF>
  </metadata>
  <defs
     id="defs302" />
  <sodipodi:namedview
     pagecolor="#ffffff"
     bordercolor="#666666"
     borderopacity="1"
     objecttolerance="10"
     gridtolerance="10"
     guidetolerance="10"
     inkscape:pageopacity="0"
     inkscape:pageshadow="2"
     inkscape:window-width="1920"
     inkscape:window-height="1016"
     id="namedview300"
     showgrid="false"
     inkscape:zoom="1.0825336"
     inkscape:cx="468"
     inkscape:cy="347.33333"
     inkscape:window-x="0"
     inkscape:window-y="27"
     inkscape:window-maximized="1"
     inkscape:current-layer="svg298" />
  <g
     id="graph0"
     class="graph"
     transform="scale(1 1) rotate(0) translate(4 516.86)">
    <title
       id="title2">tangent_operator_converter</title>
    <polygon
       fill="white"
       stroke="none"
       points="-4,4 -4,-516.86 698.388,-516.86 698.388,4 -4,4"
       id="polygon4" />
    <!-- DSIG_DF -->
    <g
       id="node1"
       class="node">
      <title
         id="title6">DSIG_DF</title>
      <ellipse
         fill="none"
         stroke="red"
         cx="53.2953"
         cy="-303.037"
         rx="50.8235"
         ry="26.7407"
         id="ellipse8" />
      <text
         text-anchor="middle"
         x="53.2953"
         y="-306.837"
         font-family="Times,serif"
         font-size="14.00"
         id="text10">DSIG_DF</text>
      <text
         text-anchor="middle"
         x="53.2953"
         y="-291.837"
         font-family="Times,serif"
         font-size="14.00"
         id="text12">MTest</text>
    </g>
    <!-- DSIG_DDF -->
    <g
       id="node10"
       class="node">
      <title
         id="title15">DSIG_DDF</title>
      <ellipse
         fill="none"
         stroke="black"
         cx="53.2953"
         cy="-192.083"
         rx="53.0913"
         ry="18"
         id="ellipse17" />
      <text
         text-anchor="middle"
         x="53.2953"
         y="-188.383"
         font-family="Times,serif"
         font-size="14.00"
         id="text19">DSIG_DDF</text>
    </g>
    <!-- DSIG_DF&#45;&gt;DSIG_DDF -->
    <g
       id="edge13"
       class="edge">
      <title
         id="title22">DSIG_DF-&gt;DSIG_DDF</title>
      <path
         fill="none"
         stroke="black"
         d="M47.4554,-276.216C46.2827,-259.491 46.2433,-237.728 47.3372,-220.665"
         id="path24" />
      <polygon
         fill="black"
         stroke="black"
         points="50.8644,-220.49 48.2192,-210.231 43.8893,-219.9 50.8644,-220.49"
         id="polygon26" />
    </g>
    <!-- C_TRUESDELL -->
    <g
       id="node2"
       class="node">
      <title
         id="title29">C_TRUESDELL</title>
      <ellipse
         fill="none"
         stroke="green"
         cx="424.295"
         cy="-192.083"
         rx="77.5641"
         ry="37.4533"
         id="ellipse31" />
      <text
         text-anchor="middle"
         x="424.295"
         y="-203.383"
         font-family="Times,serif"
         font-size="14.00"
         id="text33">C_TRUESDELL</text>
      <text
         text-anchor="middle"
         x="424.295"
         y="-188.383"
         font-family="Times,serif"
         font-size="14.00"
         id="text35">Cast3M</text>
      <text
         text-anchor="middle"
         x="424.295"
         y="-173.383"
         font-family="Times,serif"
         font-size="14.00"
         id="text37">ZeBuLoN</text>
    </g>
    <!-- SPATIAL_MODULI -->
    <g
       id="node9"
       class="node">
      <title
         id="title40">SPATIAL_MODULI</title>
      <ellipse
         fill="none"
         stroke="black"
         cx="427.295"
         cy="-303.037"
         rx="87.1846"
         ry="18"
         id="ellipse42" />
      <text
         text-anchor="middle"
         x="427.295"
         y="-299.337"
         font-family="Times,serif"
         font-size="14.00"
         id="text44">SPATIAL_MODULI</text>
    </g>
    <!-- C_TRUESDELL&#45;&gt;SPATIAL_MODULI -->
    <g
       id="edge21"
       class="edge">
      <title
         id="title47">C_TRUESDELL-&gt;SPATIAL_MODULI</title>
      <path
         fill="none"
         stroke="black"
         d="M431.728,-229.818C432.698,-244.553 432.995,-261.233 432.479,-274.847"
         id="path49" />
      <polygon
         fill="black"
         stroke="black"
         points="428.975,-274.827 431.889,-285.013 435.963,-275.232 428.975,-274.827"
         id="polygon51" />
    </g>
    <!-- DTAU_DDF -->
    <g
       id="node3"
       class="node">
      <title
         id="title54">DTAU_DDF</title>
      <ellipse
         fill="none"
         stroke="blue"
         cx="260.295"
         cy="-303.037"
         rx="62.4516"
         ry="26.7407"
         id="ellipse56" />
      <text
         text-anchor="middle"
         x="260.295"
         y="-306.837"
         font-family="Times,serif"
         font-size="14.00"
         id="text58">DTAU_DDF</text>
      <text
         text-anchor="middle"
         x="260.295"
         y="-291.837"
         font-family="Times,serif"
         font-size="14.00"
         id="text60">Code_Aster</text>
    </g>
    <!-- DTAU_DF -->
    <g
       id="node7"
       class="node">
      <title
         id="title63">DTAU_DF</title>
      <ellipse
         fill="none"
         stroke="black"
         cx="339.295"
         cy="-383.907"
         rx="50.8918"
         ry="18"
         id="ellipse65" />
      <text
         text-anchor="middle"
         x="339.295"
         y="-380.207"
         font-family="Times,serif"
         font-size="14.00"
         id="text67">DTAU_DF</text>
    </g>
    <!-- DTAU_DDF&#45;&gt;DTAU_DF -->
    <g
       id="edge7"
       class="edge">
      <title
         id="title70">DTAU_DDF-&gt;DTAU_DF</title>
      <path
         fill="none"
         stroke="black"
         d="M289.516,-327.021C300.123,-336.91 311.744,-348.479 321.16,-358.519"
         id="path72" />
      <polygon
         fill="black"
         stroke="black"
         points="318.842,-361.17 328.177,-366.18 324.004,-356.442 318.842,-361.17"
         id="polygon74" />
    </g>
    <!-- ABAQUS -->
    <g
       id="node4"
       class="node">
      <title
         id="title77">ABAQUS</title>
      <ellipse
         fill="none"
         stroke="yellow"
         cx="383.295"
         cy="-475.383"
         rx="77.5641"
         ry="37.4533"
         id="ellipse79" />
      <text
         text-anchor="middle"
         x="383.295"
         y="-486.683"
         font-family="Times,serif"
         font-size="14.00"
         id="text81">ABAQUS</text>
      <text
         text-anchor="middle"
         x="383.295"
         y="-471.683"
         font-family="Times,serif"
         font-size="14.00"
         id="text83">Abaqus/Standard</text>
      <text
         x="383.29501"
         y="-456.68301"
         font-size="14.00"
         id="text85"
         style="font-size:14px;font-family:Times, serif;text-anchor:middle">Calculix,Ansys</text>
    </g>
    <!-- ABAQUS&#45;&gt;DSIG_DF -->
    <g
       id="edge24"
       class="edge">
      <title
         id="title88">ABAQUS-&gt;DSIG_DF</title>
      <path
         fill="none"
         stroke="black"
         d="M306.885,-467.921C250.32,-459.914 173.771,-441.995 118.295,-401.907 96.1172,-385.88 79.3339,-359.775 68.3815,-338.556"
         id="path90" />
      <polygon
         fill="black"
         stroke="black"
         points="71.4751,-336.916 63.9036,-329.504 65.2009,-340.02 71.4751,-336.916"
         id="polygon92" />
    </g>
    <!-- ABAQUS&#45;&gt;DTAU_DF -->
    <g
       id="edge25"
       class="edge">
      <title
         id="title95">ABAQUS-&gt;DTAU_DF</title>
      <path
         fill="none"
         stroke="black"
         d="M359.556,-439.533C354.715,-430.264 349.985,-420.398 346.202,-411.638"
         id="path97" />
      <polygon
         fill="black"
         stroke="black"
         points="349.409,-410.234 342.378,-402.308 342.932,-412.888 349.409,-410.234"
         id="polygon99" />
    </g>
    <!-- C_TAU_JAUMANN -->
    <g
       id="node8"
       class="node">
      <title
         id="title102">C_TAU_JAUMANN</title>
      <ellipse
         fill="none"
         stroke="black"
         cx="607.295"
         cy="-192.083"
         rx="87.1846"
         ry="18"
         id="ellipse104" />
      <text
         text-anchor="middle"
         x="607.295"
         y="-188.383"
         font-family="Times,serif"
         font-size="14.00"
         id="text106">C_TAU_JAUMANN</text>
    </g>
    <!-- ABAQUS&#45;&gt;C_TAU_JAUMANN -->
    <g
       id="edge23"
       class="edge">
      <title
         id="title109">ABAQUS-&gt;C_TAU_JAUMANN</title>
      <path
         fill="none"
         stroke="black"
         d="M430.239,-445.263C470.461,-420.057 526.822,-379.83 560.295,-329.907 582.916,-296.168 592.16,-249.181 598.275,-219.975"
         id="path111" />
      <polygon
         fill="black"
         stroke="black"
         points="601.723,-220.59 600.405,-210.077 594.88,-219.117 601.723,-220.59"
         id="polygon113" />
    </g>
    <!-- ABAQUS&#45;&gt;SPATIAL_MODULI -->
    <g
       id="edge22"
       class="edge">
      <title
         id="title116">ABAQUS-&gt;SPATIAL_MODULI</title>
      <path
         fill="none"
         stroke="black"
         d="M387.077,-437.84C393.728,-405.799 405.758,-359.95 415.211,-331.1"
         id="path118" />
      <polygon
         fill="black"
         stroke="black"
         points="418.639,-331.892 418.562,-321.298 412.015,-329.628 418.639,-331.892"
         id="polygon120" />
    </g>
    <!-- DS_DEGL -->
    <g
       id="node5"
       class="node">
      <title
         id="title123">DS_DEGL</title>
      <ellipse
         fill="none"
         stroke="pink"
         cx="271.295"
         cy="-192.083"
         rx="57.0522"
         ry="48.1667"
         id="ellipse125" />
      <text
         text-anchor="middle"
         x="271.295"
         y="-210.883"
         font-family="Times,serif"
         font-size="14.00"
         id="text127">DS_DEGL</text>
      <text
         text-anchor="middle"
         x="271.295"
         y="-195.883"
         font-family="Times,serif"
         font-size="14.00"
         id="text129">Calculix</text>
      <text
         text-anchor="middle"
         x="271.295"
         y="-180.883"
         font-family="Times,serif"
         font-size="14.00"
         id="text131">Code_Aster</text>
      <text
         text-anchor="middle"
         x="271.295"
         y="-165.883"
         font-family="Times,serif"
         font-size="14.00"
         id="text133">ZeBuLoN</text>
    </g>
    <!-- DS_DEGL&#45;&gt;ABAQUS -->
    <g
       id="edge17"
       class="edge">
      <title
         id="title136">DS_DEGL-&gt;ABAQUS</title>
      <path
         fill="none"
         stroke="black"
         d="M228.663,-224.368C213.204,-238.299 197.528,-256.105 189.295,-276.167 180.228,-298.263 178.949,-308.379 189.295,-329.907 214.962,-383.31 271.267,-421.734 316.641,-445.468"
         id="path138" />
      <polygon
         fill="black"
         stroke="black"
         points="315.059,-448.59 325.557,-450.019 318.241,-442.356 315.059,-448.59"
         id="polygon140" />
    </g>
    <!-- DS_DF -->
    <g
       id="node6"
       class="node">
      <title
         id="title143">DS_DF</title>
      <ellipse
         fill="none"
         stroke="black"
         cx="208.295"
         cy="-18"
         rx="37.8943"
         ry="18"
         id="ellipse145" />
      <text
         text-anchor="middle"
         x="208.295"
         y="-14.3"
         font-family="Times,serif"
         font-size="14.00"
         id="text147">DS_DF</text>
    </g>
    <!-- DS_DEGL&#45;&gt;DS_DF -->
    <g
       id="edge18"
       class="edge">
      <title
         id="title150">DS_DEGL-&gt;DS_DF</title>
      <path
         fill="none"
         stroke="black"
         d="M245.888,-148.573C239.089,-135.854 232.258,-121.652 227.295,-108 219.974,-87.8619 215.078,-64.0825 212.092,-46.1718"
         id="path152" />
      <polygon
         fill="black"
         stroke="black"
         points="215.522,-45.4558 210.512,-36.1203 208.607,-46.5423 215.522,-45.4558"
         id="polygon154" />
    </g>
    <!-- DS_DEGL&#45;&gt;SPATIAL_MODULI -->
    <g
       id="edge16"
       class="edge">
      <title
         id="title157">DS_DEGL-&gt;SPATIAL_MODULI</title>
      <path
         fill="none"
         stroke="black"
         d="M317.992,-220.335C327.416,-226.862 337.187,-233.788 346.295,-240.167 364.903,-253.198 385.807,-267.584 401.859,-279.202"
         id="path159" />
      <polygon
         fill="black"
         stroke="black"
         points="400.1,-282.252 410.233,-285.345 404.24,-276.608 400.1,-282.252"
         id="polygon161" />
    </g>
    <!-- DS_DC -->
    <g
       id="node11"
       class="node">
      <title
         id="title164">DS_DC</title>
      <ellipse
         fill="none"
         stroke="black"
         cx="274.295"
         cy="-90"
         rx="38.1938"
         ry="18"
         id="ellipse166" />
      <text
         text-anchor="middle"
         x="274.295"
         y="-86.3"
         font-family="Times,serif"
         font-size="14.00"
         id="text168">DS_DC</text>
    </g>
    <!-- DS_DEGL&#45;&gt;DS_DC -->
    <g
       id="edge15"
       class="edge">
      <title
         id="title171">DS_DEGL-&gt;DS_DC</title>
      <path
         fill="none"
         stroke="black"
         d="M265.968,-143.972C266.169,-135.188 266.652,-126.284 267.385,-118.346"
         id="path173" />
      <polygon
         fill="black"
         stroke="black"
         points="270.884,-118.554 268.535,-108.223 263.928,-117.764 270.884,-118.554"
         id="polygon175" />
    </g>
    <!-- DS_DF&#45;&gt;DTAU_DF -->
    <g
       id="edge1"
       class="edge">
      <title
         id="title178">DS_DF-&gt;DTAU_DF</title>
      <path
         fill="none"
         stroke="black"
         d="M200.633,-35.8072C179.039,-85.9453 123.408,-236.748 189.295,-329.907 209.746,-358.823 247.346,-372.069 279.784,-378.087"
         id="path180" />
      <polygon
         fill="black"
         stroke="black"
         points="279.221,-381.542 289.66,-379.733 280.371,-374.637 279.221,-381.542"
         id="polygon182" />
    </g>
    <!-- DTAU_DF&#45;&gt;DSIG_DF -->
    <g
       id="edge5"
       class="edge">
      <title
         id="title185">DTAU_DF-&gt;DSIG_DF</title>
      <path
         fill="none"
         stroke="black"
         d="M300.426,-372.188C250.575,-358.44 163.848,-334.524 107.522,-318.991"
         id="path187" />
      <polygon
         fill="black"
         stroke="black"
         points="108.29,-315.572 97.7192,-316.287 106.429,-322.32 108.29,-315.572"
         id="polygon189" />
    </g>
    <!-- DTAU_DF&#45;&gt;DTAU_DDF -->
    <g
       id="edge6"
       class="edge">
      <title
         id="title192">DTAU_DF-&gt;DTAU_DDF</title>
      <path
         fill="none"
         stroke="black"
         d="M318.184,-367.324C308.199,-358.424 296.302,-346.928 285.846,-336.18"
         id="path194" />
      <polygon
         fill="black"
         stroke="black"
         points="288.32,-333.704 278.877,-328.9 283.264,-338.544 288.32,-333.704"
         id="polygon196" />
    </g>
    <!-- DTAU_DF&#45;&gt;ABAQUS -->
    <g
       id="edge4"
       class="edge">
      <title
         id="title199">DTAU_DF-&gt;ABAQUS</title>
      <path
         fill="none"
         stroke="black"
         d="M352.728,-401.315C357.532,-409.236 362.88,-419.172 367.797,-429.14"
         id="path201" />
      <polygon
         fill="black"
         stroke="black"
         points="364.684,-430.744 372.163,-438.248 370.996,-427.717 364.684,-430.744"
         id="polygon203" />
    </g>
    <!-- DTAU_DF&#45;&gt;C_TAU_JAUMANN -->
    <g
       id="edge2"
       class="edge">
      <title
         id="title206">DTAU_DF-&gt;C_TAU_JAUMANN</title>
      <path
         fill="none"
         stroke="black"
         d="M387.247,-377.61C424.96,-371.481 476.99,-358.286 514.295,-329.907 551.929,-301.278 576.572,-250.51 591.534,-219.516"
         id="path208" />
      <polygon
         fill="black"
         stroke="black"
         points="594.838,-220.725 596.056,-210.201 588.54,-217.668 594.838,-220.725"
         id="polygon210" />
    </g>
    <!-- DTAU_DF&#45;&gt;SPATIAL_MODULI -->
    <g
       id="edge3"
       class="edge">
      <title
         id="title213">DTAU_DF-&gt;SPATIAL_MODULI</title>
      <path
         fill="none"
         stroke="black"
         d="M352.322,-366.18C363.745,-354.811 380.504,-339.621 395.352,-327.105"
         id="path215" />
      <polygon
         fill="black"
         stroke="black"
         points="397.893,-329.545 403.358,-320.468 393.426,-324.156 397.893,-329.545"
         id="polygon217" />
    </g>
    <!-- C_TAU_JAUMANN&#45;&gt;ABAQUS -->
    <g
       id="edge26"
       class="edge">
      <title
         id="title220">C_TAU_JAUMANN-&gt;ABAQUS</title>
      <path
         fill="none"
         stroke="black"
         d="M611.612,-210.077C612.229,-237.441 603.694,-292.025 578.295,-329.907 545.488,-378.836 490.696,-418.452 447.451,-443.74"
         id="path222" />
      <polygon
         fill="black"
         stroke="black"
         points="445.625,-440.752 438.689,-448.761 449.105,-446.826 445.625,-440.752"
         id="polygon224" />
    </g>
    <!-- C_TAU_JAUMANN&#45;&gt;DTAU_DF -->
    <g
       id="edge27"
       class="edge">
      <title
         id="title227">C_TAU_JAUMANN-&gt;DTAU_DF</title>
      <path
         fill="none"
         stroke="black"
         d="M606.927,-210.201C599.753,-239.262 574.001,-298.18 532.295,-329.907 493.798,-359.192 439.622,-372.309 398.374,-378.176"
         id="path229" />
      <polygon
         fill="black"
         stroke="black"
         points="397.907,-374.707 388.45,-379.485 398.822,-381.647 397.907,-374.707"
         id="polygon231" />
    </g>
    <!-- C_TAU_JAUMANN&#45;&gt;SPATIAL_MODULI -->
    <g
       id="edge28"
       class="edge">
      <title
         id="title234">C_TAU_JAUMANN-&gt;SPATIAL_MODULI</title>
      <path
         fill="none"
         stroke="black"
         d="M584.922,-209.66C555.449,-228.808 503.501,-260.34 467.251,-281.149"
         id="path236" />
      <polygon
         fill="black"
         stroke="black"
         points="465.353,-278.202 458.397,-286.194 468.818,-284.284 465.353,-278.202"
         id="polygon238" />
    </g>
    <!-- SPATIAL_MODULI&#45;&gt;C_TRUESDELL -->
    <g
       id="edge8"
       class="edge">
      <title
         id="title241">SPATIAL_MODULI-&gt;C_TRUESDELL</title>
      <path
         fill="none"
         stroke="black"
         d="M421.764,-285.013C420.101,-272.935 419.094,-256.097 418.897,-240.128"
         id="path243" />
      <polygon
         fill="black"
         stroke="black"
         points="422.397,-239.814 418.886,-229.818 415.397,-239.822 422.397,-239.814"
         id="polygon245" />
    </g>
    <!-- SPATIAL_MODULI&#45;&gt;ABAQUS -->
    <g
       id="edge9"
       class="edge">
      <title
         id="title248">SPATIAL_MODULI-&gt;ABAQUS</title>
      <path
         fill="none"
         stroke="black"
         d="M427.097,-321.387C423.161,-346.355 411.629,-393.296 401.175,-428.628"
         id="path250" />
      <polygon
         fill="black"
         stroke="black"
         points="397.808,-427.672 398.263,-438.257 404.508,-429.699 397.808,-427.672"
         id="polygon252" />
    </g>
    <!-- SPATIAL_MODULI&#45;&gt;DS_DEGL -->
    <g
       id="edge10"
       class="edge">
      <title
         id="title255">SPATIAL_MODULI-&gt;DS_DEGL</title>
      <path
         fill="none"
         stroke="black"
         d="M396.544,-286.123C376.698,-273.692 350.815,-255.938 328.295,-240.167 325.08,-237.915 321.781,-235.594 318.468,-233.248"
         id="path257" />
      <polygon
         fill="black"
         stroke="black"
         points="320.415,-230.337 310.241,-227.383 316.352,-236.038 320.415,-230.337"
         id="polygon259" />
    </g>
    <!-- SPATIAL_MODULI&#45;&gt;DTAU_DF -->
    <g
       id="edge11"
       class="edge">
      <title
         id="title262">SPATIAL_MODULI-&gt;DTAU_DF</title>
      <path
         fill="none"
         stroke="black"
         d="M414.196,-320.835C402.417,-332.552 385.005,-348.3 369.854,-361.002"
         id="path264" />
      <polygon
         fill="black"
         stroke="black"
         points="367.215,-358.641 361.721,-367.7 371.665,-364.045 367.215,-358.641"
         id="polygon266" />
    </g>
    <!-- SPATIAL_MODULI&#45;&gt;C_TAU_JAUMANN -->
    <g
       id="edge12"
       class="edge">
      <title
         id="title269">SPATIAL_MODULI-&gt;C_TAU_JAUMANN</title>
      <path
         fill="none"
         stroke="black"
         d="M449.624,-285.489C479.017,-266.391 530.815,-234.947 567.07,-214.126"
         id="path271" />
      <polygon
         fill="black"
         stroke="black"
         points="568.975,-217.069 575.929,-209.076 565.508,-210.987 568.975,-217.069"
         id="polygon273" />
    </g>
    <!-- DSIG_DDF&#45;&gt;DSIG_DF -->
    <g
       id="edge14"
       class="edge">
      <title
         id="title276">DSIG_DDF-&gt;DSIG_DF</title>
      <path
         fill="none"
         stroke="black"
         d="M58.3713,-210.231C60.0072,-225.184 60.4441,-247.365 59.6819,-266.178"
         id="path278" />
      <polygon
         fill="black"
         stroke="black"
         points="56.1843,-266.041 59.1352,-276.216 63.174,-266.421 56.1843,-266.041"
         id="polygon280" />
    </g>
    <!-- DS_DC&#45;&gt;DS_DEGL -->
    <g
       id="edge20"
       class="edge">
      <title
         id="title283">DS_DC-&gt;DS_DEGL</title>
      <path
         fill="none"
         stroke="black"
         d="M278.994,-107.865C279.604,-115.331 279.823,-124.591 279.694,-134.194"
         id="path285" />
      <polygon
         fill="black"
         stroke="black"
         points="276.193,-134.179 279.436,-144.265 283.191,-134.358 276.193,-134.179"
         id="polygon287" />
    </g>
    <!-- DS_DC&#45;&gt;DS_DF -->
    <g
       id="edge19"
       class="edge">
      <title
         id="title290">DS_DC-&gt;DS_DF</title>
      <path
         fill="none"
         stroke="black"
         d="M259.319,-73.1159C250.712,-63.987 239.744,-52.3552 230.185,-42.2168"
         id="path292" />
      <polygon
         fill="black"
         stroke="black"
         points="232.619,-39.6961 223.212,-34.8212 227.526,-44.4982 232.619,-39.6961"
         id="polygon294" />
    </g>
  </g>
</svg>
